<?xml version="1.0" encoding="utf-8" standalone="no"?>
<!DOCTYPE svg PUBLIC "-//W3C//DTD SVG 1.1//EN"
  "http://www.w3.org/Graphics/SVG/1.1/DTD/svg11.dtd">
<!-- Created with matplotlib (https://matplotlib.org/) -->
<svg height="345.6pt" version="1.1" viewBox="0 0 460.8 345.6" width="460.8pt" xmlns="http://www.w3.org/2000/svg" xmlns:xlink="http://www.w3.org/1999/xlink">
 <metadata>
  <rdf:RDF xmlns:cc="http://creativecommons.org/ns#" xmlns:dc="http://purl.org/dc/elements/1.1/" xmlns:rdf="http://www.w3.org/1999/02/22-rdf-syntax-ns#">
   <cc:Work>
    <dc:type rdf:resource="http://purl.org/dc/dcmitype/StillImage"/>
    <dc:date>2023-12-11T15:49:36.662018</dc:date>
    <dc:format>image/svg+xml</dc:format>
    <dc:creator>
     <cc:Agent>
      <dc:title>Matplotlib v3.3.4, https://matplotlib.org/</dc:title>
     </cc:Agent>
    </dc:creator>
   </cc:Work>
  </rdf:RDF>
 </metadata>
 <defs>
  <style type="text/css">*{stroke-linecap:butt;stroke-linejoin:round;}</style>
 </defs>
 <g id="figure_1">
  <g id="patch_1">
   <path d="M 0 345.6 
L 460.8 345.6 
L 460.8 0 
L 0 0 
z
" style="fill:#ffffff;"/>
  </g>
  <g id="patch_2">
   <path d="M 103.104 307.584 
L 369.216 307.584 
L 369.216 41.472 
L 103.104 41.472 
z
" style="fill:#ffffff;"/>
  </g>
  <g id="pane3d_1">
   <g id="patch_3">
    <path d="M 123.197291 241.969309 
L 211.076164 168.307495 
L 209.854564 62.073991 
L 117.770234 129.272941 
" style="fill:#f2f2f2;opacity:0.5;stroke:#f2f2f2;stroke-linejoin:miter;"/>
   </g>
  </g>
  <g id="pane3d_2">
   <g id="patch_4">
    <path d="M 211.076164 168.307495 
L 352.090401 209.294766 
L 357.122702 99.402171 
L 209.854564 62.073991 
" style="fill:#e6e6e6;opacity:0.5;stroke:#e6e6e6;stroke-linejoin:miter;"/>
   </g>
  </g>
  <g id="pane3d_3">
   <g id="patch_5">
    <path d="M 123.197291 241.969309 
L 272.679269 290.790123 
L 352.090401 209.294766 
L 211.076164 168.307495 
" style="fill:#ececec;opacity:0.5;stroke:#ececec;stroke-linejoin:miter;"/>
   </g>
  </g>
  <g id="axis3d_1">
   <g id="line2d_1">
    <path d="M 123.197291 241.969309 
L 272.679269 290.790123 
" style="fill:none;stroke:#000000;stroke-linecap:square;stroke-width:0.8;"/>
   </g>
   <g id="text_1">
    <!-- Time of the day -->
    <g transform="translate(141.534498 291.453876)rotate(-341.912962)scale(0.1 -0.1)">
     <defs>
      <path d="M -0.296875 72.90625 
L 61.375 72.90625 
L 61.375 64.59375 
L 35.5 64.59375 
L 35.5 0 
L 25.59375 0 
L 25.59375 64.59375 
L -0.296875 64.59375 
z
" id="DejaVuSans-84"/>
      <path d="M 9.421875 54.6875 
L 18.40625 54.6875 
L 18.40625 0 
L 9.421875 0 
z
M 9.421875 75.984375 
L 18.40625 75.984375 
L 18.40625 64.59375 
L 9.421875 64.59375 
z
" id="DejaVuSans-105"/>
      <path d="M 52 44.1875 
Q 55.375 50.25 60.0625 53.125 
Q 64.75 56 71.09375 56 
Q 79.640625 56 84.28125 50.015625 
Q 88.921875 44.046875 88.921875 33.015625 
L 88.921875 0 
L 79.890625 0 
L 79.890625 32.71875 
Q 79.890625 40.578125 77.09375 44.375 
Q 74.3125 48.1875 68.609375 48.1875 
Q 61.625 48.1875 57.5625 43.546875 
Q 53.515625 38.921875 53.515625 30.90625 
L 53.515625 0 
L 44.484375 0 
L 44.484375 32.71875 
Q 44.484375 40.625 41.703125 44.40625 
Q 38.921875 48.1875 33.109375 48.1875 
Q 26.21875 48.1875 22.15625 43.53125 
Q 18.109375 38.875 18.109375 30.90625 
L 18.109375 0 
L 9.078125 0 
L 9.078125 54.6875 
L 18.109375 54.6875 
L 18.109375 46.1875 
Q 21.1875 51.21875 25.484375 53.609375 
Q 29.78125 56 35.6875 56 
Q 41.65625 56 45.828125 52.96875 
Q 50 49.953125 52 44.1875 
z
" id="DejaVuSans-109"/>
      <path d="M 56.203125 29.59375 
L 56.203125 25.203125 
L 14.890625 25.203125 
Q 15.484375 15.921875 20.484375 11.0625 
Q 25.484375 6.203125 34.421875 6.203125 
Q 39.59375 6.203125 44.453125 7.46875 
Q 49.3125 8.734375 54.109375 11.28125 
L 54.109375 2.78125 
Q 49.265625 0.734375 44.1875 -0.34375 
Q 39.109375 -1.421875 33.890625 -1.421875 
Q 20.796875 -1.421875 13.15625 6.1875 
Q 5.515625 13.8125 5.515625 26.8125 
Q 5.515625 40.234375 12.765625 48.109375 
Q 20.015625 56 32.328125 56 
Q 43.359375 56 49.78125 48.890625 
Q 56.203125 41.796875 56.203125 29.59375 
z
M 47.21875 32.234375 
Q 47.125 39.59375 43.09375 43.984375 
Q 39.0625 48.390625 32.421875 48.390625 
Q 24.90625 48.390625 20.390625 44.140625 
Q 15.875 39.890625 15.1875 32.171875 
z
" id="DejaVuSans-101"/>
      <path id="DejaVuSans-32"/>
      <path d="M 30.609375 48.390625 
Q 23.390625 48.390625 19.1875 42.75 
Q 14.984375 37.109375 14.984375 27.296875 
Q 14.984375 17.484375 19.15625 11.84375 
Q 23.34375 6.203125 30.609375 6.203125 
Q 37.796875 6.203125 41.984375 11.859375 
Q 46.1875 17.53125 46.1875 27.296875 
Q 46.1875 37.015625 41.984375 42.703125 
Q 37.796875 48.390625 30.609375 48.390625 
z
M 30.609375 56 
Q 42.328125 56 49.015625 48.375 
Q 55.71875 40.765625 55.71875 27.296875 
Q 55.71875 13.875 49.015625 6.21875 
Q 42.328125 -1.421875 30.609375 -1.421875 
Q 18.84375 -1.421875 12.171875 6.21875 
Q 5.515625 13.875 5.515625 27.296875 
Q 5.515625 40.765625 12.171875 48.375 
Q 18.84375 56 30.609375 56 
z
" id="DejaVuSans-111"/>
      <path d="M 37.109375 75.984375 
L 37.109375 68.5 
L 28.515625 68.5 
Q 23.6875 68.5 21.796875 66.546875 
Q 19.921875 64.59375 19.921875 59.515625 
L 19.921875 54.6875 
L 34.71875 54.6875 
L 34.71875 47.703125 
L 19.921875 47.703125 
L 19.921875 0 
L 10.890625 0 
L 10.890625 47.703125 
L 2.296875 47.703125 
L 2.296875 54.6875 
L 10.890625 54.6875 
L 10.890625 58.5 
Q 10.890625 67.625 15.140625 71.796875 
Q 19.390625 75.984375 28.609375 75.984375 
z
" id="DejaVuSans-102"/>
      <path d="M 18.3125 70.21875 
L 18.3125 54.6875 
L 36.8125 54.6875 
L 36.8125 47.703125 
L 18.3125 47.703125 
L 18.3125 18.015625 
Q 18.3125 11.328125 20.140625 9.421875 
Q 21.96875 7.515625 27.59375 7.515625 
L 36.8125 7.515625 
L 36.8125 0 
L 27.59375 0 
Q 17.1875 0 13.234375 3.875 
Q 9.28125 7.765625 9.28125 18.015625 
L 9.28125 47.703125 
L 2.6875 47.703125 
L 2.6875 54.6875 
L 9.28125 54.6875 
L 9.28125 70.21875 
z
" id="DejaVuSans-116"/>
      <path d="M 54.890625 33.015625 
L 54.890625 0 
L 45.90625 0 
L 45.90625 32.71875 
Q 45.90625 40.484375 42.875 44.328125 
Q 39.84375 48.1875 33.796875 48.1875 
Q 26.515625 48.1875 22.3125 43.546875 
Q 18.109375 38.921875 18.109375 30.90625 
L 18.109375 0 
L 9.078125 0 
L 9.078125 75.984375 
L 18.109375 75.984375 
L 18.109375 46.1875 
Q 21.34375 51.125 25.703125 53.5625 
Q 30.078125 56 35.796875 56 
Q 45.21875 56 50.046875 50.171875 
Q 54.890625 44.34375 54.890625 33.015625 
z
" id="DejaVuSans-104"/>
      <path d="M 45.40625 46.390625 
L 45.40625 75.984375 
L 54.390625 75.984375 
L 54.390625 0 
L 45.40625 0 
L 45.40625 8.203125 
Q 42.578125 3.328125 38.25 0.953125 
Q 33.9375 -1.421875 27.875 -1.421875 
Q 17.96875 -1.421875 11.734375 6.484375 
Q 5.515625 14.40625 5.515625 27.296875 
Q 5.515625 40.1875 11.734375 48.09375 
Q 17.96875 56 27.875 56 
Q 33.9375 56 38.25 53.625 
Q 42.578125 51.265625 45.40625 46.390625 
z
M 14.796875 27.296875 
Q 14.796875 17.390625 18.875 11.75 
Q 22.953125 6.109375 30.078125 6.109375 
Q 37.203125 6.109375 41.296875 11.75 
Q 45.40625 17.390625 45.40625 27.296875 
Q 45.40625 37.203125 41.296875 42.84375 
Q 37.203125 48.484375 30.078125 48.484375 
Q 22.953125 48.484375 18.875 42.84375 
Q 14.796875 37.203125 14.796875 27.296875 
z
" id="DejaVuSans-100"/>
      <path d="M 34.28125 27.484375 
Q 23.390625 27.484375 19.1875 25 
Q 14.984375 22.515625 14.984375 16.5 
Q 14.984375 11.71875 18.140625 8.90625 
Q 21.296875 6.109375 26.703125 6.109375 
Q 34.1875 6.109375 38.703125 11.40625 
Q 43.21875 16.703125 43.21875 25.484375 
L 43.21875 27.484375 
z
M 52.203125 31.203125 
L 52.203125 0 
L 43.21875 0 
L 43.21875 8.296875 
Q 40.140625 3.328125 35.546875 0.953125 
Q 30.953125 -1.421875 24.3125 -1.421875 
Q 15.921875 -1.421875 10.953125 3.296875 
Q 6 8.015625 6 15.921875 
Q 6 25.140625 12.171875 29.828125 
Q 18.359375 34.515625 30.609375 34.515625 
L 43.21875 34.515625 
L 43.21875 35.40625 
Q 43.21875 41.609375 39.140625 45 
Q 35.0625 48.390625 27.6875 48.390625 
Q 23 48.390625 18.546875 47.265625 
Q 14.109375 46.140625 10.015625 43.890625 
L 10.015625 52.203125 
Q 14.9375 54.109375 19.578125 55.046875 
Q 24.21875 56 28.609375 56 
Q 40.484375 56 46.34375 49.84375 
Q 52.203125 43.703125 52.203125 31.203125 
z
" id="DejaVuSans-97"/>
      <path d="M 32.171875 -5.078125 
Q 28.375 -14.84375 24.75 -17.8125 
Q 21.140625 -20.796875 15.09375 -20.796875 
L 7.90625 -20.796875 
L 7.90625 -13.28125 
L 13.1875 -13.28125 
Q 16.890625 -13.28125 18.9375 -11.515625 
Q 21 -9.765625 23.484375 -3.21875 
L 25.09375 0.875 
L 2.984375 54.6875 
L 12.5 54.6875 
L 29.59375 11.921875 
L 46.6875 54.6875 
L 56.203125 54.6875 
z
" id="DejaVuSans-121"/>
     </defs>
     <use xlink:href="#DejaVuSans-84"/>
     <use x="57.958984" xlink:href="#DejaVuSans-105"/>
     <use x="85.742188" xlink:href="#DejaVuSans-109"/>
     <use x="183.154297" xlink:href="#DejaVuSans-101"/>
     <use x="244.677734" xlink:href="#DejaVuSans-32"/>
     <use x="276.464844" xlink:href="#DejaVuSans-111"/>
     <use x="337.646484" xlink:href="#DejaVuSans-102"/>
     <use x="372.851562" xlink:href="#DejaVuSans-32"/>
     <use x="404.638672" xlink:href="#DejaVuSans-116"/>
     <use x="443.847656" xlink:href="#DejaVuSans-104"/>
     <use x="507.226562" xlink:href="#DejaVuSans-101"/>
     <use x="568.75" xlink:href="#DejaVuSans-32"/>
     <use x="600.537109" xlink:href="#DejaVuSans-100"/>
     <use x="664.013672" xlink:href="#DejaVuSans-97"/>
     <use x="725.292969" xlink:href="#DejaVuSans-121"/>
    </g>
   </g>
   <g id="Line3DCollection_1">
    <path d="M 132.250704 244.926154 
L 219.652219 170.800215 
L 218.79322 64.33968 
" style="fill:none;stroke:#b0b0b0;stroke-width:0.8;"/>
    <path d="M 158.726327 253.573092 
L 244.705514 178.082219 
L 244.918927 70.961785 
" style="fill:none;stroke:#b0b0b0;stroke-width:0.8;"/>
    <path d="M 185.713056 262.386958 
L 270.20212 185.493076 
L 271.527037 77.706165 
" style="fill:none;stroke:#b0b0b0;stroke-width:0.8;"/>
    <path d="M 213.225837 271.372632 
L 296.153908 193.036236 
L 298.631037 84.576239 
" style="fill:none;stroke:#b0b0b0;stroke-width:0.8;"/>
    <path d="M 241.280202 280.535187 
L 322.573177 200.715275 
L 326.24492 91.575553 
" style="fill:none;stroke:#b0b0b0;stroke-width:0.8;"/>
   </g>
   <g id="xtick_1">
    <g id="line2d_2">
     <path d="M 133.011792 244.280669 
L 130.725263 246.219892 
" style="fill:none;stroke:#000000;stroke-linecap:square;stroke-width:0.8;"/>
    </g>
    <g id="text_2">
     <!-- 0 -->
     <g transform="translate(121.540405 268.235303)scale(0.1 -0.1)">
      <defs>
       <path d="M 31.78125 66.40625 
Q 24.171875 66.40625 20.328125 58.90625 
Q 16.5 51.421875 16.5 36.375 
Q 16.5 21.390625 20.328125 13.890625 
Q 24.171875 6.390625 31.78125 6.390625 
Q 39.453125 6.390625 43.28125 13.890625 
Q 47.125 21.390625 47.125 36.375 
Q 47.125 51.421875 43.28125 58.90625 
Q 39.453125 66.40625 31.78125 66.40625 
z
M 31.78125 74.21875 
Q 44.046875 74.21875 50.515625 64.515625 
Q 56.984375 54.828125 56.984375 36.375 
Q 56.984375 17.96875 50.515625 8.265625 
Q 44.046875 -1.421875 31.78125 -1.421875 
Q 19.53125 -1.421875 13.0625 8.265625 
Q 6.59375 17.96875 6.59375 36.375 
Q 6.59375 54.828125 13.0625 64.515625 
Q 19.53125 74.21875 31.78125 74.21875 
z
" id="DejaVuSans-48"/>
      </defs>
      <use xlink:href="#DejaVuSans-48"/>
     </g>
    </g>
   </g>
   <g id="xtick_2">
    <g id="line2d_3">
     <path d="M 159.47561 252.915211 
L 157.224514 254.891704 
" style="fill:none;stroke:#000000;stroke-linecap:square;stroke-width:0.8;"/>
    </g>
    <g id="text_3">
     <!-- 20 -->
     <g transform="translate(144.86189 277.065452)scale(0.1 -0.1)">
      <defs>
       <path d="M 19.1875 8.296875 
L 53.609375 8.296875 
L 53.609375 0 
L 7.328125 0 
L 7.328125 8.296875 
Q 12.9375 14.109375 22.625 23.890625 
Q 32.328125 33.6875 34.8125 36.53125 
Q 39.546875 41.84375 41.421875 45.53125 
Q 43.3125 49.21875 43.3125 52.78125 
Q 43.3125 58.59375 39.234375 62.25 
Q 35.15625 65.921875 28.609375 65.921875 
Q 23.96875 65.921875 18.8125 64.3125 
Q 13.671875 62.703125 7.8125 59.421875 
L 7.8125 69.390625 
Q 13.765625 71.78125 18.9375 73 
Q 24.125 74.21875 28.421875 74.21875 
Q 39.75 74.21875 46.484375 68.546875 
Q 53.21875 62.890625 53.21875 53.421875 
Q 53.21875 48.921875 51.53125 44.890625 
Q 49.859375 40.875 45.40625 35.40625 
Q 44.1875 33.984375 37.640625 27.21875 
Q 31.109375 20.453125 19.1875 8.296875 
z
" id="DejaVuSans-50"/>
      </defs>
      <use xlink:href="#DejaVuSans-50"/>
      <use x="63.623047" xlink:href="#DejaVuSans-48"/>
     </g>
    </g>
   </g>
   <g id="xtick_3">
    <g id="line2d_4">
     <path d="M 186.449936 261.71632 
L 184.236074 263.731167 
" style="fill:none;stroke:#000000;stroke-linecap:square;stroke-width:0.8;"/>
    </g>
    <g id="text_4">
     <!-- 40 -->
     <g transform="translate(171.878194 286.066712)scale(0.1 -0.1)">
      <defs>
       <path d="M 37.796875 64.3125 
L 12.890625 25.390625 
L 37.796875 25.390625 
z
M 35.203125 72.90625 
L 47.609375 72.90625 
L 47.609375 25.390625 
L 58.015625 25.390625 
L 58.015625 17.1875 
L 47.609375 17.1875 
L 47.609375 0 
L 37.796875 0 
L 37.796875 17.1875 
L 4.890625 17.1875 
L 4.890625 26.703125 
z
" id="DejaVuSans-52"/>
      </defs>
      <use xlink:href="#DejaVuSans-52"/>
      <use x="63.623047" xlink:href="#DejaVuSans-48"/>
     </g>
    </g>
   </g>
   <g id="xtick_4">
    <g id="line2d_5">
     <path d="M 213.949685 270.688863 
L 211.774943 272.74319 
" style="fill:none;stroke:#000000;stroke-linecap:square;stroke-width:0.8;"/>
    </g>
    <g id="text_5">
     <!-- 60 -->
     <g transform="translate(199.423141 295.244105)scale(0.1 -0.1)">
      <defs>
       <path d="M 33.015625 40.375 
Q 26.375 40.375 22.484375 35.828125 
Q 18.609375 31.296875 18.609375 23.390625 
Q 18.609375 15.53125 22.484375 10.953125 
Q 26.375 6.390625 33.015625 6.390625 
Q 39.65625 6.390625 43.53125 10.953125 
Q 47.40625 15.53125 47.40625 23.390625 
Q 47.40625 31.296875 43.53125 35.828125 
Q 39.65625 40.375 33.015625 40.375 
z
M 52.59375 71.296875 
L 52.59375 62.3125 
Q 48.875 64.0625 45.09375 64.984375 
Q 41.3125 65.921875 37.59375 65.921875 
Q 27.828125 65.921875 22.671875 59.328125 
Q 17.53125 52.734375 16.796875 39.40625 
Q 19.671875 43.65625 24.015625 45.921875 
Q 28.375 48.1875 33.59375 48.1875 
Q 44.578125 48.1875 50.953125 41.515625 
Q 57.328125 34.859375 57.328125 23.390625 
Q 57.328125 12.15625 50.6875 5.359375 
Q 44.046875 -1.421875 33.015625 -1.421875 
Q 20.359375 -1.421875 13.671875 8.265625 
Q 6.984375 17.96875 6.984375 36.375 
Q 6.984375 53.65625 15.1875 63.9375 
Q 23.390625 74.21875 37.203125 74.21875 
Q 40.921875 74.21875 44.703125 73.484375 
Q 48.484375 72.75 52.59375 71.296875 
z
" id="DejaVuSans-54"/>
      </defs>
      <use xlink:href="#DejaVuSans-54"/>
      <use x="63.623047" xlink:href="#DejaVuSans-48"/>
     </g>
    </g>
   </g>
   <g id="xtick_5">
    <g id="line2d_6">
     <path d="M 241.99036 279.837897 
L 239.856717 281.932878 
" style="fill:none;stroke:#000000;stroke-linecap:square;stroke-width:0.8;"/>
    </g>
    <g id="text_6">
     <!-- 80 -->
     <g transform="translate(227.5124 304.602851)scale(0.1 -0.1)">
      <defs>
       <path d="M 31.78125 34.625 
Q 24.75 34.625 20.71875 30.859375 
Q 16.703125 27.09375 16.703125 20.515625 
Q 16.703125 13.921875 20.71875 10.15625 
Q 24.75 6.390625 31.78125 6.390625 
Q 38.8125 6.390625 42.859375 10.171875 
Q 46.921875 13.96875 46.921875 20.515625 
Q 46.921875 27.09375 42.890625 30.859375 
Q 38.875 34.625 31.78125 34.625 
z
M 21.921875 38.8125 
Q 15.578125 40.375 12.03125 44.71875 
Q 8.5 49.078125 8.5 55.328125 
Q 8.5 64.0625 14.71875 69.140625 
Q 20.953125 74.21875 31.78125 74.21875 
Q 42.671875 74.21875 48.875 69.140625 
Q 55.078125 64.0625 55.078125 55.328125 
Q 55.078125 49.078125 51.53125 44.71875 
Q 48 40.375 41.703125 38.8125 
Q 48.828125 37.15625 52.796875 32.3125 
Q 56.78125 27.484375 56.78125 20.515625 
Q 56.78125 9.90625 50.3125 4.234375 
Q 43.84375 -1.421875 31.78125 -1.421875 
Q 19.734375 -1.421875 13.25 4.234375 
Q 6.78125 9.90625 6.78125 20.515625 
Q 6.78125 27.484375 10.78125 32.3125 
Q 14.796875 37.15625 21.921875 38.8125 
z
M 18.3125 54.390625 
Q 18.3125 48.734375 21.84375 45.5625 
Q 25.390625 42.390625 31.78125 42.390625 
Q 38.140625 42.390625 41.71875 45.5625 
Q 45.3125 48.734375 45.3125 54.390625 
Q 45.3125 60.0625 41.71875 63.234375 
Q 38.140625 66.40625 31.78125 66.40625 
Q 25.390625 66.40625 21.84375 63.234375 
Q 18.3125 60.0625 18.3125 54.390625 
z
" id="DejaVuSans-56"/>
      </defs>
      <use xlink:href="#DejaVuSans-56"/>
      <use x="63.623047" xlink:href="#DejaVuSans-48"/>
     </g>
    </g>
   </g>
  </g>
  <g id="axis3d_2">
   <g id="line2d_7">
    <path d="M 352.090401 209.294766 
L 272.679269 290.790123 
" style="fill:none;stroke:#000000;stroke-linecap:square;stroke-width:0.8;"/>
   </g>
   <g id="text_7">
    <!-- Temperature(℃) -->
    <g transform="translate(314.365301 307.653229)rotate(-45.742112)scale(0.1 -0.1)">
     <defs>
      <path d="M 18.109375 8.203125 
L 18.109375 -20.796875 
L 9.078125 -20.796875 
L 9.078125 54.6875 
L 18.109375 54.6875 
L 18.109375 46.390625 
Q 20.953125 51.265625 25.265625 53.625 
Q 29.59375 56 35.59375 56 
Q 45.5625 56 51.78125 48.09375 
Q 58.015625 40.1875 58.015625 27.296875 
Q 58.015625 14.40625 51.78125 6.484375 
Q 45.5625 -1.421875 35.59375 -1.421875 
Q 29.59375 -1.421875 25.265625 0.953125 
Q 20.953125 3.328125 18.109375 8.203125 
z
M 48.6875 27.296875 
Q 48.6875 37.203125 44.609375 42.84375 
Q 40.53125 48.484375 33.40625 48.484375 
Q 26.265625 48.484375 22.1875 42.84375 
Q 18.109375 37.203125 18.109375 27.296875 
Q 18.109375 17.390625 22.1875 11.75 
Q 26.265625 6.109375 33.40625 6.109375 
Q 40.53125 6.109375 44.609375 11.75 
Q 48.6875 17.390625 48.6875 27.296875 
z
" id="DejaVuSans-112"/>
      <path d="M 41.109375 46.296875 
Q 39.59375 47.171875 37.8125 47.578125 
Q 36.03125 48 33.890625 48 
Q 26.265625 48 22.1875 43.046875 
Q 18.109375 38.09375 18.109375 28.8125 
L 18.109375 0 
L 9.078125 0 
L 9.078125 54.6875 
L 18.109375 54.6875 
L 18.109375 46.1875 
Q 20.953125 51.171875 25.484375 53.578125 
Q 30.03125 56 36.53125 56 
Q 37.453125 56 38.578125 55.875 
Q 39.703125 55.765625 41.0625 55.515625 
z
" id="DejaVuSans-114"/>
      <path d="M 8.5 21.578125 
L 8.5 54.6875 
L 17.484375 54.6875 
L 17.484375 21.921875 
Q 17.484375 14.15625 20.5 10.265625 
Q 23.53125 6.390625 29.59375 6.390625 
Q 36.859375 6.390625 41.078125 11.03125 
Q 45.3125 15.671875 45.3125 23.6875 
L 45.3125 54.6875 
L 54.296875 54.6875 
L 54.296875 0 
L 45.3125 0 
L 45.3125 8.40625 
Q 42.046875 3.421875 37.71875 1 
Q 33.40625 -1.421875 27.6875 -1.421875 
Q 18.265625 -1.421875 13.375 4.4375 
Q 8.5 10.296875 8.5 21.578125 
z
M 31.109375 56 
z
" id="DejaVuSans-117"/>
      <path d="M 31 75.875 
Q 24.46875 64.65625 21.28125 53.65625 
Q 18.109375 42.671875 18.109375 31.390625 
Q 18.109375 20.125 21.3125 9.0625 
Q 24.515625 -2 31 -13.1875 
L 23.1875 -13.1875 
Q 15.875 -1.703125 12.234375 9.375 
Q 8.59375 20.453125 8.59375 31.390625 
Q 8.59375 42.28125 12.203125 53.3125 
Q 15.828125 64.359375 23.1875 75.875 
z
" id="DejaVuSans-40"/>
      <path d="M 25 67.921875 
Q 21.09375 67.921875 18.40625 65.203125 
Q 15.71875 62.5 15.71875 58.59375 
Q 15.71875 54.734375 18.40625 52.078125 
Q 21.09375 49.421875 25 49.421875 
Q 28.90625 49.421875 31.59375 52.078125 
Q 34.28125 54.734375 34.28125 58.59375 
Q 34.28125 62.453125 31.5625 65.1875 
Q 28.859375 67.921875 25 67.921875 
z
M 25 74.21875 
Q 28.125 74.21875 31 73.015625 
Q 33.890625 71.828125 35.984375 69.578125 
Q 38.234375 67.390625 39.359375 64.59375 
Q 40.484375 61.8125 40.484375 58.59375 
Q 40.484375 52.15625 35.96875 47.6875 
Q 31.453125 43.21875 24.90625 43.21875 
Q 18.3125 43.21875 13.90625 47.609375 
Q 9.515625 52 9.515625 58.59375 
Q 9.515625 65.140625 14 69.671875 
Q 18.5 74.21875 25 74.21875 
z
M 105.28125 67.28125 
L 105.28125 56.890625 
Q 100.296875 61.53125 94.65625 63.8125 
Q 89.015625 66.109375 82.671875 66.109375 
Q 70.171875 66.109375 63.53125 58.46875 
Q 56.890625 50.828125 56.890625 36.375 
Q 56.890625 21.96875 63.53125 14.328125 
Q 70.171875 6.6875 82.671875 6.6875 
Q 89.015625 6.6875 94.65625 8.984375 
Q 100.296875 11.28125 105.28125 15.921875 
L 105.28125 5.609375 
Q 100.109375 2.09375 94.3125 0.328125 
Q 88.53125 -1.421875 82.09375 -1.421875 
Q 65.53125 -1.421875 56 8.703125 
Q 46.484375 18.84375 46.484375 36.375 
Q 46.484375 53.953125 56 64.078125 
Q 65.53125 74.21875 82.09375 74.21875 
Q 88.625 74.21875 94.40625 72.484375 
Q 100.203125 70.75 105.28125 67.28125 
z
" id="DejaVuSans-8451"/>
      <path d="M 8.015625 75.875 
L 15.828125 75.875 
Q 23.140625 64.359375 26.78125 53.3125 
Q 30.421875 42.28125 30.421875 31.390625 
Q 30.421875 20.453125 26.78125 9.375 
Q 23.140625 -1.703125 15.828125 -13.1875 
L 8.015625 -13.1875 
Q 14.5 -2 17.703125 9.0625 
Q 20.90625 20.125 20.90625 31.390625 
Q 20.90625 42.671875 17.703125 53.65625 
Q 14.5 64.65625 8.015625 75.875 
z
" id="DejaVuSans-41"/>
     </defs>
     <use xlink:href="#DejaVuSans-84"/>
     <use x="44.083984" xlink:href="#DejaVuSans-101"/>
     <use x="105.607422" xlink:href="#DejaVuSans-109"/>
     <use x="203.019531" xlink:href="#DejaVuSans-112"/>
     <use x="266.496094" xlink:href="#DejaVuSans-101"/>
     <use x="328.019531" xlink:href="#DejaVuSans-114"/>
     <use x="369.132812" xlink:href="#DejaVuSans-97"/>
     <use x="430.412109" xlink:href="#DejaVuSans-116"/>
     <use x="469.621094" xlink:href="#DejaVuSans-117"/>
     <use x="533" xlink:href="#DejaVuSans-114"/>
     <use x="571.863281" xlink:href="#DejaVuSans-101"/>
     <use x="633.386719" xlink:href="#DejaVuSans-40"/>
     <use x="672.400391" xlink:href="#DejaVuSans-8451"/>
     <use x="784.705078" xlink:href="#DejaVuSans-41"/>
    </g>
   </g>
   <g id="Line3DCollection_2">
    <path d="M 130.715855 119.825816 
L 135.511429 231.647354 
L 283.849166 279.327061 
" style="fill:none;stroke:#b0b0b0;stroke-width:0.8;"/>
    <path d="M 149.603739 106.042299 
L 153.501538 216.567688 
L 300.142755 262.605829 
" style="fill:none;stroke:#b0b0b0;stroke-width:0.8;"/>
    <path d="M 167.835159 92.737839 
L 170.89297 201.989845 
L 315.866131 246.469778 
" style="fill:none;stroke:#b0b0b0;stroke-width:0.8;"/>
    <path d="M 185.443754 79.887888 
L 187.71512 187.889185 
L 331.048711 230.888716 
" style="fill:none;stroke:#b0b0b0;stroke-width:0.8;"/>
    <path d="M 202.460905 67.469547 
L 203.99549 174.242657 
L 345.717923 215.834495 
" style="fill:none;stroke:#b0b0b0;stroke-width:0.8;"/>
   </g>
   <g id="xtick_6">
    <g id="line2d_8">
     <path d="M 282.599509 278.925388 
L 286.35169 280.131439 
" style="fill:none;stroke:#000000;stroke-linecap:square;stroke-width:0.8;"/>
    </g>
    <g id="text_8">
     <!-- 15 -->
     <g transform="translate(290.291219 300.26252)scale(0.1 -0.1)">
      <defs>
       <path d="M 12.40625 8.296875 
L 28.515625 8.296875 
L 28.515625 63.921875 
L 10.984375 60.40625 
L 10.984375 69.390625 
L 28.421875 72.90625 
L 38.28125 72.90625 
L 38.28125 8.296875 
L 54.390625 8.296875 
L 54.390625 0 
L 12.40625 0 
z
" id="DejaVuSans-49"/>
       <path d="M 10.796875 72.90625 
L 49.515625 72.90625 
L 49.515625 64.59375 
L 19.828125 64.59375 
L 19.828125 46.734375 
Q 21.96875 47.46875 24.109375 47.828125 
Q 26.265625 48.1875 28.421875 48.1875 
Q 40.625 48.1875 47.75 41.5 
Q 54.890625 34.8125 54.890625 23.390625 
Q 54.890625 11.625 47.5625 5.09375 
Q 40.234375 -1.421875 26.90625 -1.421875 
Q 22.3125 -1.421875 17.546875 -0.640625 
Q 12.796875 0.140625 7.71875 1.703125 
L 7.71875 11.625 
Q 12.109375 9.234375 16.796875 8.0625 
Q 21.484375 6.890625 26.703125 6.890625 
Q 35.15625 6.890625 40.078125 11.328125 
Q 45.015625 15.765625 45.015625 23.390625 
Q 45.015625 31 40.078125 35.4375 
Q 35.15625 39.890625 26.703125 39.890625 
Q 22.75 39.890625 18.8125 39.015625 
Q 14.890625 38.140625 10.796875 36.28125 
z
" id="DejaVuSans-53"/>
      </defs>
      <use xlink:href="#DejaVuSans-49"/>
      <use x="63.623047" xlink:href="#DejaVuSans-53"/>
     </g>
    </g>
   </g>
   <g id="xtick_7">
    <g id="line2d_9">
     <path d="M 298.908499 262.218334 
L 302.614383 263.381799 
" style="fill:none;stroke:#000000;stroke-linecap:square;stroke-width:0.8;"/>
    </g>
    <g id="text_9">
     <!-- 20 -->
     <g transform="translate(306.366153 283.293847)scale(0.1 -0.1)">
      <use xlink:href="#DejaVuSans-50"/>
      <use x="63.623047" xlink:href="#DejaVuSans-48"/>
     </g>
    </g>
   </g>
   <g id="xtick_8">
    <g id="line2d_10">
     <path d="M 314.646972 246.095722 
L 318.307473 247.218818 
" style="fill:none;stroke:#000000;stroke-linecap:square;stroke-width:0.8;"/>
    </g>
    <g id="text_10">
     <!-- 25 -->
     <g transform="translate(321.878202 266.919355)scale(0.1 -0.1)">
      <use xlink:href="#DejaVuSans-50"/>
      <use x="63.623047" xlink:href="#DejaVuSans-53"/>
     </g>
    </g>
   </g>
   <g id="xtick_9">
    <g id="line2d_11">
     <path d="M 329.844349 230.527412 
L 333.460371 231.612205 
" style="fill:none;stroke:#000000;stroke-linecap:square;stroke-width:0.8;"/>
    </g>
    <g id="text_11">
     <!-- 30 -->
     <g transform="translate(336.856422 251.108372)scale(0.1 -0.1)">
      <defs>
       <path d="M 40.578125 39.3125 
Q 47.65625 37.796875 51.625 33 
Q 55.609375 28.21875 55.609375 21.1875 
Q 55.609375 10.40625 48.1875 4.484375 
Q 40.765625 -1.421875 27.09375 -1.421875 
Q 22.515625 -1.421875 17.65625 -0.515625 
Q 12.796875 0.390625 7.625 2.203125 
L 7.625 11.71875 
Q 11.71875 9.328125 16.59375 8.109375 
Q 21.484375 6.890625 26.8125 6.890625 
Q 36.078125 6.890625 40.9375 10.546875 
Q 45.796875 14.203125 45.796875 21.1875 
Q 45.796875 27.640625 41.28125 31.265625 
Q 36.765625 34.90625 28.71875 34.90625 
L 20.21875 34.90625 
L 20.21875 43.015625 
L 29.109375 43.015625 
Q 36.375 43.015625 40.234375 45.921875 
Q 44.09375 48.828125 44.09375 54.296875 
Q 44.09375 59.90625 40.109375 62.90625 
Q 36.140625 65.921875 28.71875 65.921875 
Q 24.65625 65.921875 20.015625 65.03125 
Q 15.375 64.15625 9.8125 62.3125 
L 9.8125 71.09375 
Q 15.4375 72.65625 20.34375 73.4375 
Q 25.25 74.21875 29.59375 74.21875 
Q 40.828125 74.21875 47.359375 69.109375 
Q 53.90625 64.015625 53.90625 55.328125 
Q 53.90625 49.265625 50.4375 45.09375 
Q 46.96875 40.921875 40.578125 39.3125 
z
" id="DejaVuSans-51"/>
      </defs>
      <use xlink:href="#DejaVuSans-51"/>
      <use x="63.623047" xlink:href="#DejaVuSans-48"/>
     </g>
    </g>
   </g>
   <g id="xtick_10">
    <g id="line2d_12">
     <path d="M 344.528063 215.485302 
L 348.100495 216.533718 
" style="fill:none;stroke:#000000;stroke-linecap:square;stroke-width:0.8;"/>
    </g>
    <g id="text_12">
     <!-- 35 -->
     <g transform="translate(351.327904 235.832301)scale(0.1 -0.1)">
      <use xlink:href="#DejaVuSans-51"/>
      <use x="63.623047" xlink:href="#DejaVuSans-53"/>
     </g>
    </g>
   </g>
  </g>
  <g id="axis3d_3">
   <g id="line2d_13">
    <path d="M 352.090401 209.294766 
L 357.122702 99.402171 
" style="fill:none;stroke:#000000;stroke-linecap:square;stroke-width:0.8;"/>
   </g>
   <g id="text_13">
    <!-- Load -->
    <g transform="translate(382.931136 152.902279)scale(0.1 -0.1)">
     <defs>
      <path d="M 9.8125 72.90625 
L 19.671875 72.90625 
L 19.671875 8.296875 
L 55.171875 8.296875 
L 55.171875 0 
L 9.8125 0 
z
" id="DejaVuSans-76"/>
     </defs>
     <use xlink:href="#DejaVuSans-76"/>
     <use x="53.962891" xlink:href="#DejaVuSans-111"/>
     <use x="115.144531" xlink:href="#DejaVuSans-97"/>
     <use x="176.423828" xlink:href="#DejaVuSans-100"/>
    </g>
   </g>
   <g id="Line3DCollection_3">
    <path d="M 352.348335 203.662135 
L 211.013425 162.851498 
L 122.919568 236.202202 
" style="fill:none;stroke:#b0b0b0;stroke-width:0.8;"/>
    <path d="M 352.958429 190.339237 
L 210.86508 149.951094 
L 122.262476 222.557261 
" style="fill:none;stroke:#b0b0b0;stroke-width:0.8;"/>
    <path d="M 353.575171 176.871168 
L 210.715197 136.916839 
L 121.597951 208.757973 
" style="fill:none;stroke:#b0b0b0;stroke-width:0.8;"/>
    <path d="M 354.19867 163.255544 
L 210.56375 123.746637 
L 120.925866 194.801703 
" style="fill:none;stroke:#b0b0b0;stroke-width:0.8;"/>
    <path d="M 354.829038 149.489926 
L 210.410715 110.438352 
L 120.246093 180.685759 
" style="fill:none;stroke:#b0b0b0;stroke-width:0.8;"/>
    <path d="M 355.466388 135.571821 
L 210.256068 96.9898 
L 119.558497 166.407384 
" style="fill:none;stroke:#b0b0b0;stroke-width:0.8;"/>
    <path d="M 356.110838 121.498683 
L 210.099782 83.398752 
L 118.862943 151.963758 
" style="fill:none;stroke:#b0b0b0;stroke-width:0.8;"/>
    <path d="M 356.762507 107.267905 
L 209.941831 69.66293 
L 118.159292 137.351996 
" style="fill:none;stroke:#b0b0b0;stroke-width:0.8;"/>
   </g>
   <g id="xtick_11">
    <g id="line2d_14">
     <path d="M 351.162018 203.319585 
L 354.723796 204.348053 
" style="fill:none;stroke:#000000;stroke-linecap:square;stroke-width:0.8;"/>
    </g>
    <g id="text_14">
     <!-- 30 -->
     <g transform="translate(364.275475 208.666539)scale(0.1 -0.1)">
      <use xlink:href="#DejaVuSans-51"/>
      <use x="63.623047" xlink:href="#DejaVuSans-48"/>
     </g>
    </g>
   </g>
   <g id="xtick_12">
    <g id="line2d_15">
     <path d="M 351.765444 190.000147 
L 355.34726 191.01823 
" style="fill:none;stroke:#000000;stroke-linecap:square;stroke-width:0.8;"/>
    </g>
    <g id="text_15">
     <!-- 35 -->
     <g transform="translate(364.982531 195.369879)scale(0.1 -0.1)">
      <use xlink:href="#DejaVuSans-51"/>
      <use x="63.623047" xlink:href="#DejaVuSans-53"/>
     </g>
    </g>
   </g>
   <g id="xtick_13">
    <g id="line2d_16">
     <path d="M 352.375441 176.535634 
L 355.977522 177.543045 
" style="fill:none;stroke:#000000;stroke-linecap:square;stroke-width:0.8;"/>
    </g>
    <g id="text_16">
     <!-- 40 -->
     <g transform="translate(365.697268 181.928776)scale(0.1 -0.1)">
      <use xlink:href="#DejaVuSans-52"/>
      <use x="63.623047" xlink:href="#DejaVuSans-48"/>
     </g>
    </g>
   </g>
   <g id="xtick_14">
    <g id="line2d_17">
     <path d="M 352.992119 162.923664 
L 356.614696 163.920108 
" style="fill:none;stroke:#000000;stroke-linecap:square;stroke-width:0.8;"/>
    </g>
    <g id="text_17">
     <!-- 45 -->
     <g transform="translate(366.419811 168.340862)scale(0.1 -0.1)">
      <use xlink:href="#DejaVuSans-52"/>
      <use x="63.623047" xlink:href="#DejaVuSans-53"/>
     </g>
    </g>
   </g>
   <g id="xtick_15">
    <g id="line2d_18">
     <path d="M 353.615588 149.161802 
L 357.258894 150.146973 
" style="fill:none;stroke:#000000;stroke-linecap:square;stroke-width:0.8;"/>
    </g>
    <g id="text_18">
     <!-- 50 -->
     <g transform="translate(367.15029 154.603719)scale(0.1 -0.1)">
      <use xlink:href="#DejaVuSans-53"/>
      <use x="63.623047" xlink:href="#DejaVuSans-48"/>
     </g>
    </g>
   </g>
   <g id="xtick_16">
    <g id="line2d_19">
     <path d="M 354.24596 135.247557 
L 357.910234 136.221145 
" style="fill:none;stroke:#000000;stroke-linecap:square;stroke-width:0.8;"/>
    </g>
    <g id="text_19">
     <!-- 55 -->
     <g transform="translate(367.888836 140.714875)scale(0.1 -0.1)">
      <use xlink:href="#DejaVuSans-53"/>
      <use x="63.623047" xlink:href="#DejaVuSans-53"/>
     </g>
    </g>
   </g>
   <g id="xtick_17">
    <g id="line2d_20">
     <path d="M 354.883352 121.178384 
L 358.568835 122.140069 
" style="fill:none;stroke:#000000;stroke-linecap:square;stroke-width:0.8;"/>
    </g>
    <g id="text_20">
     <!-- 60 -->
     <g transform="translate(368.635583 126.671803)scale(0.1 -0.1)">
      <use xlink:href="#DejaVuSans-54"/>
      <use x="63.623047" xlink:href="#DejaVuSans-48"/>
     </g>
    </g>
   </g>
   <g id="xtick_18">
    <g id="line2d_21">
     <path d="M 355.52788 106.951682 
L 359.23482 107.901135 
" style="fill:none;stroke:#000000;stroke-linecap:square;stroke-width:0.8;"/>
    </g>
    <g id="text_21">
     <!-- 65 -->
     <g transform="translate(369.390668 112.471921)scale(0.1 -0.1)">
      <use xlink:href="#DejaVuSans-54"/>
      <use x="63.623047" xlink:href="#DejaVuSans-53"/>
     </g>
    </g>
   </g>
  </g>
  <g id="axes_1">
   <g id="line2d_22">
    <path clip-path="url(#p786efc4ab1)" d="M 190.287004 152.252812 
L 191.574313 152.622424 
L 192.862794 152.992372 
L 194.15245 153.362657 
L 191.477403 162.241887 
L 192.770139 162.617466 
L 192.706437 164.10492 
L 194.002668 164.482204 
L 193.671006 170.056959 
L 194.969086 170.437381 
L 195.58922 171.380711 
L 196.890254 171.762349 
L 197.892283 174.752415 
L 199.194795 175.135726 
L 200.159834 175.802708 
L 201.46503 176.186984 
L 202.774138 176.753807 
L 204.081643 177.138847 
L 205.390354 177.524242 
L 206.70027 177.909992 
L 207.967332 174.848122 
L 209.281467 175.233528 
L 210.259778 175.90416 
L 211.576637 176.290543 
L 212.825198 170.244187 
L 214.14788 170.629302 
L 215.134807 171.299432 
L 216.460245 171.685526 
L 217.422486 169.252696 
L 218.752334 169.638812 
L 219.746743 170.310686 
L 221.079374 170.697788 
L 222.38557 167.109239 
L 223.722809 167.495825 
L 224.725055 168.16852 
L 226.065104 168.556096 
L 226.701143 163.141517 
L 228.04774 163.528355 
L 229.05902 164.201495 
L 230.408463 164.589331 
L 231.40004 158.389762 
L 232.756053 158.77642 
L 233.439641 159.73526 
L 234.798851 160.123192 
L 235.812607 154.332519 
L 237.178229 154.719391 
L 238.208102 155.392599 
L 239.576643 155.780479 
L 240.611778 150.779879 
L 241.986359 151.166942 
L 245.04367 150.126834 
L 246.419257 150.513273 
L 249.156695 143.79723 
L 250.536889 144.181384 
L 254.252249 142.583766 
L 255.63279 142.96676 
L 259.701052 136.223935 
L 261.084289 136.603919 
L 264.444841 135.30314 
L 265.828739 135.682244 
L 269.547747 130.399862 
L 270.934019 130.776612 
L 274.274469 129.486901 
L 275.66139 129.86278 
L 278.69881 126.807999 
L 280.087842 127.182603 
L 283.088202 126.175972 
L 284.478207 126.549974 
L 287.12049 127.442195 
L 288.510895 127.816391 
L 290.85861 127.36231 
L 292.25065 127.73643 
L 294.490708 132.148456 
L 295.881657 132.524091 
L 297.904962 132.345342 
L 299.297878 132.721164 
L 300.86841 138.527864 
L 302.260418 138.905991 
L 303.653746 139.284476 
L 305.048395 139.66332 
L 306.049496 143.452776 
L 307.44536 143.833618 
L 308.530881 144.496333 
L 309.929739 144.878167 
L 310.600913 149.598611 
L 312.000965 149.982926 
L 312.470127 151.220436 
L 313.873876 151.606293 
L 313.766768 162.219692 
L 315.169352 162.610287 
L 315.333416 164.157354 
L 316.740055 164.549794 
L 316.587514 176.456532 
L 317.992226 176.854117 
L 317.852009 178.723585 
L 319.261135 179.12333 
" style="fill:none;stroke:#1f77b4;stroke-linecap:square;stroke-width:1.5;"/>
   </g>
   <g id="line2d_23">
    <path clip-path="url(#p786efc4ab1)" d="M 211.867281 138.507065 
L 213.134889 138.862147 
L 214.403625 139.217545 
L 215.673492 139.57326 
L 209.533614 151.742744 
L 210.809204 152.106286 
L 208.153943 155.706287 
L 209.435147 156.073391 
L 206.484314 164.093364 
L 207.769369 164.465578 
L 207.402068 166.215513 
L 208.690852 166.589648 
L 208.685344 170.404325 
L 209.976398 170.78085 
L 209.944066 172.272028 
L 211.238599 172.650251 
L 211.545608 174.339599 
L 212.84311 174.719417 
L 213.147646 175.942349 
L 214.448374 176.323629 
L 215.064269 174.923077 
L 216.369171 175.304857 
L 217.012153 176.251549 
L 218.320026 176.634545 
L 218.936648 174.046332 
L 220.249357 174.429473 
L 220.899734 175.379545 
L 222.215448 175.763913 
L 223.181632 173.546312 
L 224.501589 173.930765 
L 224.827457 175.168654 
L 226.150747 175.554606 
L 226.787566 171.860784 
L 228.116376 172.246547 
L 228.781979 173.203136 
L 230.113863 173.590146 
L 230.426748 168.505596 
L 231.76541 168.892159 
L 232.439324 169.850743 
L 233.781104 170.238564 
L 234.777718 164.042283 
L 236.126022 164.428945 
L 236.475116 165.673987 
L 237.826891 166.062183 
L 238.509911 160.728872 
L 239.868279 161.116349 
L 240.893926 161.790606 
L 242.25518 162.179087 
L 242.956681 158.137048 
L 244.323888 158.525215 
L 246.359884 158.340503 
L 247.729048 158.728863 
L 249.784535 153.602265 
L 251.158374 153.989233 
L 253.861263 153.234415 
L 255.236419 153.621033 
L 258.292712 148.699447 
L 259.671 149.084194 
L 263.023476 147.767104 
L 264.402423 148.150964 
L 267.78184 143.376269 
L 269.163356 143.758126 
L 272.172654 142.732005 
L 273.555148 143.113249 
L 276.571136 141.081516 
L 277.955162 141.461823 
L 280.628249 140.719999 
L 282.013576 141.099962 
L 284.329317 142.467736 
L 285.715254 142.848215 
L 288.37775 142.106055 
L 289.764982 142.48619 
L 292.316317 146.828284 
L 293.701988 147.209714 
L 296.03459 146.746854 
L 297.42188 147.128207 
L 299.612694 152.511456 
L 300.998307 152.894604 
L 303.009189 152.712281 
L 304.396748 153.095619 
L 306.316228 156.344578 
L 307.70379 156.729198 
L 310.020465 156.262467 
L 311.409633 156.64701 
L 313.61463 159.884597 
L 315.003296 160.270238 
L 316.699698 160.371386 
L 318.090642 160.757485 
L 319.497668 169.947048 
L 320.885695 170.336468 
L 321.667115 171.302144 
L 323.05843 171.692837 
L 323.508346 182.589937 
L 324.897243 182.985004 
L 325.077234 184.549735 
L 326.470102 184.946643 
" style="fill:none;stroke:#ff7f0e;stroke-linecap:square;stroke-width:1.5;"/>
   </g>
   <g id="line2d_24">
    <path clip-path="url(#p786efc4ab1)" d="M 193.393421 153.484572 
L 194.676378 153.853088 
L 195.960498 154.221938 
L 197.245784 154.591123 
L 189.866411 168.09986 
L 191.158276 168.478077 
L 191.091666 169.975978 
L 192.387022 170.355912 
L 192.406165 176.254144 
L 193.702777 176.637146 
L 193.980937 177.870344 
L 195.28078 178.254829 
L 195.609536 182.174033 
L 196.91124 182.560825 
L 197.534893 183.519951 
L 198.839565 183.907981 
L 199.1289 185.300071 
L 200.436767 185.689653 
L 201.40635 186.367552 
L 202.716922 186.758119 
L 203.293282 183.858411 
L 204.608887 184.249056 
L 205.925712 184.640063 
L 207.243757 185.031433 
L 208.135248 178.738113 
L 209.459716 179.128336 
L 210.785417 179.518924 
L 212.112353 179.909875 
L 213.417418 178.121637 
L 214.747988 178.512645 
L 215.402136 179.482249 
L 216.735795 179.874528 
L 217.713895 178.503051 
L 219.051453 178.895699 
L 219.034892 180.450845 
L 220.37618 180.84532 
L 220.652488 175.726949 
L 222.000662 176.120997 
L 221.989495 177.681712 
L 223.341457 178.077607 
L 223.619779 171.040994 
L 224.979753 171.43585 
L 225.658043 172.41503 
L 227.021238 172.811194 
L 227.660953 165.099586 
L 229.032139 165.494293 
L 230.062375 166.181142 
L 231.436512 166.576885 
L 232.100368 158.520423 
L 233.482768 158.914573 
L 234.8665 159.309102 
L 236.251567 159.704012 
L 237.630277 151.009834 
L 239.023058 151.402541 
L 243.15134 149.48075 
L 244.544163 149.871977 
L 249.014468 140.920836 
L 250.41074 141.308093 
L 254.842248 139.128535 
L 256.238206 139.514059 
L 260.681767 132.777503 
L 262.079942 133.159797 
L 268.77921 129.048202 
L 270.174689 129.426905 
L 276.830209 123.338665 
L 278.224103 123.713162 
L 282.853515 121.330489 
L 284.246706 121.703067 
L 288.786034 122.439027 
L 290.176781 122.810724 
L 293.474699 121.538307 
L 294.866068 121.909147 
L 297.961965 128.936079 
L 299.349316 129.30878 
L 302.30195 128.307258 
L 303.690244 128.679364 
L 306.138433 135.034502 
L 307.52403 135.408569 
L 309.52897 135.230567 
L 310.916506 135.604819 
L 312.761196 140.952279 
L 314.147557 141.328493 
L 315.535222 141.705061 
L 316.924193 142.081983 
L 317.782515 150.018531 
L 319.170312 150.398753 
L 319.95006 151.34162 
L 321.341145 151.723086 
L 321.852196 160.972088 
L 323.241841 161.357437 
L 323.418952 162.88368 
L 324.812574 163.270827 
L 324.381281 174.13547 
L 325.774034 174.527541 
L 324.436364 177.535505 
L 325.834826 177.930781 
" style="fill:none;stroke:#2ca02c;stroke-linecap:square;stroke-width:1.5;"/>
   </g>
   <g id="line2d_25">
    <path clip-path="url(#p786efc4ab1)" d="M 159.699706 214.503405 
L 160.993854 214.907848 
L 162.289199 215.312666 
L 163.585745 215.717859 
L 161.781568 221.615847 
L 163.0816 222.025131 
L 163.317777 223.342986 
L 164.621074 223.753876 
L 165.267052 226.460191 
L 166.572464 226.872914 
L 166.814558 228.20185 
L 168.12326 228.616198 
L 168.023573 230.627172 
L 169.335672 231.04355 
L 169.22708 232.692678 
L 170.542789 233.110991 
L 170.75502 233.140481 
L 172.074767 233.56006 
L 172.327368 234.911098 
L 173.650475 235.332344 
L 174.128562 231.415594 
L 175.457402 231.836742 
L 176.430776 232.569589 
L 177.762427 232.991829 
L 178.162838 225.354178 
L 179.50228 225.775193 
L 180.127486 226.819244 
L 181.470083 227.241655 
L 182.002238 224.218954 
L 183.350208 224.64153 
L 184.341412 225.376875 
L 185.69227 225.80056 
L 186.324268 226.645828 
L 187.678443 227.070864 
L 188.676297 227.810491 
L 190.033382 228.236645 
L 191.02055 228.280665 
L 192.380939 228.707728 
L 193.028399 229.766795 
L 194.392033 230.19529 
L 195.02972 230.53689 
L 196.397013 230.966603 
L 197.051647 232.032246 
L 198.422216 232.463404 
L 199.42982 232.758668 
L 200.803615 233.190831 
L 201.465634 234.262554 
L 202.842733 234.696175 
L 203.499445 235.177282 
L 204.880197 235.612186 
L 205.54953 236.690715 
L 206.933616 237.127092 
L 207.588563 236.852142 
L 208.976767 237.289582 
L 211.077925 237.081422 
L 212.468188 237.519086 
L 214.553204 235.783002 
L 215.946397 236.22042 
L 219.460045 234.72307 
L 220.853983 235.159453 
L 223.996894 232.750501 
L 225.392606 233.185784 
L 228.5366 232.016122 
L 229.933375 232.450688 
L 233.412305 229.716394 
L 234.810521 230.14955 
L 238.282247 228.666785 
L 239.68118 229.098918 
L 242.798248 227.832279 
L 244.198288 228.263671 
L 247.647614 226.786941 
L 249.048359 227.217317 
L 252.482285 226.372516 
L 253.883364 226.802073 
L 256.971259 225.647791 
L 258.373367 226.076645 
L 261.807111 222.426506 
L 263.211168 222.85368 
L 265.617474 222.335312 
L 267.023231 222.762398 
L 269.415949 223.156986 
L 270.822874 223.584265 
L 272.562115 223.696337 
L 273.971423 224.124138 
L 275.320267 228.783301 
L 276.729827 229.213236 
L 277.482465 230.279436 
L 278.895449 230.71082 
L 279.547882 238.121418 
L 280.960557 238.556201 
L 281.062149 240.278365 
L 282.478955 240.715241 
L 282.467171 249.030636 
L 283.884207 249.47162 
L 282.67687 252.527429 
L 284.099465 252.971815 
" style="fill:none;stroke:#d62728;stroke-linecap:square;stroke-width:1.5;"/>
   </g>
   <g id="line2d_26">
    <path clip-path="url(#p786efc4ab1)" d="M 201.840693 132.107781 
L 203.123675 132.465547 
L 204.407818 132.823637 
L 205.693123 133.182051 
L 202.105241 145.415783 
L 203.393106 145.780913 
L 202.681024 147.768346 
L 203.972916 148.135615 
L 203.343853 155.894266 
L 204.636863 156.265465 
L 204.929199 157.460646 
L 206.225417 157.833273 
L 206.905122 162.576757 
L 208.202318 162.95174 
L 208.500468 164.159106 
L 209.800891 164.535534 
L 210.453544 166.988295 
L 211.756136 167.366386 
L 212.060386 168.583769 
L 213.36623 168.963322 
L 213.988808 168.148795 
L 215.298543 168.529021 
L 215.942934 169.471868 
L 217.255663 169.853311 
L 217.879418 168.074151 
L 219.196582 168.455979 
L 220.181697 169.120384 
L 221.50159 169.503178 
L 222.134233 167.274474 
L 223.45884 167.657518 
L 224.451486 168.324042 
L 225.77885 168.708059 
L 226.735637 161.888293 
L 228.069747 162.270955 
L 229.071648 162.936821 
L 230.408551 163.320461 
L 231.378443 153.450338 
L 232.723786 153.831641 
L 234.070391 154.213301 
L 235.418261 154.595319 
L 236.418374 143.531347 
L 237.775404 143.910603 
L 239.133717 144.290217 
L 240.493313 144.67019 
L 241.527297 135.174612 
L 242.895289 135.552281 
L 244.264581 135.93031 
L 245.635177 136.308699 
L 247.031715 128.105006 
L 248.409602 128.481304 
L 250.791749 128.024673 
L 252.17129 128.400894 
L 254.595128 120.387496 
L 255.980467 120.761143 
L 259.691806 119.20723 
L 261.077485 119.579746 
L 264.492785 113.27523 
L 265.881892 113.64521 
L 270.2256 111.562843 
L 271.614367 111.931184 
L 275.655276 106.804517 
L 277.045857 107.17038 
L 281.025155 105.379902 
L 282.415708 105.744406 
L 286.392708 102.99461 
L 287.783758 103.35744 
L 291.407015 101.848493 
L 292.798355 102.210233 
L 296.373487 102.188269 
L 297.764289 102.549418 
L 301.041513 101.313104 
L 302.432927 101.673424 
L 305.564063 105.675642 
L 306.953172 106.036871 
L 309.582971 105.332257 
L 310.973353 105.693162 
L 313.378829 112.589298 
L 314.76624 112.952381 
L 316.76726 112.779606 
L 318.156607 113.142868 
L 320.215456 120.493888 
L 321.602033 120.85962 
L 322.98991 121.225695 
L 324.379091 121.592113 
L 325.859535 127.939108 
L 327.247461 128.307986 
L 328.335714 128.949871 
L 329.726584 129.319697 
L 330.168215 139.982828 
L 331.556849 140.356995 
L 332.048561 141.561793 
L 333.44082 141.937439 
L 333.239036 154.092173 
L 334.62918 154.472963 
L 334.228605 156.545821 
L 335.623408 156.928911 
" style="fill:none;stroke:#9467bd;stroke-linecap:square;stroke-width:1.5;"/>
   </g>
  </g>
 </g>
 <defs>
  <clipPath id="p786efc4ab1">
   <rect height="266.112" width="266.112" x="103.104" y="41.472"/>
  </clipPath>
 </defs>
</svg>
