<?xml version="1.0" encoding="utf-8" standalone="no"?>
<!DOCTYPE svg PUBLIC "-//W3C//DTD SVG 1.1//EN"
  "http://www.w3.org/Graphics/SVG/1.1/DTD/svg11.dtd">
<!-- Created with matplotlib (https://matplotlib.org/) -->
<svg height="345.6pt" version="1.1" viewBox="0 0 460.8 345.6" width="460.8pt" xmlns="http://www.w3.org/2000/svg" xmlns:xlink="http://www.w3.org/1999/xlink">
 <metadata>
  <rdf:RDF xmlns:cc="http://creativecommons.org/ns#" xmlns:dc="http://purl.org/dc/elements/1.1/" xmlns:rdf="http://www.w3.org/1999/02/22-rdf-syntax-ns#">
   <cc:Work>
    <dc:type rdf:resource="http://purl.org/dc/dcmitype/StillImage"/>
    <dc:date>2023-12-11T18:30:12.822940</dc:date>
    <dc:format>image/svg+xml</dc:format>
    <dc:creator>
     <cc:Agent>
      <dc:title>Matplotlib v3.3.4, https://matplotlib.org/</dc:title>
     </cc:Agent>
    </dc:creator>
   </cc:Work>
  </rdf:RDF>
 </metadata>
 <defs>
  <style type="text/css">*{stroke-linecap:butt;stroke-linejoin:round;}</style>
 </defs>
 <g id="figure_1">
  <g id="patch_1">
   <path d="M 0 345.6 
L 460.8 345.6 
L 460.8 0 
L 0 0 
z
" style="fill:#ffffff;"/>
  </g>
  <g id="axes_1">
   <g id="patch_2">
    <path d="M 57.6 307.584 
L 414.72 307.584 
L 414.72 41.472 
L 57.6 41.472 
z
" style="fill:#ffffff;"/>
   </g>
   <g id="matplotlib.axis_1">
    <g id="xtick_1">
     <g id="line2d_1">
      <defs>
       <path d="M 0 0 
L 0 3.5 
" id="md820c85044" style="stroke:#000000;stroke-width:0.8;"/>
      </defs>
      <g>
       <use style="stroke:#000000;stroke-width:0.8;" x="73.832727" xlink:href="#md820c85044" y="307.584"/>
      </g>
     </g>
     <g id="text_1">
      <!-- 00:00 -->
      <g transform="translate(65.594933 340.33484)rotate(-45)scale(0.1 -0.1)">
       <defs>
        <path d="M 31.78125 66.40625 
Q 24.171875 66.40625 20.328125 58.90625 
Q 16.5 51.421875 16.5 36.375 
Q 16.5 21.390625 20.328125 13.890625 
Q 24.171875 6.390625 31.78125 6.390625 
Q 39.453125 6.390625 43.28125 13.890625 
Q 47.125 21.390625 47.125 36.375 
Q 47.125 51.421875 43.28125 58.90625 
Q 39.453125 66.40625 31.78125 66.40625 
z
M 31.78125 74.21875 
Q 44.046875 74.21875 50.515625 64.515625 
Q 56.984375 54.828125 56.984375 36.375 
Q 56.984375 17.96875 50.515625 8.265625 
Q 44.046875 -1.421875 31.78125 -1.421875 
Q 19.53125 -1.421875 13.0625 8.265625 
Q 6.59375 17.96875 6.59375 36.375 
Q 6.59375 54.828125 13.0625 64.515625 
Q 19.53125 74.21875 31.78125 74.21875 
z
" id="DejaVuSans-48"/>
        <path d="M 11.71875 12.40625 
L 22.015625 12.40625 
L 22.015625 0 
L 11.71875 0 
z
M 11.71875 51.703125 
L 22.015625 51.703125 
L 22.015625 39.3125 
L 11.71875 39.3125 
z
" id="DejaVuSans-58"/>
       </defs>
       <use xlink:href="#DejaVuSans-48"/>
       <use x="63.623047" xlink:href="#DejaVuSans-48"/>
       <use x="127.246094" xlink:href="#DejaVuSans-58"/>
       <use x="160.9375" xlink:href="#DejaVuSans-48"/>
       <use x="224.560547" xlink:href="#DejaVuSans-48"/>
      </g>
     </g>
    </g>
    <g id="xtick_2">
     <g id="line2d_2">
      <g>
       <use style="stroke:#000000;stroke-width:0.8;" x="90.919809" xlink:href="#md820c85044" y="307.584"/>
      </g>
     </g>
     <g id="text_2">
      <!-- 01:15 -->
      <g transform="translate(82.682015 340.33484)rotate(-45)scale(0.1 -0.1)">
       <defs>
        <path d="M 12.40625 8.296875 
L 28.515625 8.296875 
L 28.515625 63.921875 
L 10.984375 60.40625 
L 10.984375 69.390625 
L 28.421875 72.90625 
L 38.28125 72.90625 
L 38.28125 8.296875 
L 54.390625 8.296875 
L 54.390625 0 
L 12.40625 0 
z
" id="DejaVuSans-49"/>
        <path d="M 10.796875 72.90625 
L 49.515625 72.90625 
L 49.515625 64.59375 
L 19.828125 64.59375 
L 19.828125 46.734375 
Q 21.96875 47.46875 24.109375 47.828125 
Q 26.265625 48.1875 28.421875 48.1875 
Q 40.625 48.1875 47.75 41.5 
Q 54.890625 34.8125 54.890625 23.390625 
Q 54.890625 11.625 47.5625 5.09375 
Q 40.234375 -1.421875 26.90625 -1.421875 
Q 22.3125 -1.421875 17.546875 -0.640625 
Q 12.796875 0.140625 7.71875 1.703125 
L 7.71875 11.625 
Q 12.109375 9.234375 16.796875 8.0625 
Q 21.484375 6.890625 26.703125 6.890625 
Q 35.15625 6.890625 40.078125 11.328125 
Q 45.015625 15.765625 45.015625 23.390625 
Q 45.015625 31 40.078125 35.4375 
Q 35.15625 39.890625 26.703125 39.890625 
Q 22.75 39.890625 18.8125 39.015625 
Q 14.890625 38.140625 10.796875 36.28125 
z
" id="DejaVuSans-53"/>
       </defs>
       <use xlink:href="#DejaVuSans-48"/>
       <use x="63.623047" xlink:href="#DejaVuSans-49"/>
       <use x="127.246094" xlink:href="#DejaVuSans-58"/>
       <use x="160.9375" xlink:href="#DejaVuSans-49"/>
       <use x="224.560547" xlink:href="#DejaVuSans-53"/>
      </g>
     </g>
    </g>
    <g id="xtick_3">
     <g id="line2d_3">
      <g>
       <use style="stroke:#000000;stroke-width:0.8;" x="108.00689" xlink:href="#md820c85044" y="307.584"/>
      </g>
     </g>
     <g id="text_3">
      <!-- 02:30 -->
      <g transform="translate(99.769096 340.33484)rotate(-45)scale(0.1 -0.1)">
       <defs>
        <path d="M 19.1875 8.296875 
L 53.609375 8.296875 
L 53.609375 0 
L 7.328125 0 
L 7.328125 8.296875 
Q 12.9375 14.109375 22.625 23.890625 
Q 32.328125 33.6875 34.8125 36.53125 
Q 39.546875 41.84375 41.421875 45.53125 
Q 43.3125 49.21875 43.3125 52.78125 
Q 43.3125 58.59375 39.234375 62.25 
Q 35.15625 65.921875 28.609375 65.921875 
Q 23.96875 65.921875 18.8125 64.3125 
Q 13.671875 62.703125 7.8125 59.421875 
L 7.8125 69.390625 
Q 13.765625 71.78125 18.9375 73 
Q 24.125 74.21875 28.421875 74.21875 
Q 39.75 74.21875 46.484375 68.546875 
Q 53.21875 62.890625 53.21875 53.421875 
Q 53.21875 48.921875 51.53125 44.890625 
Q 49.859375 40.875 45.40625 35.40625 
Q 44.1875 33.984375 37.640625 27.21875 
Q 31.109375 20.453125 19.1875 8.296875 
z
" id="DejaVuSans-50"/>
        <path d="M 40.578125 39.3125 
Q 47.65625 37.796875 51.625 33 
Q 55.609375 28.21875 55.609375 21.1875 
Q 55.609375 10.40625 48.1875 4.484375 
Q 40.765625 -1.421875 27.09375 -1.421875 
Q 22.515625 -1.421875 17.65625 -0.515625 
Q 12.796875 0.390625 7.625 2.203125 
L 7.625 11.71875 
Q 11.71875 9.328125 16.59375 8.109375 
Q 21.484375 6.890625 26.8125 6.890625 
Q 36.078125 6.890625 40.9375 10.546875 
Q 45.796875 14.203125 45.796875 21.1875 
Q 45.796875 27.640625 41.28125 31.265625 
Q 36.765625 34.90625 28.71875 34.90625 
L 20.21875 34.90625 
L 20.21875 43.015625 
L 29.109375 43.015625 
Q 36.375 43.015625 40.234375 45.921875 
Q 44.09375 48.828125 44.09375 54.296875 
Q 44.09375 59.90625 40.109375 62.90625 
Q 36.140625 65.921875 28.71875 65.921875 
Q 24.65625 65.921875 20.015625 65.03125 
Q 15.375 64.15625 9.8125 62.3125 
L 9.8125 71.09375 
Q 15.4375 72.65625 20.34375 73.4375 
Q 25.25 74.21875 29.59375 74.21875 
Q 40.828125 74.21875 47.359375 69.109375 
Q 53.90625 64.015625 53.90625 55.328125 
Q 53.90625 49.265625 50.4375 45.09375 
Q 46.96875 40.921875 40.578125 39.3125 
z
" id="DejaVuSans-51"/>
       </defs>
       <use xlink:href="#DejaVuSans-48"/>
       <use x="63.623047" xlink:href="#DejaVuSans-50"/>
       <use x="127.246094" xlink:href="#DejaVuSans-58"/>
       <use x="160.9375" xlink:href="#DejaVuSans-51"/>
       <use x="224.560547" xlink:href="#DejaVuSans-48"/>
      </g>
     </g>
    </g>
    <g id="xtick_4">
     <g id="line2d_4">
      <g>
       <use style="stroke:#000000;stroke-width:0.8;" x="125.093971" xlink:href="#md820c85044" y="307.584"/>
      </g>
     </g>
     <g id="text_4">
      <!-- 03:45 -->
      <g transform="translate(116.856177 340.33484)rotate(-45)scale(0.1 -0.1)">
       <defs>
        <path d="M 37.796875 64.3125 
L 12.890625 25.390625 
L 37.796875 25.390625 
z
M 35.203125 72.90625 
L 47.609375 72.90625 
L 47.609375 25.390625 
L 58.015625 25.390625 
L 58.015625 17.1875 
L 47.609375 17.1875 
L 47.609375 0 
L 37.796875 0 
L 37.796875 17.1875 
L 4.890625 17.1875 
L 4.890625 26.703125 
z
" id="DejaVuSans-52"/>
       </defs>
       <use xlink:href="#DejaVuSans-48"/>
       <use x="63.623047" xlink:href="#DejaVuSans-51"/>
       <use x="127.246094" xlink:href="#DejaVuSans-58"/>
       <use x="160.9375" xlink:href="#DejaVuSans-52"/>
       <use x="224.560547" xlink:href="#DejaVuSans-53"/>
      </g>
     </g>
    </g>
    <g id="xtick_5">
     <g id="line2d_5">
      <g>
       <use style="stroke:#000000;stroke-width:0.8;" x="142.181053" xlink:href="#md820c85044" y="307.584"/>
      </g>
     </g>
     <g id="text_5">
      <!-- 05:00 -->
      <g transform="translate(133.943259 340.33484)rotate(-45)scale(0.1 -0.1)">
       <use xlink:href="#DejaVuSans-48"/>
       <use x="63.623047" xlink:href="#DejaVuSans-53"/>
       <use x="127.246094" xlink:href="#DejaVuSans-58"/>
       <use x="160.9375" xlink:href="#DejaVuSans-48"/>
       <use x="224.560547" xlink:href="#DejaVuSans-48"/>
      </g>
     </g>
    </g>
    <g id="xtick_6">
     <g id="line2d_6">
      <g>
       <use style="stroke:#000000;stroke-width:0.8;" x="159.268134" xlink:href="#md820c85044" y="307.584"/>
      </g>
     </g>
     <g id="text_6">
      <!-- 06:15 -->
      <g transform="translate(151.03034 340.33484)rotate(-45)scale(0.1 -0.1)">
       <defs>
        <path d="M 33.015625 40.375 
Q 26.375 40.375 22.484375 35.828125 
Q 18.609375 31.296875 18.609375 23.390625 
Q 18.609375 15.53125 22.484375 10.953125 
Q 26.375 6.390625 33.015625 6.390625 
Q 39.65625 6.390625 43.53125 10.953125 
Q 47.40625 15.53125 47.40625 23.390625 
Q 47.40625 31.296875 43.53125 35.828125 
Q 39.65625 40.375 33.015625 40.375 
z
M 52.59375 71.296875 
L 52.59375 62.3125 
Q 48.875 64.0625 45.09375 64.984375 
Q 41.3125 65.921875 37.59375 65.921875 
Q 27.828125 65.921875 22.671875 59.328125 
Q 17.53125 52.734375 16.796875 39.40625 
Q 19.671875 43.65625 24.015625 45.921875 
Q 28.375 48.1875 33.59375 48.1875 
Q 44.578125 48.1875 50.953125 41.515625 
Q 57.328125 34.859375 57.328125 23.390625 
Q 57.328125 12.15625 50.6875 5.359375 
Q 44.046875 -1.421875 33.015625 -1.421875 
Q 20.359375 -1.421875 13.671875 8.265625 
Q 6.984375 17.96875 6.984375 36.375 
Q 6.984375 53.65625 15.1875 63.9375 
Q 23.390625 74.21875 37.203125 74.21875 
Q 40.921875 74.21875 44.703125 73.484375 
Q 48.484375 72.75 52.59375 71.296875 
z
" id="DejaVuSans-54"/>
       </defs>
       <use xlink:href="#DejaVuSans-48"/>
       <use x="63.623047" xlink:href="#DejaVuSans-54"/>
       <use x="127.246094" xlink:href="#DejaVuSans-58"/>
       <use x="160.9375" xlink:href="#DejaVuSans-49"/>
       <use x="224.560547" xlink:href="#DejaVuSans-53"/>
      </g>
     </g>
    </g>
    <g id="xtick_7">
     <g id="line2d_7">
      <g>
       <use style="stroke:#000000;stroke-width:0.8;" x="176.355215" xlink:href="#md820c85044" y="307.584"/>
      </g>
     </g>
     <g id="text_7">
      <!-- 07:30 -->
      <g transform="translate(168.117421 340.33484)rotate(-45)scale(0.1 -0.1)">
       <defs>
        <path d="M 8.203125 72.90625 
L 55.078125 72.90625 
L 55.078125 68.703125 
L 28.609375 0 
L 18.3125 0 
L 43.21875 64.59375 
L 8.203125 64.59375 
z
" id="DejaVuSans-55"/>
       </defs>
       <use xlink:href="#DejaVuSans-48"/>
       <use x="63.623047" xlink:href="#DejaVuSans-55"/>
       <use x="127.246094" xlink:href="#DejaVuSans-58"/>
       <use x="160.9375" xlink:href="#DejaVuSans-51"/>
       <use x="224.560547" xlink:href="#DejaVuSans-48"/>
      </g>
     </g>
    </g>
    <g id="xtick_8">
     <g id="line2d_8">
      <g>
       <use style="stroke:#000000;stroke-width:0.8;" x="193.442297" xlink:href="#md820c85044" y="307.584"/>
      </g>
     </g>
     <g id="text_8">
      <!-- 08:45 -->
      <g transform="translate(185.204503 340.33484)rotate(-45)scale(0.1 -0.1)">
       <defs>
        <path d="M 31.78125 34.625 
Q 24.75 34.625 20.71875 30.859375 
Q 16.703125 27.09375 16.703125 20.515625 
Q 16.703125 13.921875 20.71875 10.15625 
Q 24.75 6.390625 31.78125 6.390625 
Q 38.8125 6.390625 42.859375 10.171875 
Q 46.921875 13.96875 46.921875 20.515625 
Q 46.921875 27.09375 42.890625 30.859375 
Q 38.875 34.625 31.78125 34.625 
z
M 21.921875 38.8125 
Q 15.578125 40.375 12.03125 44.71875 
Q 8.5 49.078125 8.5 55.328125 
Q 8.5 64.0625 14.71875 69.140625 
Q 20.953125 74.21875 31.78125 74.21875 
Q 42.671875 74.21875 48.875 69.140625 
Q 55.078125 64.0625 55.078125 55.328125 
Q 55.078125 49.078125 51.53125 44.71875 
Q 48 40.375 41.703125 38.8125 
Q 48.828125 37.15625 52.796875 32.3125 
Q 56.78125 27.484375 56.78125 20.515625 
Q 56.78125 9.90625 50.3125 4.234375 
Q 43.84375 -1.421875 31.78125 -1.421875 
Q 19.734375 -1.421875 13.25 4.234375 
Q 6.78125 9.90625 6.78125 20.515625 
Q 6.78125 27.484375 10.78125 32.3125 
Q 14.796875 37.15625 21.921875 38.8125 
z
M 18.3125 54.390625 
Q 18.3125 48.734375 21.84375 45.5625 
Q 25.390625 42.390625 31.78125 42.390625 
Q 38.140625 42.390625 41.71875 45.5625 
Q 45.3125 48.734375 45.3125 54.390625 
Q 45.3125 60.0625 41.71875 63.234375 
Q 38.140625 66.40625 31.78125 66.40625 
Q 25.390625 66.40625 21.84375 63.234375 
Q 18.3125 60.0625 18.3125 54.390625 
z
" id="DejaVuSans-56"/>
       </defs>
       <use xlink:href="#DejaVuSans-48"/>
       <use x="63.623047" xlink:href="#DejaVuSans-56"/>
       <use x="127.246094" xlink:href="#DejaVuSans-58"/>
       <use x="160.9375" xlink:href="#DejaVuSans-52"/>
       <use x="224.560547" xlink:href="#DejaVuSans-53"/>
      </g>
     </g>
    </g>
    <g id="xtick_9">
     <g id="line2d_9">
      <g>
       <use style="stroke:#000000;stroke-width:0.8;" x="210.529378" xlink:href="#md820c85044" y="307.584"/>
      </g>
     </g>
     <g id="text_9">
      <!-- 10:00 -->
      <g transform="translate(202.291584 340.33484)rotate(-45)scale(0.1 -0.1)">
       <use xlink:href="#DejaVuSans-49"/>
       <use x="63.623047" xlink:href="#DejaVuSans-48"/>
       <use x="127.246094" xlink:href="#DejaVuSans-58"/>
       <use x="160.9375" xlink:href="#DejaVuSans-48"/>
       <use x="224.560547" xlink:href="#DejaVuSans-48"/>
      </g>
     </g>
    </g>
    <g id="xtick_10">
     <g id="line2d_10">
      <g>
       <use style="stroke:#000000;stroke-width:0.8;" x="227.616459" xlink:href="#md820c85044" y="307.584"/>
      </g>
     </g>
     <g id="text_10">
      <!-- 11:15 -->
      <g transform="translate(219.378665 340.33484)rotate(-45)scale(0.1 -0.1)">
       <use xlink:href="#DejaVuSans-49"/>
       <use x="63.623047" xlink:href="#DejaVuSans-49"/>
       <use x="127.246094" xlink:href="#DejaVuSans-58"/>
       <use x="160.9375" xlink:href="#DejaVuSans-49"/>
       <use x="224.560547" xlink:href="#DejaVuSans-53"/>
      </g>
     </g>
    </g>
    <g id="xtick_11">
     <g id="line2d_11">
      <g>
       <use style="stroke:#000000;stroke-width:0.8;" x="244.703541" xlink:href="#md820c85044" y="307.584"/>
      </g>
     </g>
     <g id="text_11">
      <!-- 12:30 -->
      <g transform="translate(236.465747 340.33484)rotate(-45)scale(0.1 -0.1)">
       <use xlink:href="#DejaVuSans-49"/>
       <use x="63.623047" xlink:href="#DejaVuSans-50"/>
       <use x="127.246094" xlink:href="#DejaVuSans-58"/>
       <use x="160.9375" xlink:href="#DejaVuSans-51"/>
       <use x="224.560547" xlink:href="#DejaVuSans-48"/>
      </g>
     </g>
    </g>
    <g id="xtick_12">
     <g id="line2d_12">
      <g>
       <use style="stroke:#000000;stroke-width:0.8;" x="261.790622" xlink:href="#md820c85044" y="307.584"/>
      </g>
     </g>
     <g id="text_12">
      <!-- 13:45 -->
      <g transform="translate(253.552828 340.33484)rotate(-45)scale(0.1 -0.1)">
       <use xlink:href="#DejaVuSans-49"/>
       <use x="63.623047" xlink:href="#DejaVuSans-51"/>
       <use x="127.246094" xlink:href="#DejaVuSans-58"/>
       <use x="160.9375" xlink:href="#DejaVuSans-52"/>
       <use x="224.560547" xlink:href="#DejaVuSans-53"/>
      </g>
     </g>
    </g>
    <g id="xtick_13">
     <g id="line2d_13">
      <g>
       <use style="stroke:#000000;stroke-width:0.8;" x="278.877703" xlink:href="#md820c85044" y="307.584"/>
      </g>
     </g>
     <g id="text_13">
      <!-- 15:00 -->
      <g transform="translate(270.639909 340.33484)rotate(-45)scale(0.1 -0.1)">
       <use xlink:href="#DejaVuSans-49"/>
       <use x="63.623047" xlink:href="#DejaVuSans-53"/>
       <use x="127.246094" xlink:href="#DejaVuSans-58"/>
       <use x="160.9375" xlink:href="#DejaVuSans-48"/>
       <use x="224.560547" xlink:href="#DejaVuSans-48"/>
      </g>
     </g>
    </g>
    <g id="xtick_14">
     <g id="line2d_14">
      <g>
       <use style="stroke:#000000;stroke-width:0.8;" x="295.964785" xlink:href="#md820c85044" y="307.584"/>
      </g>
     </g>
     <g id="text_14">
      <!-- 16:15 -->
      <g transform="translate(287.726991 340.33484)rotate(-45)scale(0.1 -0.1)">
       <use xlink:href="#DejaVuSans-49"/>
       <use x="63.623047" xlink:href="#DejaVuSans-54"/>
       <use x="127.246094" xlink:href="#DejaVuSans-58"/>
       <use x="160.9375" xlink:href="#DejaVuSans-49"/>
       <use x="224.560547" xlink:href="#DejaVuSans-53"/>
      </g>
     </g>
    </g>
    <g id="xtick_15">
     <g id="line2d_15">
      <g>
       <use style="stroke:#000000;stroke-width:0.8;" x="313.051866" xlink:href="#md820c85044" y="307.584"/>
      </g>
     </g>
     <g id="text_15">
      <!-- 17:30 -->
      <g transform="translate(304.814072 340.33484)rotate(-45)scale(0.1 -0.1)">
       <use xlink:href="#DejaVuSans-49"/>
       <use x="63.623047" xlink:href="#DejaVuSans-55"/>
       <use x="127.246094" xlink:href="#DejaVuSans-58"/>
       <use x="160.9375" xlink:href="#DejaVuSans-51"/>
       <use x="224.560547" xlink:href="#DejaVuSans-48"/>
      </g>
     </g>
    </g>
    <g id="xtick_16">
     <g id="line2d_16">
      <g>
       <use style="stroke:#000000;stroke-width:0.8;" x="330.138947" xlink:href="#md820c85044" y="307.584"/>
      </g>
     </g>
     <g id="text_16">
      <!-- 18:45 -->
      <g transform="translate(321.901153 340.33484)rotate(-45)scale(0.1 -0.1)">
       <use xlink:href="#DejaVuSans-49"/>
       <use x="63.623047" xlink:href="#DejaVuSans-56"/>
       <use x="127.246094" xlink:href="#DejaVuSans-58"/>
       <use x="160.9375" xlink:href="#DejaVuSans-52"/>
       <use x="224.560547" xlink:href="#DejaVuSans-53"/>
      </g>
     </g>
    </g>
    <g id="xtick_17">
     <g id="line2d_17">
      <g>
       <use style="stroke:#000000;stroke-width:0.8;" x="347.226029" xlink:href="#md820c85044" y="307.584"/>
      </g>
     </g>
     <g id="text_17">
      <!-- 20:00 -->
      <g transform="translate(338.988235 340.33484)rotate(-45)scale(0.1 -0.1)">
       <use xlink:href="#DejaVuSans-50"/>
       <use x="63.623047" xlink:href="#DejaVuSans-48"/>
       <use x="127.246094" xlink:href="#DejaVuSans-58"/>
       <use x="160.9375" xlink:href="#DejaVuSans-48"/>
       <use x="224.560547" xlink:href="#DejaVuSans-48"/>
      </g>
     </g>
    </g>
    <g id="xtick_18">
     <g id="line2d_18">
      <g>
       <use style="stroke:#000000;stroke-width:0.8;" x="364.31311" xlink:href="#md820c85044" y="307.584"/>
      </g>
     </g>
     <g id="text_18">
      <!-- 21:15 -->
      <g transform="translate(356.075316 340.33484)rotate(-45)scale(0.1 -0.1)">
       <use xlink:href="#DejaVuSans-50"/>
       <use x="63.623047" xlink:href="#DejaVuSans-49"/>
       <use x="127.246094" xlink:href="#DejaVuSans-58"/>
       <use x="160.9375" xlink:href="#DejaVuSans-49"/>
       <use x="224.560547" xlink:href="#DejaVuSans-53"/>
      </g>
     </g>
    </g>
    <g id="xtick_19">
     <g id="line2d_19">
      <g>
       <use style="stroke:#000000;stroke-width:0.8;" x="381.400191" xlink:href="#md820c85044" y="307.584"/>
      </g>
     </g>
     <g id="text_19">
      <!-- 22:30 -->
      <g transform="translate(373.162397 340.33484)rotate(-45)scale(0.1 -0.1)">
       <use xlink:href="#DejaVuSans-50"/>
       <use x="63.623047" xlink:href="#DejaVuSans-50"/>
       <use x="127.246094" xlink:href="#DejaVuSans-58"/>
       <use x="160.9375" xlink:href="#DejaVuSans-51"/>
       <use x="224.560547" xlink:href="#DejaVuSans-48"/>
      </g>
     </g>
    </g>
    <g id="xtick_20">
     <g id="line2d_20">
      <g>
       <use style="stroke:#000000;stroke-width:0.8;" x="398.487273" xlink:href="#md820c85044" y="307.584"/>
      </g>
     </g>
     <g id="text_20">
      <!-- 23:45 -->
      <g transform="translate(390.249479 340.33484)rotate(-45)scale(0.1 -0.1)">
       <use xlink:href="#DejaVuSans-50"/>
       <use x="63.623047" xlink:href="#DejaVuSans-51"/>
       <use x="127.246094" xlink:href="#DejaVuSans-58"/>
       <use x="160.9375" xlink:href="#DejaVuSans-52"/>
       <use x="224.560547" xlink:href="#DejaVuSans-53"/>
      </g>
     </g>
    </g>
    <g id="text_21">
     <!-- Time of the day -->
     <g transform="translate(196.936562 353.403839)scale(0.1 -0.1)">
      <defs>
       <path d="M -0.296875 72.90625 
L 61.375 72.90625 
L 61.375 64.59375 
L 35.5 64.59375 
L 35.5 0 
L 25.59375 0 
L 25.59375 64.59375 
L -0.296875 64.59375 
z
" id="DejaVuSans-84"/>
       <path d="M 9.421875 54.6875 
L 18.40625 54.6875 
L 18.40625 0 
L 9.421875 0 
z
M 9.421875 75.984375 
L 18.40625 75.984375 
L 18.40625 64.59375 
L 9.421875 64.59375 
z
" id="DejaVuSans-105"/>
       <path d="M 52 44.1875 
Q 55.375 50.25 60.0625 53.125 
Q 64.75 56 71.09375 56 
Q 79.640625 56 84.28125 50.015625 
Q 88.921875 44.046875 88.921875 33.015625 
L 88.921875 0 
L 79.890625 0 
L 79.890625 32.71875 
Q 79.890625 40.578125 77.09375 44.375 
Q 74.3125 48.1875 68.609375 48.1875 
Q 61.625 48.1875 57.5625 43.546875 
Q 53.515625 38.921875 53.515625 30.90625 
L 53.515625 0 
L 44.484375 0 
L 44.484375 32.71875 
Q 44.484375 40.625 41.703125 44.40625 
Q 38.921875 48.1875 33.109375 48.1875 
Q 26.21875 48.1875 22.15625 43.53125 
Q 18.109375 38.875 18.109375 30.90625 
L 18.109375 0 
L 9.078125 0 
L 9.078125 54.6875 
L 18.109375 54.6875 
L 18.109375 46.1875 
Q 21.1875 51.21875 25.484375 53.609375 
Q 29.78125 56 35.6875 56 
Q 41.65625 56 45.828125 52.96875 
Q 50 49.953125 52 44.1875 
z
" id="DejaVuSans-109"/>
       <path d="M 56.203125 29.59375 
L 56.203125 25.203125 
L 14.890625 25.203125 
Q 15.484375 15.921875 20.484375 11.0625 
Q 25.484375 6.203125 34.421875 6.203125 
Q 39.59375 6.203125 44.453125 7.46875 
Q 49.3125 8.734375 54.109375 11.28125 
L 54.109375 2.78125 
Q 49.265625 0.734375 44.1875 -0.34375 
Q 39.109375 -1.421875 33.890625 -1.421875 
Q 20.796875 -1.421875 13.15625 6.1875 
Q 5.515625 13.8125 5.515625 26.8125 
Q 5.515625 40.234375 12.765625 48.109375 
Q 20.015625 56 32.328125 56 
Q 43.359375 56 49.78125 48.890625 
Q 56.203125 41.796875 56.203125 29.59375 
z
M 47.21875 32.234375 
Q 47.125 39.59375 43.09375 43.984375 
Q 39.0625 48.390625 32.421875 48.390625 
Q 24.90625 48.390625 20.390625 44.140625 
Q 15.875 39.890625 15.1875 32.171875 
z
" id="DejaVuSans-101"/>
       <path id="DejaVuSans-32"/>
       <path d="M 30.609375 48.390625 
Q 23.390625 48.390625 19.1875 42.75 
Q 14.984375 37.109375 14.984375 27.296875 
Q 14.984375 17.484375 19.15625 11.84375 
Q 23.34375 6.203125 30.609375 6.203125 
Q 37.796875 6.203125 41.984375 11.859375 
Q 46.1875 17.53125 46.1875 27.296875 
Q 46.1875 37.015625 41.984375 42.703125 
Q 37.796875 48.390625 30.609375 48.390625 
z
M 30.609375 56 
Q 42.328125 56 49.015625 48.375 
Q 55.71875 40.765625 55.71875 27.296875 
Q 55.71875 13.875 49.015625 6.21875 
Q 42.328125 -1.421875 30.609375 -1.421875 
Q 18.84375 -1.421875 12.171875 6.21875 
Q 5.515625 13.875 5.515625 27.296875 
Q 5.515625 40.765625 12.171875 48.375 
Q 18.84375 56 30.609375 56 
z
" id="DejaVuSans-111"/>
       <path d="M 37.109375 75.984375 
L 37.109375 68.5 
L 28.515625 68.5 
Q 23.6875 68.5 21.796875 66.546875 
Q 19.921875 64.59375 19.921875 59.515625 
L 19.921875 54.6875 
L 34.71875 54.6875 
L 34.71875 47.703125 
L 19.921875 47.703125 
L 19.921875 0 
L 10.890625 0 
L 10.890625 47.703125 
L 2.296875 47.703125 
L 2.296875 54.6875 
L 10.890625 54.6875 
L 10.890625 58.5 
Q 10.890625 67.625 15.140625 71.796875 
Q 19.390625 75.984375 28.609375 75.984375 
z
" id="DejaVuSans-102"/>
       <path d="M 18.3125 70.21875 
L 18.3125 54.6875 
L 36.8125 54.6875 
L 36.8125 47.703125 
L 18.3125 47.703125 
L 18.3125 18.015625 
Q 18.3125 11.328125 20.140625 9.421875 
Q 21.96875 7.515625 27.59375 7.515625 
L 36.8125 7.515625 
L 36.8125 0 
L 27.59375 0 
Q 17.1875 0 13.234375 3.875 
Q 9.28125 7.765625 9.28125 18.015625 
L 9.28125 47.703125 
L 2.6875 47.703125 
L 2.6875 54.6875 
L 9.28125 54.6875 
L 9.28125 70.21875 
z
" id="DejaVuSans-116"/>
       <path d="M 54.890625 33.015625 
L 54.890625 0 
L 45.90625 0 
L 45.90625 32.71875 
Q 45.90625 40.484375 42.875 44.328125 
Q 39.84375 48.1875 33.796875 48.1875 
Q 26.515625 48.1875 22.3125 43.546875 
Q 18.109375 38.921875 18.109375 30.90625 
L 18.109375 0 
L 9.078125 0 
L 9.078125 75.984375 
L 18.109375 75.984375 
L 18.109375 46.1875 
Q 21.34375 51.125 25.703125 53.5625 
Q 30.078125 56 35.796875 56 
Q 45.21875 56 50.046875 50.171875 
Q 54.890625 44.34375 54.890625 33.015625 
z
" id="DejaVuSans-104"/>
       <path d="M 45.40625 46.390625 
L 45.40625 75.984375 
L 54.390625 75.984375 
L 54.390625 0 
L 45.40625 0 
L 45.40625 8.203125 
Q 42.578125 3.328125 38.25 0.953125 
Q 33.9375 -1.421875 27.875 -1.421875 
Q 17.96875 -1.421875 11.734375 6.484375 
Q 5.515625 14.40625 5.515625 27.296875 
Q 5.515625 40.1875 11.734375 48.09375 
Q 17.96875 56 27.875 56 
Q 33.9375 56 38.25 53.625 
Q 42.578125 51.265625 45.40625 46.390625 
z
M 14.796875 27.296875 
Q 14.796875 17.390625 18.875 11.75 
Q 22.953125 6.109375 30.078125 6.109375 
Q 37.203125 6.109375 41.296875 11.75 
Q 45.40625 17.390625 45.40625 27.296875 
Q 45.40625 37.203125 41.296875 42.84375 
Q 37.203125 48.484375 30.078125 48.484375 
Q 22.953125 48.484375 18.875 42.84375 
Q 14.796875 37.203125 14.796875 27.296875 
z
" id="DejaVuSans-100"/>
       <path d="M 34.28125 27.484375 
Q 23.390625 27.484375 19.1875 25 
Q 14.984375 22.515625 14.984375 16.5 
Q 14.984375 11.71875 18.140625 8.90625 
Q 21.296875 6.109375 26.703125 6.109375 
Q 34.1875 6.109375 38.703125 11.40625 
Q 43.21875 16.703125 43.21875 25.484375 
L 43.21875 27.484375 
z
M 52.203125 31.203125 
L 52.203125 0 
L 43.21875 0 
L 43.21875 8.296875 
Q 40.140625 3.328125 35.546875 0.953125 
Q 30.953125 -1.421875 24.3125 -1.421875 
Q 15.921875 -1.421875 10.953125 3.296875 
Q 6 8.015625 6 15.921875 
Q 6 25.140625 12.171875 29.828125 
Q 18.359375 34.515625 30.609375 34.515625 
L 43.21875 34.515625 
L 43.21875 35.40625 
Q 43.21875 41.609375 39.140625 45 
Q 35.0625 48.390625 27.6875 48.390625 
Q 23 48.390625 18.546875 47.265625 
Q 14.109375 46.140625 10.015625 43.890625 
L 10.015625 52.203125 
Q 14.9375 54.109375 19.578125 55.046875 
Q 24.21875 56 28.609375 56 
Q 40.484375 56 46.34375 49.84375 
Q 52.203125 43.703125 52.203125 31.203125 
z
" id="DejaVuSans-97"/>
       <path d="M 32.171875 -5.078125 
Q 28.375 -14.84375 24.75 -17.8125 
Q 21.140625 -20.796875 15.09375 -20.796875 
L 7.90625 -20.796875 
L 7.90625 -13.28125 
L 13.1875 -13.28125 
Q 16.890625 -13.28125 18.9375 -11.515625 
Q 21 -9.765625 23.484375 -3.21875 
L 25.09375 0.875 
L 2.984375 54.6875 
L 12.5 54.6875 
L 29.59375 11.921875 
L 46.6875 54.6875 
L 56.203125 54.6875 
z
" id="DejaVuSans-121"/>
      </defs>
      <use xlink:href="#DejaVuSans-84"/>
      <use x="57.958984" xlink:href="#DejaVuSans-105"/>
      <use x="85.742188" xlink:href="#DejaVuSans-109"/>
      <use x="183.154297" xlink:href="#DejaVuSans-101"/>
      <use x="244.677734" xlink:href="#DejaVuSans-32"/>
      <use x="276.464844" xlink:href="#DejaVuSans-111"/>
      <use x="337.646484" xlink:href="#DejaVuSans-102"/>
      <use x="372.851562" xlink:href="#DejaVuSans-32"/>
      <use x="404.638672" xlink:href="#DejaVuSans-116"/>
      <use x="443.847656" xlink:href="#DejaVuSans-104"/>
      <use x="507.226562" xlink:href="#DejaVuSans-101"/>
      <use x="568.75" xlink:href="#DejaVuSans-32"/>
      <use x="600.537109" xlink:href="#DejaVuSans-100"/>
      <use x="664.013672" xlink:href="#DejaVuSans-97"/>
      <use x="725.292969" xlink:href="#DejaVuSans-121"/>
     </g>
    </g>
   </g>
   <g id="matplotlib.axis_2">
    <g id="ytick_1">
     <g id="line2d_21">
      <defs>
       <path d="M 0 0 
L -3.5 0 
" id="m9de4885897" style="stroke:#000000;stroke-width:0.8;"/>
      </defs>
      <g>
       <use style="stroke:#000000;stroke-width:0.8;" x="57.6" xlink:href="#m9de4885897" y="293.505049"/>
      </g>
     </g>
     <g id="text_22">
      <!-- 5 -->
      <g transform="translate(44.2375 297.304268)scale(0.1 -0.1)">
       <use xlink:href="#DejaVuSans-53"/>
      </g>
     </g>
    </g>
    <g id="ytick_2">
     <g id="line2d_22">
      <g>
       <use style="stroke:#000000;stroke-width:0.8;" x="57.6" xlink:href="#m9de4885897" y="248.437985"/>
      </g>
     </g>
     <g id="text_23">
      <!-- 10 -->
      <g transform="translate(37.875 252.237204)scale(0.1 -0.1)">
       <use xlink:href="#DejaVuSans-49"/>
       <use x="63.623047" xlink:href="#DejaVuSans-48"/>
      </g>
     </g>
    </g>
    <g id="ytick_3">
     <g id="line2d_23">
      <g>
       <use style="stroke:#000000;stroke-width:0.8;" x="57.6" xlink:href="#m9de4885897" y="203.370921"/>
      </g>
     </g>
     <g id="text_24">
      <!-- 15 -->
      <g transform="translate(37.875 207.17014)scale(0.1 -0.1)">
       <use xlink:href="#DejaVuSans-49"/>
       <use x="63.623047" xlink:href="#DejaVuSans-53"/>
      </g>
     </g>
    </g>
    <g id="ytick_4">
     <g id="line2d_24">
      <g>
       <use style="stroke:#000000;stroke-width:0.8;" x="57.6" xlink:href="#m9de4885897" y="158.303857"/>
      </g>
     </g>
     <g id="text_25">
      <!-- 20 -->
      <g transform="translate(37.875 162.103076)scale(0.1 -0.1)">
       <use xlink:href="#DejaVuSans-50"/>
       <use x="63.623047" xlink:href="#DejaVuSans-48"/>
      </g>
     </g>
    </g>
    <g id="ytick_5">
     <g id="line2d_25">
      <g>
       <use style="stroke:#000000;stroke-width:0.8;" x="57.6" xlink:href="#m9de4885897" y="113.236793"/>
      </g>
     </g>
     <g id="text_26">
      <!-- 25 -->
      <g transform="translate(37.875 117.036012)scale(0.1 -0.1)">
       <use xlink:href="#DejaVuSans-50"/>
       <use x="63.623047" xlink:href="#DejaVuSans-53"/>
      </g>
     </g>
    </g>
    <g id="ytick_6">
     <g id="line2d_26">
      <g>
       <use style="stroke:#000000;stroke-width:0.8;" x="57.6" xlink:href="#m9de4885897" y="68.169729"/>
      </g>
     </g>
     <g id="text_27">
      <!-- 30 -->
      <g transform="translate(37.875 71.968948)scale(0.1 -0.1)">
       <use xlink:href="#DejaVuSans-51"/>
       <use x="63.623047" xlink:href="#DejaVuSans-48"/>
      </g>
     </g>
    </g>
    <g id="text_28">
     <!-- Load -->
     <g transform="translate(31.795313 186.524094)rotate(-90)scale(0.1 -0.1)">
      <defs>
       <path d="M 9.8125 72.90625 
L 19.671875 72.90625 
L 19.671875 8.296875 
L 55.171875 8.296875 
L 55.171875 0 
L 9.8125 0 
z
" id="DejaVuSans-76"/>
      </defs>
      <use xlink:href="#DejaVuSans-76"/>
      <use x="53.962891" xlink:href="#DejaVuSans-111"/>
      <use x="115.144531" xlink:href="#DejaVuSans-97"/>
      <use x="176.423828" xlink:href="#DejaVuSans-100"/>
     </g>
    </g>
   </g>
   <g id="line2d_27">
    <path clip-path="url(#pe2409e3e28)" d="M 73.832727 287.466063 
L 77.250144 287.556197 
L 80.66756 288.187136 
L 84.084976 288.547672 
L 87.502392 288.547672 
L 90.919809 288.818075 
L 94.337225 288.818075 
L 97.754641 288.908209 
L 101.172057 288.998343 
L 104.589474 289.088477 
L 108.00689 289.088477 
L 111.424306 288.998343 
L 114.841722 288.908209 
L 118.259139 288.637806 
L 121.676555 288.006867 
L 125.093971 287.19566 
L 128.511388 286.023917 
L 131.928804 284.1311 
L 135.34622 281.336942 
L 138.763636 277.551308 
L 142.181053 272.323529 
L 145.598469 266.194408 
L 149.015885 259.073812 
L 152.433301 250.420936 
L 155.850718 239.604841 
L 159.268134 226.535392 
L 162.68555 212.384334 
L 166.102967 198.77408 
L 169.520383 187.597449 
L 172.937799 179.124841 
L 176.355215 173.266122 
L 179.772632 169.300221 
L 183.190048 166.866599 
L 186.607464 165.244185 
L 190.02488 164.432978 
L 193.442297 163.892173 
L 196.859713 163.62177 
L 200.277129 163.441502 
L 203.694545 163.1711 
L 207.111962 162.990832 
L 210.529378 162.810563 
L 213.946794 162.720429 
L 217.364211 162.720429 
L 220.781627 162.810563 
L 224.199043 162.990832 
L 227.616459 163.351368 
L 231.033876 163.892173 
L 234.451292 164.432978 
L 237.868708 165.063917 
L 241.286124 165.875124 
L 244.703541 166.776465 
L 248.120957 167.677806 
L 251.538373 168.489013 
L 254.955789 169.210086 
L 258.373206 169.841025 
L 261.790622 170.562098 
L 265.208038 171.91411 
L 268.625455 174.167463 
L 272.042871 178.313633 
L 275.460287 185.614498 
L 278.877703 197.061532 
L 282.29512 213.195541 
L 285.712536 233.565854 
L 289.129952 254.747374 
L 292.547368 270.791249 
L 295.964785 278.90332 
L 299.382201 282.508686 
L 302.799617 284.58177 
L 306.217033 285.843648 
L 309.63445 286.654855 
L 313.051866 286.835124 
L 316.469282 286.74499 
L 319.886699 286.564721 
L 323.304115 286.023917 
L 326.721531 285.302844 
L 330.138947 284.58177 
L 333.556364 284.040966 
L 336.97378 283.680429 
L 340.391196 283.500161 
L 343.808612 283.860697 
L 347.226029 284.401502 
L 350.643445 285.122575 
L 354.060861 285.933782 
L 357.478278 286.654855 
L 360.895694 287.375928 
L 364.31311 288.187136 
L 367.730526 288.72794 
L 371.147943 288.818075 
L 374.565359 289.088477 
L 377.982775 289.539148 
L 381.400191 289.539148 
L 384.817608 289.268745 
L 388.235024 289.80955 
L 391.65244 288.818075 
L 395.069856 287.556197 
L 398.487273 287.736465 
" style="fill:none;stroke:#1f77b4;stroke-linecap:square;stroke-width:1.5;"/>
   </g>
   <g id="line2d_28">
    <path clip-path="url(#pe2409e3e28)" d="M 73.832727 288.457538 
L 77.250144 288.27727 
L 80.66756 288.547672 
L 84.084976 288.908209 
L 87.502392 288.998343 
L 90.919809 289.088477 
L 94.337225 289.178611 
L 97.754641 289.358879 
L 101.172057 289.268745 
L 104.589474 288.998343 
L 108.00689 288.457538 
L 111.424306 287.556197 
L 114.841722 286.114051 
L 118.259139 283.950832 
L 121.676555 281.156674 
L 125.093971 277.280906 
L 128.511388 272.143261 
L 131.928804 265.653604 
L 135.34622 257.27113 
L 138.763636 246.545168 
L 142.181053 233.205317 
L 145.598469 217.612113 
L 149.015885 201.748507 
L 152.433301 187.687583 
L 155.850718 176.871487 
L 159.268134 169.119952 
L 162.68555 163.982307 
L 166.102967 160.647344 
L 169.520383 158.664393 
L 172.937799 157.222247 
L 176.355215 156.320906 
L 179.772632 155.689967 
L 183.190048 155.419565 
L 186.607464 155.149162 
L 190.02488 155.149162 
L 193.442297 155.149162 
L 196.859713 155.509699 
L 200.277129 155.870235 
L 203.694545 156.591308 
L 207.111962 157.312382 
L 210.529378 158.213723 
L 213.946794 159.205198 
L 217.364211 160.196674 
L 220.781627 161.188149 
L 224.199043 162.179624 
L 227.616459 163.351368 
L 231.033876 165.244185 
L 234.451292 168.218611 
L 237.868708 172.99572 
L 241.286124 181.017657 
L 244.703541 193.366033 
L 248.120957 210.221115 
L 251.538373 230.86183 
L 254.955789 253.57563 
L 258.373206 272.684066 
L 261.790622 283.229759 
L 265.208038 287.736465 
L 268.625455 290.260221 
L 272.042871 292.062903 
L 275.460287 293.234647 
L 278.877703 294.045854 
L 282.29512 294.496525 
L 285.712536 294.857061 
L 289.129952 294.947195 
L 292.547368 295.037329 
L 295.964785 294.947195 
L 299.382201 294.766927 
L 302.799617 294.586659 
L 306.217033 294.586659 
L 309.63445 294.496525 
L 313.051866 294.316256 
L 316.469282 294.135988 
L 319.886699 294.045854 
L 323.304115 293.865586 
L 326.721531 293.685317 
L 330.138947 293.505049 
L 333.556364 293.505049 
L 336.97378 293.505049 
L 340.391196 293.505049 
L 343.808612 293.505049 
L 347.226029 293.505049 
L 350.643445 293.595183 
L 354.060861 293.595183 
L 357.478278 293.505049 
L 360.895694 293.595183 
L 364.31311 293.685317 
L 367.730526 293.595183 
L 371.147943 293.685317 
L 374.565359 293.95572 
L 377.982775 294.316256 
L 381.400191 294.496525 
L 384.817608 294.496525 
L 388.235024 295.488 
L 391.65244 294.676793 
L 395.069856 293.685317 
L 398.487273 293.775452 
" style="fill:none;stroke:#ff7f0e;stroke-linecap:square;stroke-width:1.5;"/>
   </g>
   <g id="line2d_29">
    <path clip-path="url(#pe2409e3e28)" d="M 73.832727 223.020161 
L 77.250144 223.741234 
L 80.66756 226.625526 
L 84.084976 229.239416 
L 87.502392 230.86183 
L 90.919809 232.484244 
L 94.337225 233.92639 
L 97.754641 234.917866 
L 101.172057 235.729073 
L 104.589474 236.360012 
L 108.00689 236.630414 
L 111.424306 236.720548 
L 114.841722 236.720548 
L 118.259139 236.720548 
L 121.676555 236.630414 
L 125.093971 236.630414 
L 128.511388 236.630414 
L 131.928804 236.720548 
L 135.34622 236.720548 
L 138.763636 236.360012 
L 142.181053 235.819207 
L 145.598469 235.188268 
L 149.015885 234.016525 
L 152.433301 232.213842 
L 155.850718 229.690086 
L 159.268134 226.26499 
L 162.68555 221.397747 
L 166.102967 214.637687 
L 169.520383 205.894677 
L 172.937799 194.988447 
L 176.355215 180.927523 
L 179.772632 162.990832 
L 183.190048 142.44025 
L 186.607464 121.529133 
L 190.02488 103.412173 
L 193.442297 88.900578 
L 196.859713 77.994349 
L 200.277129 70.15268 
L 203.694545 64.744632 
L 207.111962 60.958999 
L 210.529378 58.525377 
L 213.946794 56.812829 
L 217.364211 55.821353 
L 220.781627 55.010146 
L 224.199043 54.559475 
L 227.616459 54.108805 
L 231.033876 53.838402 
L 234.451292 53.748268 
L 237.868708 53.658134 
L 241.286124 53.568 
L 244.703541 53.568 
L 248.120957 53.748268 
L 251.538373 53.928537 
L 254.955789 54.289073 
L 258.373206 54.829878 
L 261.790622 55.280548 
L 265.208038 55.550951 
L 268.625455 55.460817 
L 272.042871 55.280548 
L 275.460287 55.821353 
L 278.877703 58.435243 
L 282.29512 65.105168 
L 285.712536 78.535154 
L 289.129952 102.600966 
L 292.547368 138.29408 
L 295.964785 176.330683 
L 299.382201 202.92025 
L 302.799617 215.088358 
L 306.217033 219.054259 
L 309.63445 221.668149 
L 313.051866 224.642575 
L 316.469282 227.346599 
L 319.886699 229.509818 
L 323.304115 231.222367 
L 326.721531 232.664513 
L 330.138947 233.92639 
L 333.556364 234.917866 
L 336.97378 235.729073 
L 340.391196 236.269878 
L 343.808612 236.360012 
L 347.226029 236.360012 
L 350.643445 236.360012 
L 354.060861 236.179744 
L 357.478278 236.08961 
L 360.895694 235.819207 
L 364.31311 235.638939 
L 367.730526 235.098134 
L 371.147943 234.016525 
L 374.565359 232.754647 
L 377.982775 230.951964 
L 381.400191 229.059148 
L 384.817608 226.71566 
L 388.235024 224.462307 
L 391.65244 220.856942 
L 395.069856 219.144393 
L 398.487273 218.333186 
" style="fill:none;stroke:#2ca02c;stroke-linecap:square;stroke-width:1.5;"/>
   </g>
   <g id="line2d_30">
    <path clip-path="url(#pe2409e3e28)" d="M 73.832727 289.539148 
L 77.250144 289.719416 
L 80.66756 291.161562 
L 84.084976 291.972769 
L 87.502392 292.243171 
L 90.919809 292.783976 
L 94.337225 293.144513 
L 97.754641 293.324781 
L 101.172057 293.505049 
L 104.589474 293.595183 
L 108.00689 293.505049 
L 111.424306 293.324781 
L 114.841722 292.693842 
L 118.259139 291.612232 
L 121.676555 290.170086 
L 125.093971 287.916733 
L 128.511388 284.401502 
L 131.928804 279.263857 
L 135.34622 273.044602 
L 138.763636 265.473335 
L 142.181053 256.009252 
L 145.598469 244.83262 
L 149.015885 232.123708 
L 152.433301 218.873991 
L 155.850718 206.886152 
L 159.268134 197.2418 
L 162.68555 190.391607 
L 166.102967 185.8849 
L 169.520383 183.090742 
L 172.937799 181.107791 
L 176.355215 179.575511 
L 179.772632 178.403768 
L 183.190048 177.412292 
L 186.607464 176.871487 
L 190.02488 176.150414 
L 193.442297 175.699744 
L 196.859713 175.249073 
L 200.277129 174.798402 
L 203.694545 174.437866 
L 207.111962 174.347732 
L 210.529378 174.437866 
L 213.946794 174.528 
L 217.364211 175.068805 
L 220.781627 175.789878 
L 224.199043 176.691219 
L 227.616459 177.322158 
L 231.033876 178.133365 
L 234.451292 178.854438 
L 237.868708 179.485377 
L 241.286124 179.936048 
L 244.703541 180.20645 
L 248.120957 180.657121 
L 251.538373 181.28806 
L 254.955789 182.730206 
L 258.373206 185.704632 
L 261.790622 190.842277 
L 265.208038 198.954349 
L 268.625455 210.491517 
L 272.042871 225.543917 
L 275.460287 243.75101 
L 278.877703 262.498909 
L 282.29512 275.388089 
L 285.712536 280.706003 
L 289.129952 283.229759 
L 292.547368 284.762039 
L 295.964785 285.843648 
L 299.382201 286.74499 
L 302.799617 287.285794 
L 306.217033 287.736465 
L 309.63445 288.27727 
L 313.051866 288.637806 
L 316.469282 289.088477 
L 319.886699 289.539148 
L 323.304115 290.079952 
L 326.721531 290.350355 
L 330.138947 290.620757 
L 333.556364 291.071428 
L 336.97378 291.431964 
L 340.391196 291.882635 
L 343.808612 292.062903 
L 347.226029 292.42344 
L 350.643445 292.693842 
L 354.060861 292.783976 
L 357.478278 292.87411 
L 360.895694 292.964244 
L 364.31311 293.234647 
L 367.730526 293.234647 
L 371.147943 293.234647 
L 374.565359 293.505049 
L 377.982775 293.775452 
L 381.400191 293.685317 
L 384.817608 293.685317 
L 388.235024 294.045854 
L 391.65244 292.243171 
L 395.069856 290.350355 
L 398.487273 289.358879 
" style="fill:none;stroke:#d62728;stroke-linecap:square;stroke-width:1.5;"/>
   </g>
   <g id="line2d_31">
    <path clip-path="url(#pe2409e3e28)" d="M 73.832727 283.229759 
L 77.250144 282.328417 
L 80.66756 281.877747 
L 84.084976 281.51721 
L 87.502392 280.796137 
L 90.919809 280.615869 
L 94.337225 281.066539 
L 97.754641 281.877747 
L 101.172057 282.688954 
L 104.589474 283.229759 
L 108.00689 283.590295 
L 111.424306 284.221234 
L 114.841722 284.852173 
L 118.259139 285.573246 
L 121.676555 286.384453 
L 125.093971 286.925258 
L 128.511388 287.375928 
L 131.928804 287.916733 
L 135.34622 288.367404 
L 138.763636 288.908209 
L 142.181053 289.268745 
L 145.598469 289.539148 
L 149.015885 289.539148 
L 152.433301 289.268745 
L 155.850718 288.72794 
L 159.268134 287.556197 
L 162.68555 285.66338 
L 166.102967 282.688954 
L 169.520383 278.182247 
L 172.937799 272.323529 
L 176.355215 265.022665 
L 179.772632 256.369788 
L 183.190048 245.91423 
L 186.607464 233.205317 
L 190.02488 218.964125 
L 193.442297 203.731458 
L 196.859713 189.490265 
L 200.277129 176.871487 
L 203.694545 167.407404 
L 207.111962 160.286808 
L 210.529378 155.239297 
L 213.946794 151.543797 
L 217.364211 149.020042 
L 220.781627 147.397627 
L 224.199043 146.58642 
L 227.616459 146.225884 
L 231.033876 146.13575 
L 234.451292 146.225884 
L 237.868708 146.496286 
L 241.286124 147.127225 
L 244.703541 147.758164 
L 248.120957 148.749639 
L 251.538373 149.560846 
L 254.955789 150.642456 
L 258.373206 151.904334 
L 261.790622 153.436614 
L 265.208038 155.689967 
L 268.625455 158.844662 
L 272.042871 163.441502 
L 275.460287 170.111428 
L 278.877703 180.116316 
L 282.29512 193.636435 
L 285.712536 211.122456 
L 289.129952 232.754647 
L 292.547368 256.640191 
L 295.964785 273.945943 
L 299.382201 280.345466 
L 302.799617 283.139624 
L 306.217033 284.942307 
L 309.63445 286.294319 
L 313.051866 287.556197 
L 316.469282 288.547672 
L 319.886699 289.449013 
L 323.304115 290.260221 
L 326.721531 290.891159 
L 330.138947 291.431964 
L 333.556364 291.792501 
L 336.97378 292.062903 
L 340.391196 292.243171 
L 343.808612 292.333306 
L 347.226029 292.42344 
L 350.643445 292.333306 
L 354.060861 292.333306 
L 357.478278 292.42344 
L 360.895694 292.513574 
L 364.31311 292.513574 
L 367.730526 292.333306 
L 371.147943 292.333306 
L 374.565359 292.513574 
L 377.982775 292.603708 
L 381.400191 292.513574 
L 384.817608 292.87411 
L 388.235024 293.775452 
L 391.65244 291.972769 
L 395.069856 290.260221 
L 398.487273 289.358879 
" style="fill:none;stroke:#9467bd;stroke-linecap:square;stroke-width:1.5;"/>
   </g>
   <g id="patch_3">
    <path d="M 57.6 307.584 
L 57.6 41.472 
" style="fill:none;stroke:#000000;stroke-linecap:square;stroke-linejoin:miter;stroke-width:0.8;"/>
   </g>
   <g id="patch_4">
    <path d="M 414.72 307.584 
L 414.72 41.472 
" style="fill:none;stroke:#000000;stroke-linecap:square;stroke-linejoin:miter;stroke-width:0.8;"/>
   </g>
   <g id="patch_5">
    <path d="M 57.6 307.584 
L 414.72 307.584 
" style="fill:none;stroke:#000000;stroke-linecap:square;stroke-linejoin:miter;stroke-width:0.8;"/>
   </g>
   <g id="patch_6">
    <path d="M 57.6 41.472 
L 414.72 41.472 
" style="fill:none;stroke:#000000;stroke-linecap:square;stroke-linejoin:miter;stroke-width:0.8;"/>
   </g>
   <g id="legend_1">
    <g id="patch_7">
     <path d="M 328.6825 122.862625 
L 407.72 122.862625 
Q 409.72 122.862625 409.72 120.862625 
L 409.72 48.472 
Q 409.72 46.472 407.72 46.472 
L 328.6825 46.472 
Q 326.6825 46.472 326.6825 48.472 
L 326.6825 120.862625 
Q 326.6825 122.862625 328.6825 122.862625 
z
" style="fill:#ffffff;opacity:0.8;stroke:#cccccc;stroke-linejoin:miter;"/>
    </g>
    <g id="line2d_32">
     <path d="M 330.6825 54.570438 
L 350.6825 54.570438 
" style="fill:none;stroke:#1f77b4;stroke-linecap:square;stroke-width:1.5;"/>
    </g>
    <g id="line2d_33"/>
    <g id="text_29">
     <!-- Sample 1 -->
     <g transform="translate(358.6825 58.070438)scale(0.1 -0.1)">
      <defs>
       <path d="M 53.515625 70.515625 
L 53.515625 60.890625 
Q 47.90625 63.578125 42.921875 64.890625 
Q 37.9375 66.21875 33.296875 66.21875 
Q 25.25 66.21875 20.875 63.09375 
Q 16.5 59.96875 16.5 54.203125 
Q 16.5 49.359375 19.40625 46.890625 
Q 22.3125 44.4375 30.421875 42.921875 
L 36.375 41.703125 
Q 47.40625 39.59375 52.65625 34.296875 
Q 57.90625 29 57.90625 20.125 
Q 57.90625 9.515625 50.796875 4.046875 
Q 43.703125 -1.421875 29.984375 -1.421875 
Q 24.8125 -1.421875 18.96875 -0.25 
Q 13.140625 0.921875 6.890625 3.21875 
L 6.890625 13.375 
Q 12.890625 10.015625 18.65625 8.296875 
Q 24.421875 6.59375 29.984375 6.59375 
Q 38.421875 6.59375 43.015625 9.90625 
Q 47.609375 13.234375 47.609375 19.390625 
Q 47.609375 24.75 44.3125 27.78125 
Q 41.015625 30.8125 33.5 32.328125 
L 27.484375 33.5 
Q 16.453125 35.6875 11.515625 40.375 
Q 6.59375 45.0625 6.59375 53.421875 
Q 6.59375 63.09375 13.40625 68.65625 
Q 20.21875 74.21875 32.171875 74.21875 
Q 37.3125 74.21875 42.625 73.28125 
Q 47.953125 72.359375 53.515625 70.515625 
z
" id="DejaVuSans-83"/>
       <path d="M 18.109375 8.203125 
L 18.109375 -20.796875 
L 9.078125 -20.796875 
L 9.078125 54.6875 
L 18.109375 54.6875 
L 18.109375 46.390625 
Q 20.953125 51.265625 25.265625 53.625 
Q 29.59375 56 35.59375 56 
Q 45.5625 56 51.78125 48.09375 
Q 58.015625 40.1875 58.015625 27.296875 
Q 58.015625 14.40625 51.78125 6.484375 
Q 45.5625 -1.421875 35.59375 -1.421875 
Q 29.59375 -1.421875 25.265625 0.953125 
Q 20.953125 3.328125 18.109375 8.203125 
z
M 48.6875 27.296875 
Q 48.6875 37.203125 44.609375 42.84375 
Q 40.53125 48.484375 33.40625 48.484375 
Q 26.265625 48.484375 22.1875 42.84375 
Q 18.109375 37.203125 18.109375 27.296875 
Q 18.109375 17.390625 22.1875 11.75 
Q 26.265625 6.109375 33.40625 6.109375 
Q 40.53125 6.109375 44.609375 11.75 
Q 48.6875 17.390625 48.6875 27.296875 
z
" id="DejaVuSans-112"/>
       <path d="M 9.421875 75.984375 
L 18.40625 75.984375 
L 18.40625 0 
L 9.421875 0 
z
" id="DejaVuSans-108"/>
      </defs>
      <use xlink:href="#DejaVuSans-83"/>
      <use x="63.476562" xlink:href="#DejaVuSans-97"/>
      <use x="124.755859" xlink:href="#DejaVuSans-109"/>
      <use x="222.167969" xlink:href="#DejaVuSans-112"/>
      <use x="285.644531" xlink:href="#DejaVuSans-108"/>
      <use x="313.427734" xlink:href="#DejaVuSans-101"/>
      <use x="374.951172" xlink:href="#DejaVuSans-32"/>
      <use x="406.738281" xlink:href="#DejaVuSans-49"/>
     </g>
    </g>
    <g id="line2d_34">
     <path d="M 330.6825 69.248563 
L 350.6825 69.248563 
" style="fill:none;stroke:#ff7f0e;stroke-linecap:square;stroke-width:1.5;"/>
    </g>
    <g id="line2d_35"/>
    <g id="text_30">
     <!-- Sample 2 -->
     <g transform="translate(358.6825 72.748563)scale(0.1 -0.1)">
      <use xlink:href="#DejaVuSans-83"/>
      <use x="63.476562" xlink:href="#DejaVuSans-97"/>
      <use x="124.755859" xlink:href="#DejaVuSans-109"/>
      <use x="222.167969" xlink:href="#DejaVuSans-112"/>
      <use x="285.644531" xlink:href="#DejaVuSans-108"/>
      <use x="313.427734" xlink:href="#DejaVuSans-101"/>
      <use x="374.951172" xlink:href="#DejaVuSans-32"/>
      <use x="406.738281" xlink:href="#DejaVuSans-50"/>
     </g>
    </g>
    <g id="line2d_36">
     <path d="M 330.6825 83.926688 
L 350.6825 83.926688 
" style="fill:none;stroke:#2ca02c;stroke-linecap:square;stroke-width:1.5;"/>
    </g>
    <g id="line2d_37"/>
    <g id="text_31">
     <!-- Sample 3 -->
     <g transform="translate(358.6825 87.426688)scale(0.1 -0.1)">
      <use xlink:href="#DejaVuSans-83"/>
      <use x="63.476562" xlink:href="#DejaVuSans-97"/>
      <use x="124.755859" xlink:href="#DejaVuSans-109"/>
      <use x="222.167969" xlink:href="#DejaVuSans-112"/>
      <use x="285.644531" xlink:href="#DejaVuSans-108"/>
      <use x="313.427734" xlink:href="#DejaVuSans-101"/>
      <use x="374.951172" xlink:href="#DejaVuSans-32"/>
      <use x="406.738281" xlink:href="#DejaVuSans-51"/>
     </g>
    </g>
    <g id="line2d_38">
     <path d="M 330.6825 98.604813 
L 350.6825 98.604813 
" style="fill:none;stroke:#d62728;stroke-linecap:square;stroke-width:1.5;"/>
    </g>
    <g id="line2d_39"/>
    <g id="text_32">
     <!-- Sample 4 -->
     <g transform="translate(358.6825 102.104813)scale(0.1 -0.1)">
      <use xlink:href="#DejaVuSans-83"/>
      <use x="63.476562" xlink:href="#DejaVuSans-97"/>
      <use x="124.755859" xlink:href="#DejaVuSans-109"/>
      <use x="222.167969" xlink:href="#DejaVuSans-112"/>
      <use x="285.644531" xlink:href="#DejaVuSans-108"/>
      <use x="313.427734" xlink:href="#DejaVuSans-101"/>
      <use x="374.951172" xlink:href="#DejaVuSans-32"/>
      <use x="406.738281" xlink:href="#DejaVuSans-52"/>
     </g>
    </g>
    <g id="line2d_40">
     <path d="M 330.6825 113.282938 
L 350.6825 113.282938 
" style="fill:none;stroke:#9467bd;stroke-linecap:square;stroke-width:1.5;"/>
    </g>
    <g id="line2d_41"/>
    <g id="text_33">
     <!-- Sample 5 -->
     <g transform="translate(358.6825 116.782938)scale(0.1 -0.1)">
      <use xlink:href="#DejaVuSans-83"/>
      <use x="63.476562" xlink:href="#DejaVuSans-97"/>
      <use x="124.755859" xlink:href="#DejaVuSans-109"/>
      <use x="222.167969" xlink:href="#DejaVuSans-112"/>
      <use x="285.644531" xlink:href="#DejaVuSans-108"/>
      <use x="313.427734" xlink:href="#DejaVuSans-101"/>
      <use x="374.951172" xlink:href="#DejaVuSans-32"/>
      <use x="406.738281" xlink:href="#DejaVuSans-53"/>
     </g>
    </g>
   </g>
  </g>
 </g>
 <defs>
  <clipPath id="pe2409e3e28">
   <rect height="266.112" width="357.12" x="57.6" y="41.472"/>
  </clipPath>
 </defs>
</svg>
