<?xml version="1.0" encoding="utf-8" standalone="no"?>
<!DOCTYPE svg PUBLIC "-//W3C//DTD SVG 1.1//EN"
  "http://www.w3.org/Graphics/SVG/1.1/DTD/svg11.dtd">
<!-- Created with matplotlib (https://matplotlib.org/) -->
<svg height="345.6pt" version="1.1" viewBox="0 0 460.8 345.6" width="460.8pt" xmlns="http://www.w3.org/2000/svg" xmlns:xlink="http://www.w3.org/1999/xlink">
 <metadata>
  <rdf:RDF xmlns:cc="http://creativecommons.org/ns#" xmlns:dc="http://purl.org/dc/elements/1.1/" xmlns:rdf="http://www.w3.org/1999/02/22-rdf-syntax-ns#">
   <cc:Work>
    <dc:type rdf:resource="http://purl.org/dc/dcmitype/StillImage"/>
    <dc:date>2023-12-11T18:30:16.764095</dc:date>
    <dc:format>image/svg+xml</dc:format>
    <dc:creator>
     <cc:Agent>
      <dc:title>Matplotlib v3.3.4, https://matplotlib.org/</dc:title>
     </cc:Agent>
    </dc:creator>
   </cc:Work>
  </rdf:RDF>
 </metadata>
 <defs>
  <style type="text/css">*{stroke-linecap:butt;stroke-linejoin:round;}</style>
 </defs>
 <g id="figure_1">
  <g id="patch_1">
   <path d="M 0 345.6 
L 460.8 345.6 
L 460.8 0 
L 0 0 
z
" style="fill:#ffffff;"/>
  </g>
  <g id="patch_2">
   <path d="M 103.104 307.584 
L 369.216 307.584 
L 369.216 41.472 
L 103.104 41.472 
z
" style="fill:#ffffff;"/>
  </g>
  <g id="pane3d_1">
   <g id="patch_3">
    <path d="M 123.197291 241.969309 
L 211.076164 168.307495 
L 209.854564 62.073991 
L 117.770234 129.272941 
" style="fill:#f2f2f2;opacity:0.5;stroke:#f2f2f2;stroke-linejoin:miter;"/>
   </g>
  </g>
  <g id="pane3d_2">
   <g id="patch_4">
    <path d="M 211.076164 168.307495 
L 352.090401 209.294766 
L 357.122702 99.402171 
L 209.854564 62.073991 
" style="fill:#e6e6e6;opacity:0.5;stroke:#e6e6e6;stroke-linejoin:miter;"/>
   </g>
  </g>
  <g id="pane3d_3">
   <g id="patch_5">
    <path d="M 123.197291 241.969309 
L 272.679269 290.790123 
L 352.090401 209.294766 
L 211.076164 168.307495 
" style="fill:#ececec;opacity:0.5;stroke:#ececec;stroke-linejoin:miter;"/>
   </g>
  </g>
  <g id="axis3d_1">
   <g id="line2d_1">
    <path d="M 123.197291 241.969309 
L 272.679269 290.790123 
" style="fill:none;stroke:#000000;stroke-linecap:square;stroke-width:0.8;"/>
   </g>
   <g id="text_1">
    <!-- Time of the day -->
    <g transform="translate(141.534498 291.453876)rotate(-341.912962)scale(0.1 -0.1)">
     <defs>
      <path d="M -0.296875 72.90625 
L 61.375 72.90625 
L 61.375 64.59375 
L 35.5 64.59375 
L 35.5 0 
L 25.59375 0 
L 25.59375 64.59375 
L -0.296875 64.59375 
z
" id="DejaVuSans-84"/>
      <path d="M 9.421875 54.6875 
L 18.40625 54.6875 
L 18.40625 0 
L 9.421875 0 
z
M 9.421875 75.984375 
L 18.40625 75.984375 
L 18.40625 64.59375 
L 9.421875 64.59375 
z
" id="DejaVuSans-105"/>
      <path d="M 52 44.1875 
Q 55.375 50.25 60.0625 53.125 
Q 64.75 56 71.09375 56 
Q 79.640625 56 84.28125 50.015625 
Q 88.921875 44.046875 88.921875 33.015625 
L 88.921875 0 
L 79.890625 0 
L 79.890625 32.71875 
Q 79.890625 40.578125 77.09375 44.375 
Q 74.3125 48.1875 68.609375 48.1875 
Q 61.625 48.1875 57.5625 43.546875 
Q 53.515625 38.921875 53.515625 30.90625 
L 53.515625 0 
L 44.484375 0 
L 44.484375 32.71875 
Q 44.484375 40.625 41.703125 44.40625 
Q 38.921875 48.1875 33.109375 48.1875 
Q 26.21875 48.1875 22.15625 43.53125 
Q 18.109375 38.875 18.109375 30.90625 
L 18.109375 0 
L 9.078125 0 
L 9.078125 54.6875 
L 18.109375 54.6875 
L 18.109375 46.1875 
Q 21.1875 51.21875 25.484375 53.609375 
Q 29.78125 56 35.6875 56 
Q 41.65625 56 45.828125 52.96875 
Q 50 49.953125 52 44.1875 
z
" id="DejaVuSans-109"/>
      <path d="M 56.203125 29.59375 
L 56.203125 25.203125 
L 14.890625 25.203125 
Q 15.484375 15.921875 20.484375 11.0625 
Q 25.484375 6.203125 34.421875 6.203125 
Q 39.59375 6.203125 44.453125 7.46875 
Q 49.3125 8.734375 54.109375 11.28125 
L 54.109375 2.78125 
Q 49.265625 0.734375 44.1875 -0.34375 
Q 39.109375 -1.421875 33.890625 -1.421875 
Q 20.796875 -1.421875 13.15625 6.1875 
Q 5.515625 13.8125 5.515625 26.8125 
Q 5.515625 40.234375 12.765625 48.109375 
Q 20.015625 56 32.328125 56 
Q 43.359375 56 49.78125 48.890625 
Q 56.203125 41.796875 56.203125 29.59375 
z
M 47.21875 32.234375 
Q 47.125 39.59375 43.09375 43.984375 
Q 39.0625 48.390625 32.421875 48.390625 
Q 24.90625 48.390625 20.390625 44.140625 
Q 15.875 39.890625 15.1875 32.171875 
z
" id="DejaVuSans-101"/>
      <path id="DejaVuSans-32"/>
      <path d="M 30.609375 48.390625 
Q 23.390625 48.390625 19.1875 42.75 
Q 14.984375 37.109375 14.984375 27.296875 
Q 14.984375 17.484375 19.15625 11.84375 
Q 23.34375 6.203125 30.609375 6.203125 
Q 37.796875 6.203125 41.984375 11.859375 
Q 46.1875 17.53125 46.1875 27.296875 
Q 46.1875 37.015625 41.984375 42.703125 
Q 37.796875 48.390625 30.609375 48.390625 
z
M 30.609375 56 
Q 42.328125 56 49.015625 48.375 
Q 55.71875 40.765625 55.71875 27.296875 
Q 55.71875 13.875 49.015625 6.21875 
Q 42.328125 -1.421875 30.609375 -1.421875 
Q 18.84375 -1.421875 12.171875 6.21875 
Q 5.515625 13.875 5.515625 27.296875 
Q 5.515625 40.765625 12.171875 48.375 
Q 18.84375 56 30.609375 56 
z
" id="DejaVuSans-111"/>
      <path d="M 37.109375 75.984375 
L 37.109375 68.5 
L 28.515625 68.5 
Q 23.6875 68.5 21.796875 66.546875 
Q 19.921875 64.59375 19.921875 59.515625 
L 19.921875 54.6875 
L 34.71875 54.6875 
L 34.71875 47.703125 
L 19.921875 47.703125 
L 19.921875 0 
L 10.890625 0 
L 10.890625 47.703125 
L 2.296875 47.703125 
L 2.296875 54.6875 
L 10.890625 54.6875 
L 10.890625 58.5 
Q 10.890625 67.625 15.140625 71.796875 
Q 19.390625 75.984375 28.609375 75.984375 
z
" id="DejaVuSans-102"/>
      <path d="M 18.3125 70.21875 
L 18.3125 54.6875 
L 36.8125 54.6875 
L 36.8125 47.703125 
L 18.3125 47.703125 
L 18.3125 18.015625 
Q 18.3125 11.328125 20.140625 9.421875 
Q 21.96875 7.515625 27.59375 7.515625 
L 36.8125 7.515625 
L 36.8125 0 
L 27.59375 0 
Q 17.1875 0 13.234375 3.875 
Q 9.28125 7.765625 9.28125 18.015625 
L 9.28125 47.703125 
L 2.6875 47.703125 
L 2.6875 54.6875 
L 9.28125 54.6875 
L 9.28125 70.21875 
z
" id="DejaVuSans-116"/>
      <path d="M 54.890625 33.015625 
L 54.890625 0 
L 45.90625 0 
L 45.90625 32.71875 
Q 45.90625 40.484375 42.875 44.328125 
Q 39.84375 48.1875 33.796875 48.1875 
Q 26.515625 48.1875 22.3125 43.546875 
Q 18.109375 38.921875 18.109375 30.90625 
L 18.109375 0 
L 9.078125 0 
L 9.078125 75.984375 
L 18.109375 75.984375 
L 18.109375 46.1875 
Q 21.34375 51.125 25.703125 53.5625 
Q 30.078125 56 35.796875 56 
Q 45.21875 56 50.046875 50.171875 
Q 54.890625 44.34375 54.890625 33.015625 
z
" id="DejaVuSans-104"/>
      <path d="M 45.40625 46.390625 
L 45.40625 75.984375 
L 54.390625 75.984375 
L 54.390625 0 
L 45.40625 0 
L 45.40625 8.203125 
Q 42.578125 3.328125 38.25 0.953125 
Q 33.9375 -1.421875 27.875 -1.421875 
Q 17.96875 -1.421875 11.734375 6.484375 
Q 5.515625 14.40625 5.515625 27.296875 
Q 5.515625 40.1875 11.734375 48.09375 
Q 17.96875 56 27.875 56 
Q 33.9375 56 38.25 53.625 
Q 42.578125 51.265625 45.40625 46.390625 
z
M 14.796875 27.296875 
Q 14.796875 17.390625 18.875 11.75 
Q 22.953125 6.109375 30.078125 6.109375 
Q 37.203125 6.109375 41.296875 11.75 
Q 45.40625 17.390625 45.40625 27.296875 
Q 45.40625 37.203125 41.296875 42.84375 
Q 37.203125 48.484375 30.078125 48.484375 
Q 22.953125 48.484375 18.875 42.84375 
Q 14.796875 37.203125 14.796875 27.296875 
z
" id="DejaVuSans-100"/>
      <path d="M 34.28125 27.484375 
Q 23.390625 27.484375 19.1875 25 
Q 14.984375 22.515625 14.984375 16.5 
Q 14.984375 11.71875 18.140625 8.90625 
Q 21.296875 6.109375 26.703125 6.109375 
Q 34.1875 6.109375 38.703125 11.40625 
Q 43.21875 16.703125 43.21875 25.484375 
L 43.21875 27.484375 
z
M 52.203125 31.203125 
L 52.203125 0 
L 43.21875 0 
L 43.21875 8.296875 
Q 40.140625 3.328125 35.546875 0.953125 
Q 30.953125 -1.421875 24.3125 -1.421875 
Q 15.921875 -1.421875 10.953125 3.296875 
Q 6 8.015625 6 15.921875 
Q 6 25.140625 12.171875 29.828125 
Q 18.359375 34.515625 30.609375 34.515625 
L 43.21875 34.515625 
L 43.21875 35.40625 
Q 43.21875 41.609375 39.140625 45 
Q 35.0625 48.390625 27.6875 48.390625 
Q 23 48.390625 18.546875 47.265625 
Q 14.109375 46.140625 10.015625 43.890625 
L 10.015625 52.203125 
Q 14.9375 54.109375 19.578125 55.046875 
Q 24.21875 56 28.609375 56 
Q 40.484375 56 46.34375 49.84375 
Q 52.203125 43.703125 52.203125 31.203125 
z
" id="DejaVuSans-97"/>
      <path d="M 32.171875 -5.078125 
Q 28.375 -14.84375 24.75 -17.8125 
Q 21.140625 -20.796875 15.09375 -20.796875 
L 7.90625 -20.796875 
L 7.90625 -13.28125 
L 13.1875 -13.28125 
Q 16.890625 -13.28125 18.9375 -11.515625 
Q 21 -9.765625 23.484375 -3.21875 
L 25.09375 0.875 
L 2.984375 54.6875 
L 12.5 54.6875 
L 29.59375 11.921875 
L 46.6875 54.6875 
L 56.203125 54.6875 
z
" id="DejaVuSans-121"/>
     </defs>
     <use xlink:href="#DejaVuSans-84"/>
     <use x="57.958984" xlink:href="#DejaVuSans-105"/>
     <use x="85.742188" xlink:href="#DejaVuSans-109"/>
     <use x="183.154297" xlink:href="#DejaVuSans-101"/>
     <use x="244.677734" xlink:href="#DejaVuSans-32"/>
     <use x="276.464844" xlink:href="#DejaVuSans-111"/>
     <use x="337.646484" xlink:href="#DejaVuSans-102"/>
     <use x="372.851562" xlink:href="#DejaVuSans-32"/>
     <use x="404.638672" xlink:href="#DejaVuSans-116"/>
     <use x="443.847656" xlink:href="#DejaVuSans-104"/>
     <use x="507.226562" xlink:href="#DejaVuSans-101"/>
     <use x="568.75" xlink:href="#DejaVuSans-32"/>
     <use x="600.537109" xlink:href="#DejaVuSans-100"/>
     <use x="664.013672" xlink:href="#DejaVuSans-97"/>
     <use x="725.292969" xlink:href="#DejaVuSans-121"/>
    </g>
   </g>
   <g id="Line3DCollection_1">
    <path d="M 132.250704 244.926154 
L 219.652219 170.800215 
L 218.79322 64.33968 
" style="fill:none;stroke:#b0b0b0;stroke-width:0.8;"/>
    <path d="M 158.726327 253.573092 
L 244.705514 178.082219 
L 244.918927 70.961785 
" style="fill:none;stroke:#b0b0b0;stroke-width:0.8;"/>
    <path d="M 185.713056 262.386958 
L 270.20212 185.493076 
L 271.527037 77.706165 
" style="fill:none;stroke:#b0b0b0;stroke-width:0.8;"/>
    <path d="M 213.225837 271.372632 
L 296.153908 193.036236 
L 298.631037 84.576239 
" style="fill:none;stroke:#b0b0b0;stroke-width:0.8;"/>
    <path d="M 241.280202 280.535187 
L 322.573177 200.715275 
L 326.24492 91.575553 
" style="fill:none;stroke:#b0b0b0;stroke-width:0.8;"/>
   </g>
   <g id="xtick_1">
    <g id="line2d_2">
     <path d="M 133.011792 244.280669 
L 130.725263 246.219892 
" style="fill:none;stroke:#000000;stroke-linecap:square;stroke-width:0.8;"/>
    </g>
    <g id="text_2">
     <!-- 0 -->
     <g transform="translate(121.540405 268.235303)scale(0.1 -0.1)">
      <defs>
       <path d="M 31.78125 66.40625 
Q 24.171875 66.40625 20.328125 58.90625 
Q 16.5 51.421875 16.5 36.375 
Q 16.5 21.390625 20.328125 13.890625 
Q 24.171875 6.390625 31.78125 6.390625 
Q 39.453125 6.390625 43.28125 13.890625 
Q 47.125 21.390625 47.125 36.375 
Q 47.125 51.421875 43.28125 58.90625 
Q 39.453125 66.40625 31.78125 66.40625 
z
M 31.78125 74.21875 
Q 44.046875 74.21875 50.515625 64.515625 
Q 56.984375 54.828125 56.984375 36.375 
Q 56.984375 17.96875 50.515625 8.265625 
Q 44.046875 -1.421875 31.78125 -1.421875 
Q 19.53125 -1.421875 13.0625 8.265625 
Q 6.59375 17.96875 6.59375 36.375 
Q 6.59375 54.828125 13.0625 64.515625 
Q 19.53125 74.21875 31.78125 74.21875 
z
" id="DejaVuSans-48"/>
      </defs>
      <use xlink:href="#DejaVuSans-48"/>
     </g>
    </g>
   </g>
   <g id="xtick_2">
    <g id="line2d_3">
     <path d="M 159.47561 252.915211 
L 157.224514 254.891704 
" style="fill:none;stroke:#000000;stroke-linecap:square;stroke-width:0.8;"/>
    </g>
    <g id="text_3">
     <!-- 20 -->
     <g transform="translate(144.86189 277.065452)scale(0.1 -0.1)">
      <defs>
       <path d="M 19.1875 8.296875 
L 53.609375 8.296875 
L 53.609375 0 
L 7.328125 0 
L 7.328125 8.296875 
Q 12.9375 14.109375 22.625 23.890625 
Q 32.328125 33.6875 34.8125 36.53125 
Q 39.546875 41.84375 41.421875 45.53125 
Q 43.3125 49.21875 43.3125 52.78125 
Q 43.3125 58.59375 39.234375 62.25 
Q 35.15625 65.921875 28.609375 65.921875 
Q 23.96875 65.921875 18.8125 64.3125 
Q 13.671875 62.703125 7.8125 59.421875 
L 7.8125 69.390625 
Q 13.765625 71.78125 18.9375 73 
Q 24.125 74.21875 28.421875 74.21875 
Q 39.75 74.21875 46.484375 68.546875 
Q 53.21875 62.890625 53.21875 53.421875 
Q 53.21875 48.921875 51.53125 44.890625 
Q 49.859375 40.875 45.40625 35.40625 
Q 44.1875 33.984375 37.640625 27.21875 
Q 31.109375 20.453125 19.1875 8.296875 
z
" id="DejaVuSans-50"/>
      </defs>
      <use xlink:href="#DejaVuSans-50"/>
      <use x="63.623047" xlink:href="#DejaVuSans-48"/>
     </g>
    </g>
   </g>
   <g id="xtick_3">
    <g id="line2d_4">
     <path d="M 186.449936 261.71632 
L 184.236074 263.731167 
" style="fill:none;stroke:#000000;stroke-linecap:square;stroke-width:0.8;"/>
    </g>
    <g id="text_4">
     <!-- 40 -->
     <g transform="translate(171.878194 286.066712)scale(0.1 -0.1)">
      <defs>
       <path d="M 37.796875 64.3125 
L 12.890625 25.390625 
L 37.796875 25.390625 
z
M 35.203125 72.90625 
L 47.609375 72.90625 
L 47.609375 25.390625 
L 58.015625 25.390625 
L 58.015625 17.1875 
L 47.609375 17.1875 
L 47.609375 0 
L 37.796875 0 
L 37.796875 17.1875 
L 4.890625 17.1875 
L 4.890625 26.703125 
z
" id="DejaVuSans-52"/>
      </defs>
      <use xlink:href="#DejaVuSans-52"/>
      <use x="63.623047" xlink:href="#DejaVuSans-48"/>
     </g>
    </g>
   </g>
   <g id="xtick_4">
    <g id="line2d_5">
     <path d="M 213.949685 270.688863 
L 211.774943 272.74319 
" style="fill:none;stroke:#000000;stroke-linecap:square;stroke-width:0.8;"/>
    </g>
    <g id="text_5">
     <!-- 60 -->
     <g transform="translate(199.423141 295.244105)scale(0.1 -0.1)">
      <defs>
       <path d="M 33.015625 40.375 
Q 26.375 40.375 22.484375 35.828125 
Q 18.609375 31.296875 18.609375 23.390625 
Q 18.609375 15.53125 22.484375 10.953125 
Q 26.375 6.390625 33.015625 6.390625 
Q 39.65625 6.390625 43.53125 10.953125 
Q 47.40625 15.53125 47.40625 23.390625 
Q 47.40625 31.296875 43.53125 35.828125 
Q 39.65625 40.375 33.015625 40.375 
z
M 52.59375 71.296875 
L 52.59375 62.3125 
Q 48.875 64.0625 45.09375 64.984375 
Q 41.3125 65.921875 37.59375 65.921875 
Q 27.828125 65.921875 22.671875 59.328125 
Q 17.53125 52.734375 16.796875 39.40625 
Q 19.671875 43.65625 24.015625 45.921875 
Q 28.375 48.1875 33.59375 48.1875 
Q 44.578125 48.1875 50.953125 41.515625 
Q 57.328125 34.859375 57.328125 23.390625 
Q 57.328125 12.15625 50.6875 5.359375 
Q 44.046875 -1.421875 33.015625 -1.421875 
Q 20.359375 -1.421875 13.671875 8.265625 
Q 6.984375 17.96875 6.984375 36.375 
Q 6.984375 53.65625 15.1875 63.9375 
Q 23.390625 74.21875 37.203125 74.21875 
Q 40.921875 74.21875 44.703125 73.484375 
Q 48.484375 72.75 52.59375 71.296875 
z
" id="DejaVuSans-54"/>
      </defs>
      <use xlink:href="#DejaVuSans-54"/>
      <use x="63.623047" xlink:href="#DejaVuSans-48"/>
     </g>
    </g>
   </g>
   <g id="xtick_5">
    <g id="line2d_6">
     <path d="M 241.99036 279.837897 
L 239.856717 281.932878 
" style="fill:none;stroke:#000000;stroke-linecap:square;stroke-width:0.8;"/>
    </g>
    <g id="text_6">
     <!-- 80 -->
     <g transform="translate(227.5124 304.602851)scale(0.1 -0.1)">
      <defs>
       <path d="M 31.78125 34.625 
Q 24.75 34.625 20.71875 30.859375 
Q 16.703125 27.09375 16.703125 20.515625 
Q 16.703125 13.921875 20.71875 10.15625 
Q 24.75 6.390625 31.78125 6.390625 
Q 38.8125 6.390625 42.859375 10.171875 
Q 46.921875 13.96875 46.921875 20.515625 
Q 46.921875 27.09375 42.890625 30.859375 
Q 38.875 34.625 31.78125 34.625 
z
M 21.921875 38.8125 
Q 15.578125 40.375 12.03125 44.71875 
Q 8.5 49.078125 8.5 55.328125 
Q 8.5 64.0625 14.71875 69.140625 
Q 20.953125 74.21875 31.78125 74.21875 
Q 42.671875 74.21875 48.875 69.140625 
Q 55.078125 64.0625 55.078125 55.328125 
Q 55.078125 49.078125 51.53125 44.71875 
Q 48 40.375 41.703125 38.8125 
Q 48.828125 37.15625 52.796875 32.3125 
Q 56.78125 27.484375 56.78125 20.515625 
Q 56.78125 9.90625 50.3125 4.234375 
Q 43.84375 -1.421875 31.78125 -1.421875 
Q 19.734375 -1.421875 13.25 4.234375 
Q 6.78125 9.90625 6.78125 20.515625 
Q 6.78125 27.484375 10.78125 32.3125 
Q 14.796875 37.15625 21.921875 38.8125 
z
M 18.3125 54.390625 
Q 18.3125 48.734375 21.84375 45.5625 
Q 25.390625 42.390625 31.78125 42.390625 
Q 38.140625 42.390625 41.71875 45.5625 
Q 45.3125 48.734375 45.3125 54.390625 
Q 45.3125 60.0625 41.71875 63.234375 
Q 38.140625 66.40625 31.78125 66.40625 
Q 25.390625 66.40625 21.84375 63.234375 
Q 18.3125 60.0625 18.3125 54.390625 
z
" id="DejaVuSans-56"/>
      </defs>
      <use xlink:href="#DejaVuSans-56"/>
      <use x="63.623047" xlink:href="#DejaVuSans-48"/>
     </g>
    </g>
   </g>
  </g>
  <g id="axis3d_2">
   <g id="line2d_7">
    <path d="M 352.090401 209.294766 
L 272.679269 290.790123 
" style="fill:none;stroke:#000000;stroke-linecap:square;stroke-width:0.8;"/>
   </g>
   <g id="text_7">
    <!-- Temperature(℃) -->
    <g transform="translate(314.365301 307.653229)rotate(-45.742112)scale(0.1 -0.1)">
     <defs>
      <path d="M 18.109375 8.203125 
L 18.109375 -20.796875 
L 9.078125 -20.796875 
L 9.078125 54.6875 
L 18.109375 54.6875 
L 18.109375 46.390625 
Q 20.953125 51.265625 25.265625 53.625 
Q 29.59375 56 35.59375 56 
Q 45.5625 56 51.78125 48.09375 
Q 58.015625 40.1875 58.015625 27.296875 
Q 58.015625 14.40625 51.78125 6.484375 
Q 45.5625 -1.421875 35.59375 -1.421875 
Q 29.59375 -1.421875 25.265625 0.953125 
Q 20.953125 3.328125 18.109375 8.203125 
z
M 48.6875 27.296875 
Q 48.6875 37.203125 44.609375 42.84375 
Q 40.53125 48.484375 33.40625 48.484375 
Q 26.265625 48.484375 22.1875 42.84375 
Q 18.109375 37.203125 18.109375 27.296875 
Q 18.109375 17.390625 22.1875 11.75 
Q 26.265625 6.109375 33.40625 6.109375 
Q 40.53125 6.109375 44.609375 11.75 
Q 48.6875 17.390625 48.6875 27.296875 
z
" id="DejaVuSans-112"/>
      <path d="M 41.109375 46.296875 
Q 39.59375 47.171875 37.8125 47.578125 
Q 36.03125 48 33.890625 48 
Q 26.265625 48 22.1875 43.046875 
Q 18.109375 38.09375 18.109375 28.8125 
L 18.109375 0 
L 9.078125 0 
L 9.078125 54.6875 
L 18.109375 54.6875 
L 18.109375 46.1875 
Q 20.953125 51.171875 25.484375 53.578125 
Q 30.03125 56 36.53125 56 
Q 37.453125 56 38.578125 55.875 
Q 39.703125 55.765625 41.0625 55.515625 
z
" id="DejaVuSans-114"/>
      <path d="M 8.5 21.578125 
L 8.5 54.6875 
L 17.484375 54.6875 
L 17.484375 21.921875 
Q 17.484375 14.15625 20.5 10.265625 
Q 23.53125 6.390625 29.59375 6.390625 
Q 36.859375 6.390625 41.078125 11.03125 
Q 45.3125 15.671875 45.3125 23.6875 
L 45.3125 54.6875 
L 54.296875 54.6875 
L 54.296875 0 
L 45.3125 0 
L 45.3125 8.40625 
Q 42.046875 3.421875 37.71875 1 
Q 33.40625 -1.421875 27.6875 -1.421875 
Q 18.265625 -1.421875 13.375 4.4375 
Q 8.5 10.296875 8.5 21.578125 
z
M 31.109375 56 
z
" id="DejaVuSans-117"/>
      <path d="M 31 75.875 
Q 24.46875 64.65625 21.28125 53.65625 
Q 18.109375 42.671875 18.109375 31.390625 
Q 18.109375 20.125 21.3125 9.0625 
Q 24.515625 -2 31 -13.1875 
L 23.1875 -13.1875 
Q 15.875 -1.703125 12.234375 9.375 
Q 8.59375 20.453125 8.59375 31.390625 
Q 8.59375 42.28125 12.203125 53.3125 
Q 15.828125 64.359375 23.1875 75.875 
z
" id="DejaVuSans-40"/>
      <path d="M 25 67.921875 
Q 21.09375 67.921875 18.40625 65.203125 
Q 15.71875 62.5 15.71875 58.59375 
Q 15.71875 54.734375 18.40625 52.078125 
Q 21.09375 49.421875 25 49.421875 
Q 28.90625 49.421875 31.59375 52.078125 
Q 34.28125 54.734375 34.28125 58.59375 
Q 34.28125 62.453125 31.5625 65.1875 
Q 28.859375 67.921875 25 67.921875 
z
M 25 74.21875 
Q 28.125 74.21875 31 73.015625 
Q 33.890625 71.828125 35.984375 69.578125 
Q 38.234375 67.390625 39.359375 64.59375 
Q 40.484375 61.8125 40.484375 58.59375 
Q 40.484375 52.15625 35.96875 47.6875 
Q 31.453125 43.21875 24.90625 43.21875 
Q 18.3125 43.21875 13.90625 47.609375 
Q 9.515625 52 9.515625 58.59375 
Q 9.515625 65.140625 14 69.671875 
Q 18.5 74.21875 25 74.21875 
z
M 105.28125 67.28125 
L 105.28125 56.890625 
Q 100.296875 61.53125 94.65625 63.8125 
Q 89.015625 66.109375 82.671875 66.109375 
Q 70.171875 66.109375 63.53125 58.46875 
Q 56.890625 50.828125 56.890625 36.375 
Q 56.890625 21.96875 63.53125 14.328125 
Q 70.171875 6.6875 82.671875 6.6875 
Q 89.015625 6.6875 94.65625 8.984375 
Q 100.296875 11.28125 105.28125 15.921875 
L 105.28125 5.609375 
Q 100.109375 2.09375 94.3125 0.328125 
Q 88.53125 -1.421875 82.09375 -1.421875 
Q 65.53125 -1.421875 56 8.703125 
Q 46.484375 18.84375 46.484375 36.375 
Q 46.484375 53.953125 56 64.078125 
Q 65.53125 74.21875 82.09375 74.21875 
Q 88.625 74.21875 94.40625 72.484375 
Q 100.203125 70.75 105.28125 67.28125 
z
" id="DejaVuSans-8451"/>
      <path d="M 8.015625 75.875 
L 15.828125 75.875 
Q 23.140625 64.359375 26.78125 53.3125 
Q 30.421875 42.28125 30.421875 31.390625 
Q 30.421875 20.453125 26.78125 9.375 
Q 23.140625 -1.703125 15.828125 -13.1875 
L 8.015625 -13.1875 
Q 14.5 -2 17.703125 9.0625 
Q 20.90625 20.125 20.90625 31.390625 
Q 20.90625 42.671875 17.703125 53.65625 
Q 14.5 64.65625 8.015625 75.875 
z
" id="DejaVuSans-41"/>
     </defs>
     <use xlink:href="#DejaVuSans-84"/>
     <use x="44.083984" xlink:href="#DejaVuSans-101"/>
     <use x="105.607422" xlink:href="#DejaVuSans-109"/>
     <use x="203.019531" xlink:href="#DejaVuSans-112"/>
     <use x="266.496094" xlink:href="#DejaVuSans-101"/>
     <use x="328.019531" xlink:href="#DejaVuSans-114"/>
     <use x="369.132812" xlink:href="#DejaVuSans-97"/>
     <use x="430.412109" xlink:href="#DejaVuSans-116"/>
     <use x="469.621094" xlink:href="#DejaVuSans-117"/>
     <use x="533" xlink:href="#DejaVuSans-114"/>
     <use x="571.863281" xlink:href="#DejaVuSans-101"/>
     <use x="633.386719" xlink:href="#DejaVuSans-40"/>
     <use x="672.400391" xlink:href="#DejaVuSans-8451"/>
     <use x="784.705078" xlink:href="#DejaVuSans-41"/>
    </g>
   </g>
   <g id="Line3DCollection_2">
    <path d="M 124.379195 124.450022 
L 129.48223 236.701149 
L 278.381935 284.937784 
" style="fill:none;stroke:#b0b0b0;stroke-width:0.8;"/>
    <path d="M 136.297879 115.752309 
L 140.825216 227.193233 
L 288.664916 274.384916 
" style="fill:none;stroke:#b0b0b0;stroke-width:0.8;"/>
    <path d="M 147.955013 107.245464 
L 151.930064 217.884929 
L 298.720651 264.065259 
" style="fill:none;stroke:#b0b0b0;stroke-width:0.8;"/>
    <path d="M 159.359114 98.92327 
L 162.804196 208.770016 
L 308.55659 253.971165 
" style="fill:none;stroke:#b0b0b0;stroke-width:0.8;"/>
    <path d="M 170.518332 90.779781 
L 173.454728 199.842529 
L 318.179863 244.09532 
" style="fill:none;stroke:#b0b0b0;stroke-width:0.8;"/>
    <path d="M 181.44047 82.809302 
L 183.888486 191.096746 
L 327.597292 234.430721 
" style="fill:none;stroke:#b0b0b0;stroke-width:0.8;"/>
    <path d="M 192.133005 75.006377 
L 194.112022 182.527175 
L 336.815413 224.970661 
" style="fill:none;stroke:#b0b0b0;stroke-width:0.8;"/>
    <path d="M 202.603101 67.365778 
L 204.131626 174.128545 
L 345.840486 215.708716 
" style="fill:none;stroke:#b0b0b0;stroke-width:0.8;"/>
   </g>
   <g id="xtick_6">
    <g id="line2d_8">
     <path d="M 277.127167 284.531297 
L 280.894715 285.751809 
" style="fill:none;stroke:#000000;stroke-linecap:square;stroke-width:0.8;"/>
    </g>
    <g id="text_8">
     <!-- 5 -->
     <g transform="translate(288.078531 305.956351)scale(0.1 -0.1)">
      <defs>
       <path d="M 10.796875 72.90625 
L 49.515625 72.90625 
L 49.515625 64.59375 
L 19.828125 64.59375 
L 19.828125 46.734375 
Q 21.96875 47.46875 24.109375 47.828125 
Q 26.265625 48.1875 28.421875 48.1875 
Q 40.625 48.1875 47.75 41.5 
Q 54.890625 34.8125 54.890625 23.390625 
Q 54.890625 11.625 47.5625 5.09375 
Q 40.234375 -1.421875 26.90625 -1.421875 
Q 22.3125 -1.421875 17.546875 -0.640625 
Q 12.796875 0.140625 7.71875 1.703125 
L 7.71875 11.625 
Q 12.109375 9.234375 16.796875 8.0625 
Q 21.484375 6.890625 26.703125 6.890625 
Q 35.15625 6.890625 40.078125 11.328125 
Q 45.015625 15.765625 45.015625 23.390625 
Q 45.015625 31 40.078125 35.4375 
Q 35.15625 39.890625 26.703125 39.890625 
Q 22.75 39.890625 18.8125 39.015625 
Q 14.890625 38.140625 10.796875 36.28125 
z
" id="DejaVuSans-53"/>
      </defs>
      <use xlink:href="#DejaVuSans-53"/>
     </g>
    </g>
   </g>
   <g id="xtick_7">
    <g id="line2d_9">
     <path d="M 287.419785 273.98746 
L 291.15836 275.180845 
" style="fill:none;stroke:#000000;stroke-linecap:square;stroke-width:0.8;"/>
    </g>
    <g id="text_9">
     <!-- 10 -->
     <g transform="translate(295.042379 295.247204)scale(0.1 -0.1)">
      <defs>
       <path d="M 12.40625 8.296875 
L 28.515625 8.296875 
L 28.515625 63.921875 
L 10.984375 60.40625 
L 10.984375 69.390625 
L 28.421875 72.90625 
L 38.28125 72.90625 
L 38.28125 8.296875 
L 54.390625 8.296875 
L 54.390625 0 
L 12.40625 0 
z
" id="DejaVuSans-49"/>
      </defs>
      <use xlink:href="#DejaVuSans-49"/>
      <use x="63.623047" xlink:href="#DejaVuSans-48"/>
     </g>
    </g>
   </g>
   <g id="xtick_8">
    <g id="line2d_10">
     <path d="M 297.485041 263.676536 
L 301.194995 264.843688 
" style="fill:none;stroke:#000000;stroke-linecap:square;stroke-width:0.8;"/>
    </g>
    <g id="text_10">
     <!-- 15 -->
     <g transform="translate(304.963146 284.774859)scale(0.1 -0.1)">
      <use xlink:href="#DejaVuSans-49"/>
      <use x="63.623047" xlink:href="#DejaVuSans-53"/>
     </g>
    </g>
   </g>
   <g id="xtick_9">
    <g id="line2d_11">
     <path d="M 307.330384 253.59089 
L 311.012069 254.732665 
" style="fill:none;stroke:#000000;stroke-linecap:square;stroke-width:0.8;"/>
    </g>
    <g id="text_11">
     <!-- 20 -->
     <g transform="translate(314.666943 274.531548)scale(0.1 -0.1)">
      <use xlink:href="#DejaVuSans-50"/>
      <use x="63.623047" xlink:href="#DejaVuSans-48"/>
     </g>
    </g>
   </g>
   <g id="xtick_10">
    <g id="line2d_12">
     <path d="M 316.962945 243.723221 
L 320.61671 244.840438 
" style="fill:none;stroke:#000000;stroke-linecap:square;stroke-width:0.8;"/>
    </g>
    <g id="text_12">
     <!-- 25 -->
     <g transform="translate(324.160809 264.509838)scale(0.1 -0.1)">
      <use xlink:href="#DejaVuSans-50"/>
      <use x="63.623047" xlink:href="#DejaVuSans-53"/>
     </g>
    </g>
   </g>
   <g id="xtick_11">
    <g id="line2d_13">
     <path d="M 326.389547 234.066537 
L 330.015738 235.159979 
" style="fill:none;stroke:#000000;stroke-linecap:square;stroke-width:0.8;"/>
    </g>
    <g id="text_13">
     <!-- 30 -->
     <g transform="translate(333.451486 254.702616)scale(0.1 -0.1)">
      <defs>
       <path d="M 40.578125 39.3125 
Q 47.65625 37.796875 51.625 33 
Q 55.609375 28.21875 55.609375 21.1875 
Q 55.609375 10.40625 48.1875 4.484375 
Q 40.765625 -1.421875 27.09375 -1.421875 
Q 22.515625 -1.421875 17.65625 -0.515625 
Q 12.796875 0.390625 7.625 2.203125 
L 7.625 11.71875 
Q 11.71875 9.328125 16.59375 8.109375 
Q 21.484375 6.890625 26.8125 6.890625 
Q 36.078125 6.890625 40.9375 10.546875 
Q 45.796875 14.203125 45.796875 21.1875 
Q 45.796875 27.640625 41.28125 31.265625 
Q 36.765625 34.90625 28.71875 34.90625 
L 20.21875 34.90625 
L 20.21875 43.015625 
L 29.109375 43.015625 
Q 36.375 43.015625 40.234375 45.921875 
Q 44.09375 48.828125 44.09375 54.296875 
Q 44.09375 59.90625 40.109375 62.90625 
Q 36.140625 65.921875 28.71875 65.921875 
Q 24.65625 65.921875 20.015625 65.03125 
Q 15.375 64.15625 9.8125 62.3125 
L 9.8125 71.09375 
Q 15.4375 72.65625 20.34375 73.4375 
Q 25.25 74.21875 29.59375 74.21875 
Q 40.828125 74.21875 47.359375 69.109375 
Q 53.90625 64.015625 53.90625 55.328125 
Q 53.90625 49.265625 50.4375 45.09375 
Q 46.96875 40.921875 40.578125 39.3125 
z
" id="DejaVuSans-51"/>
      </defs>
      <use xlink:href="#DejaVuSans-51"/>
      <use x="63.623047" xlink:href="#DejaVuSans-48"/>
     </g>
    </g>
   </g>
   <g id="xtick_12">
    <g id="line2d_14">
     <path d="M 335.616728 224.614143 
L 339.215686 225.684561 
" style="fill:none;stroke:#000000;stroke-linecap:square;stroke-width:0.8;"/>
    </g>
    <g id="text_14">
     <!-- 35 -->
     <g transform="translate(342.545426 245.103069)scale(0.1 -0.1)">
      <use xlink:href="#DejaVuSans-51"/>
      <use x="63.623047" xlink:href="#DejaVuSans-53"/>
     </g>
    </g>
   </g>
   <g id="xtick_13">
    <g id="line2d_15">
     <path d="M 344.650748 215.359623 
L 348.222813 216.407738 
" style="fill:none;stroke:#000000;stroke-linecap:square;stroke-width:0.8;"/>
    </g>
    <g id="text_15">
     <!-- 40 -->
     <g transform="translate(351.448813 235.704669)scale(0.1 -0.1)">
      <use xlink:href="#DejaVuSans-52"/>
      <use x="63.623047" xlink:href="#DejaVuSans-48"/>
     </g>
    </g>
   </g>
  </g>
  <g id="axis3d_3">
   <g id="line2d_16">
    <path d="M 352.090401 209.294766 
L 357.122702 99.402171 
" style="fill:none;stroke:#000000;stroke-linecap:square;stroke-width:0.8;"/>
   </g>
   <g id="text_16">
    <!-- Load -->
    <g transform="translate(382.931136 152.902279)scale(0.1 -0.1)">
     <defs>
      <path d="M 9.8125 72.90625 
L 19.671875 72.90625 
L 19.671875 8.296875 
L 55.171875 8.296875 
L 55.171875 0 
L 9.8125 0 
z
" id="DejaVuSans-76"/>
     </defs>
     <use xlink:href="#DejaVuSans-76"/>
     <use x="53.962891" xlink:href="#DejaVuSans-111"/>
     <use x="115.144531" xlink:href="#DejaVuSans-97"/>
     <use x="176.423828" xlink:href="#DejaVuSans-100"/>
    </g>
   </g>
   <g id="Line3DCollection_3">
    <path d="M 352.270271 205.366855 
L 211.032412 164.502634 
L 123.003626 237.947726 
" style="fill:none;stroke:#b0b0b0;stroke-width:0.8;"/>
    <path d="M 353.209126 184.864651 
L 210.804146 144.652033 
L 121.992389 216.948727 
" style="fill:none;stroke:#b0b0b0;stroke-width:0.8;"/>
    <path d="M 354.163782 164.017414 
L 210.572222 124.483401 
L 120.963481 195.582788 
" style="fill:none;stroke:#b0b0b0;stroke-width:0.8;"/>
    <path d="M 355.13464 142.816359 
L 210.336553 103.989033 
L 119.916435 173.840208 
" style="fill:none;stroke:#b0b0b0;stroke-width:0.8;"/>
    <path d="M 356.122116 121.252403 
L 210.097047 83.160974 
L 118.850768 151.710939 
" style="fill:none;stroke:#b0b0b0;stroke-width:0.8;"/>
   </g>
   <g id="xtick_14">
    <g id="line2d_17">
     <path d="M 351.084808 205.023866 
L 354.644022 206.05365 
" style="fill:none;stroke:#000000;stroke-linecap:square;stroke-width:0.8;"/>
    </g>
    <g id="text_17">
     <!-- 10 -->
     <g transform="translate(364.185002 210.367932)scale(0.1 -0.1)">
      <use xlink:href="#DejaVuSans-49"/>
      <use x="63.623047" xlink:href="#DejaVuSans-48"/>
     </g>
    </g>
   </g>
   <g id="xtick_15">
    <g id="line2d_18">
     <path d="M 352.0134 184.526999 
L 355.603452 185.540766 
" style="fill:none;stroke:#000000;stroke-linecap:square;stroke-width:0.8;"/>
    </g>
    <g id="text_18">
     <!-- 15 -->
     <g transform="translate(365.273064 189.906201)scale(0.1 -0.1)">
      <use xlink:href="#DejaVuSans-49"/>
      <use x="63.623047" xlink:href="#DejaVuSans-53"/>
     </g>
    </g>
   </g>
   <g id="xtick_16">
    <g id="line2d_19">
     <path d="M 352.957613 163.685328 
L 356.579042 164.68239 
" style="fill:none;stroke:#000000;stroke-linecap:square;stroke-width:0.8;"/>
    </g>
    <g id="text_19">
     <!-- 20 -->
     <g transform="translate(366.379382 169.101169)scale(0.1 -0.1)">
      <use xlink:href="#DejaVuSans-50"/>
      <use x="63.623047" xlink:href="#DejaVuSans-48"/>
     </g>
    </g>
   </g>
   <g id="xtick_17">
    <g id="line2d_20">
     <path d="M 353.917845 142.490078 
L 357.571203 143.469719 
" style="fill:none;stroke:#000000;stroke-linecap:square;stroke-width:0.8;"/>
    </g>
    <g id="text_20">
     <!-- 25 -->
     <g transform="translate(367.504417 147.944123)scale(0.1 -0.1)">
      <use xlink:href="#DejaVuSans-50"/>
      <use x="63.623047" xlink:href="#DejaVuSans-53"/>
     </g>
    </g>
   </g>
   <g id="xtick_18">
    <g id="line2d_21">
     <path d="M 354.894506 120.932174 
L 358.580361 121.893649 
" style="fill:none;stroke:#000000;stroke-linecap:square;stroke-width:0.8;"/>
    </g>
    <g id="text_21">
     <!-- 30 -->
     <g transform="translate(368.648651 126.426054)scale(0.1 -0.1)">
      <use xlink:href="#DejaVuSans-51"/>
      <use x="63.623047" xlink:href="#DejaVuSans-48"/>
     </g>
    </g>
   </g>
  </g>
  <g id="axes_1">
   <g id="line2d_22">
    <path clip-path="url(#p21840f3c2a)" d="M 156.990793 220.53412 
L 156.961696 222.061974 
L 158.258416 222.471126 
L 157.346328 224.757354 
L 158.647194 225.169013 
L 157.511204 227.658531 
L 158.816416 228.072896 
L 158.122691 230.197864 
L 159.431927 230.614604 
L 158.960815 232.56033 
L 160.273923 232.979287 
L 160.473445 234.35848 
L 161.789913 234.779128 
L 162.215465 235.970983 
L 163.535129 236.39315 
L 164.410102 237.202347 
L 165.732618 237.625677 
L 166.610783 238.437103 
L 167.936161 238.8616 
L 169.040211 239.480839 
L 170.36828 239.906323 
L 171.252882 240.721882 
L 172.58143 241.061876 
L 173.466922 241.79292 
L 174.766653 240.946184 
L 175.462415 242.957621 
L 176.683739 238.935156 
L 177.707401 235.850316 
L 178.930367 231.427286 
L 179.735914 228.319451 
L 181.007677 225.414845 
L 183.864818 221.889042 
L 184.414548 186.21279 
L 187.318041 182.758254 
L 188.874759 191.80264 
L 192.921216 189.197196 
L 194.279003 188.676966 
L 198.311483 186.093571 
L 199.685068 186.34547 
L 203.269851 184.730066 
L 204.64719 185.162499 
L 208.0001 183.724514 
L 209.37761 184.095242 
L 212.50318 182.903759 
L 213.881083 183.194166 
L 216.781447 182.142401 
L 218.160478 182.375303 
L 220.839465 181.538081 
L 222.220857 181.83291 
L 224.680716 181.170937 
L 226.063965 181.44323 
L 228.307554 181.045669 
L 229.693325 181.403579 
L 231.722185 181.208913 
L 233.110154 181.569131 
L 234.92585 181.46381 
L 236.316127 181.725301 
L 237.920662 181.812278 
L 239.313767 182.100975 
L 240.495995 182.630293 
L 241.892176 182.991767 
L 243.077687 183.576636 
L 244.476785 183.984499 
L 244.393297 185.720912 
L 245.79652 186.152498 
L 245.928012 187.716393 
L 247.335168 188.159472 
L 244.697764 192.233085 
L 246.111595 192.707358 
L 243.669768 196.643412 
L 245.090154 197.133429 
L 246.511782 197.653521 
L 247.932306 198.895708 
L 246.130359 203.083952 
L 247.555414 204.54397 
L 247.93873 196.702863 
L 249.365127 199.861713 
L 249.927963 203.625238 
L 251.182579 242.824255 
L 251.526751 246.475219 
L 252.91891 251.562096 
L 253.464986 256.909421 
L 254.848983 262.444834 
L 255.393405 267.778445 
L 256.800381 269.244277 
L 257.373859 270.52983 
L 258.791067 270.985217 
L 259.368382 272.275597 
L 260.78923 272.732696 
L 261.580815 273.818367 
L 263.005103 274.276982 
L 263.800585 275.366255 
L 265.228329 275.826392 
L 266.237741 276.708423 
L 267.668737 277.169882 
L 268.262287 278.477483 
" style="fill:none;stroke:#1f77b4;stroke-linecap:square;stroke-width:1.5;"/>
   </g>
   <g id="line2d_23">
    <path clip-path="url(#p21840f3c2a)" d="M 139.959679 234.922601 
L 141.039686 235.536421 
L 142.348732 235.958178 
L 143.431632 236.57342 
L 144.743324 236.996156 
L 145.829127 237.612825 
L 147.143474 238.036542 
L 148.23219 238.654644 
L 149.5492 239.079346 
L 150.867455 239.50445 
L 152.186959 239.929956 
L 153.507712 240.355865 
L 154.829716 240.782178 
L 156.152973 241.208895 
L 157.477486 241.636016 
L 159.028696 241.868083 
L 160.355542 242.29583 
L 161.90863 242.528237 
L 163.237816 242.956611 
L 164.792785 243.189359 
L 166.124317 243.618361 
L 167.681172 243.851451 
L 169.012513 244.194228 
L 170.345217 244.537357 
L 171.660995 244.231306 
L 173.011199 245.09709 
L 174.237263 241.3466 
L 175.926323 237.575858 
L 177.146573 233.135756 
L 178.621607 229.458772 
L 179.891669 226.514609 
L 182.086516 223.79832 
L 182.608764 188.042546 
L 185.286431 195.024254 
L 186.631436 194.036774 
L 189.568148 192.361398 
L 190.927473 191.846467 
L 194.083648 189.914636 
L 195.457783 190.013648 
L 199.287437 188.226535 
L 200.666262 188.531764 
L 204.482125 186.849657 
L 205.863051 187.249243 
L 209.44393 185.760233 
L 210.825482 186.150073 
L 214.393014 184.625237 
L 215.77494 184.973727 
L 218.679331 184.012184 
L 220.062694 184.358891 
L 222.961195 183.414677 
L 224.346102 183.777956 
L 226.593912 183.448097 
L 227.981017 183.861143 
L 230.227429 183.504412 
L 231.616287 183.880134 
L 233.433961 183.793869 
L 234.825044 184.07498 
L 236.430936 184.176179 
L 237.824822 184.474741 
L 239.007284 185.007483 
L 240.404283 185.364743 
L 241.377409 186.091705 
L 242.77766 186.446138 
L 243.116433 187.775158 
L 244.520451 188.179416 
L 244.862662 189.556943 
L 246.27038 189.998136 
L 246.19015 191.738955 
L 247.602228 192.134593 
L 247.52457 193.87445 
L 248.940919 194.278081 
L 250.358631 194.692591 
L 251.774295 195.815016 
L 250.207738 199.669311 
L 251.627377 201.010422 
L 251.981269 203.170974 
L 253.393431 206.265852 
L 253.797213 200.137205 
L 254.988084 239.200113 
L 255.54413 242.632425 
L 256.924664 247.703237 
L 257.467192 253.029112 
L 258.838858 258.547409 
L 259.588625 263.654349 
L 260.989618 265.113391 
L 261.774958 266.181379 
L 263.187681 266.632518 
L 264.185257 267.497286 
L 265.601166 267.949709 
L 266.602419 268.81694 
L 268.021525 269.270651 
L 268.818558 270.34827 
L 270.241091 270.80348 
L 271.249779 271.676058 
L 272.675537 272.13257 
L 273.687954 273.007644 
" style="fill:none;stroke:#ff7f0e;stroke-linecap:square;stroke-width:1.5;"/>
   </g>
   <g id="line2d_24">
    <path clip-path="url(#p21840f3c2a)" d="M 167.582433 208.051531 
L 168.223036 209.050712 
L 169.514181 209.506403 
L 170.374175 210.328501 
L 171.667938 210.785562 
L 172.530666 211.601456 
L 173.826312 212.032054 
L 174.907245 212.642204 
L 176.205209 213.066413 
L 177.289108 213.685152 
L 178.589878 214.121611 
L 180.106954 214.37395 
L 181.409877 214.810876 
L 182.928475 215.055411 
L 184.233295 215.481101 
L 185.539269 215.905728 
L 186.846435 216.330951 
L 188.369481 216.609556 
L 189.677969 216.993415 
L 190.987777 217.381902 
L 192.182907 211.799859 
L 193.528838 213.80281 
L 194.775761 210.435368 
L 197.532308 206.338399 
L 198.774421 202.004132 
L 201.529628 197.257698 
L 202.806127 194.299514 
L 206.989804 199.4181 
L 207.861405 164.316397 
L 211.735211 159.854778 
L 213.063964 158.673648 
L 216.733617 155.790101 
L 218.068826 154.758073 
L 221.729352 151.734849 
L 223.071913 151.080796 
L 226.098751 149.210776 
L 227.445038 148.533335 
L 230.468196 146.767065 
L 231.816784 145.605098 
L 234.836011 143.76092 
L 236.189741 142.721922 
L 238.998039 140.255164 
L 240.357017 138.954081 
L 243.164913 137.134919 
L 244.527243 136.921093 
L 247.330249 135.889825 
L 248.693377 136.184001 
L 250.875467 136.15816 
L 252.237656 137.004589 
L 254.618001 137.35425 
L 255.977383 138.665705 
L 257.747313 139.039356 
L 259.113249 139.539565 
L 261.088252 139.449484 
L 262.456678 139.865124 
L 263.6257 140.317939 
L 264.999191 140.506441 
L 266.172288 140.890559 
L 267.548909 141.085142 
L 268.318163 142.195686 
L 269.691478 142.9524 
L 270.460334 144.368351 
L 271.833851 145.299989 
L 272.404521 146.887344 
L 273.781085 147.774726 
L 274.35626 149.260817 
L 275.736765 150.053135 
L 275.916449 151.661136 
L 277.294298 152.854038 
L 277.466495 155.168554 
L 278.84249 156.639624 
L 280.222582 157.865137 
L 281.571234 160.995592 
L 279.715742 166.727658 
L 280.448345 207.241313 
L 280.197781 211.731245 
L 281.484985 217.43368 
L 281.001579 224.269455 
L 282.276735 230.466497 
L 282.590538 236.090622 
L 284.112708 228.385504 
L 284.305402 230.103465 
L 285.684399 230.709916 
L 286.270223 232.327818 
L 287.660996 232.487681 
L 288.249258 234.155284 
L 289.636645 234.654736 
L 290.629062 235.634502 
L 292.01751 236.217919 
L 293.011949 237.256015 
L 294.402122 237.883545 
L 295.59671 238.712997 
L 296.989437 239.335652 
L 297.993011 240.26024 
L 299.391306 240.768426 
L 300.595058 241.468413 
" style="fill:none;stroke:#2ca02c;stroke-linecap:square;stroke-width:1.5;"/>
   </g>
   <g id="line2d_25">
    <path clip-path="url(#p21840f3c2a)" d="M 185.566033 179.413389 
L 186.014001 180.84017 
L 187.303306 181.583997 
L 187.963788 182.8373 
L 189.254999 183.567898 
L 189.707548 184.960852 
L 191.00024 185.643643 
L 191.664923 186.847938 
L 192.959718 187.520027 
L 193.416761 188.863014 
L 194.713354 189.493926 
L 195.38257 190.652457 
L 196.681619 191.285261 
L 197.351832 192.339395 
L 198.652224 192.903346 
L 199.324835 193.92457 
L 200.627473 194.465562 
L 201.303051 195.484749 
L 202.606258 195.8872 
L 204.119439 196.110125 
L 205.343039 190.637571 
L 206.647655 190.661903 
L 207.923326 188.313022 
L 211.07547 183.882346 
L 212.339018 179.62523 
L 215.700484 174.515677 
L 217.077496 181.152983 
L 220.645518 176.970085 
L 221.707777 141.5822 
L 225.109785 136.807696 
L 226.435578 134.546174 
L 230.260143 130.827872 
L 231.594797 128.798271 
L 235.206391 124.854105 
L 236.549143 123.147654 
L 240.157419 119.916584 
L 241.506418 118.557033 
L 245.108419 115.415427 
L 246.462855 114.100915 
L 249.651618 111.463463 
L 251.010401 110.400316 
L 254.195239 107.853998 
L 255.558338 106.871574 
L 258.53702 104.637907 
L 259.903672 103.792378 
L 262.877642 101.78879 
L 264.247634 101.032985 
L 266.615826 99.853818 
L 267.984827 99.565142 
L 270.550647 98.313113 
L 271.920303 98.213578 
L 274.086308 97.39365 
L 275.46026 97.194743 
L 277.624389 96.531232 
L 278.997297 96.598186 
L 280.761804 96.606663 
L 282.13125 97.04628 
L 283.69862 97.314244 
L 285.071039 97.710234 
L 286.231441 99.213253 
L 287.582158 100.890082 
L 288.729027 103.156767 
L 290.069157 105.362891 
L 290.651538 107.061339 
L 292.026444 107.598093 
L 292.821258 108.44574 
L 294.204102 108.750835 
L 294.216422 110.525123 
L 295.576798 112.040586 
L 295.572642 114.696027 
L 296.929921 116.448125 
L 298.294016 117.895347 
L 299.612161 121.299135 
L 297.427322 127.644572 
L 297.802665 171.67277 
L 296.627053 176.298463 
L 297.880296 181.774054 
L 296.829862 189.145606 
L 298.054551 195.766696 
L 297.953565 202.770298 
L 299.270721 205.32251 
L 299.079807 208.290423 
L 300.656245 200.413717 
L 301.049631 202.632551 
L 302.410035 203.782505 
L 302.622387 205.84957 
L 303.992726 206.720741 
L 304.403953 208.473988 
L 305.779471 209.258162 
L 306.385589 210.853563 
L 307.761655 211.715689 
L 308.370648 213.326754 
L 309.749541 214.181318 
L 310.17178 215.913073 
L 311.556312 216.675274 
L 312.17498 218.184243 
" style="fill:none;stroke:#d62728;stroke-linecap:square;stroke-width:1.5;"/>
   </g>
   <g id="line2d_26">
    <path clip-path="url(#p21840f3c2a)" d="M 191.244005 176.918333 
L 191.481789 178.187498 
L 192.757538 178.537292 
L 192.996272 179.718946 
L 194.274152 180.010739 
L 194.521736 181.53031 
L 195.809736 182.217976 
L 196.268459 183.614161 
L 197.559173 184.316766 
L 198.022854 185.851377 
L 199.318175 186.690014 
L 199.784434 188.229275 
L 201.081739 189.052233 
L 201.547631 190.404663 
L 202.844254 191.023914 
L 203.518783 192.093062 
L 204.818215 192.73515 
L 205.287909 193.953079 
L 206.589944 194.58934 
L 207.47711 195.455301 
L 208.714789 190.783475 
L 209.610183 191.935882 
L 210.875723 188.823073 
L 213.602068 184.908459 
L 214.86689 180.68943 
L 217.595308 176.115741 
L 218.884915 173.287308 
L 223.749813 177.732708 
L 224.854415 142.734261 
L 229.685176 137.265654 
L 231.012026 135.767195 
L 236.237521 131.387185 
L 237.569887 129.835901 
L 242.565275 124.983909 
L 243.904048 123.207347 
L 247.669637 119.648664 
L 249.014587 117.997744 
L 252.572581 114.650634 
L 253.923515 113.05632 
L 257.077062 110.081584 
L 258.433259 108.614966 
L 261.58483 105.666775 
L 262.946948 104.195584 
L 265.501728 101.829024 
L 266.867339 100.594233 
L 269.61781 98.382193 
L 270.987185 97.270799 
L 273.341043 95.602807 
L 274.709954 94.89707 
L 277.059223 93.634334 
L 278.427093 93.266698 
L 280.384072 92.412828 
L 281.754807 92.092024 
L 283.709458 91.490375 
L 285.079241 91.417399 
L 286.642816 91.322971 
L 288.011291 91.490909 
L 289.386476 91.387743 
L 290.762977 91.307438 
L 291.946651 91.421684 
L 293.325738 91.392673 
L 294.3134 91.959277 
L 295.689605 92.228736 
L 296.291659 93.215547 
L 297.668779 93.601604 
L 298.272783 94.669741 
L 299.651479 95.132529 
L 299.867936 96.703923 
L 301.227257 98.126145 
L 301.611355 100.740396 
L 302.956615 102.795235 
L 304.302556 104.802025 
L 305.594911 108.868508 
L 303.610849 115.766444 
L 303.846427 161.183666 
L 302.491437 166.294889 
L 303.720946 172.107337 
L 302.099857 180.365866 
L 303.302407 187.222203 
L 303.765934 193.833302 
L 305.07074 196.507138 
L 305.642293 198.978032 
L 307.236487 191.035093 
L 307.442928 193.495056 
L 308.792915 194.765403 
L 309.011898 196.873336 
L 310.37321 197.833107 
L 310.597974 199.844175 
L 311.964819 200.713714 
L 312.190724 202.79177 
L 313.557526 203.762082 
L 313.786504 205.84045 
L 315.156522 206.79967 
L 315.578525 208.693355 
L 316.951211 209.652165 
L 317.566357 211.355374 
" style="fill:none;stroke:#9467bd;stroke-linecap:square;stroke-width:1.5;"/>
   </g>
  </g>
 </g>
 <defs>
  <clipPath id="p21840f3c2a">
   <rect height="266.112" width="266.112" x="103.104" y="41.472"/>
  </clipPath>
 </defs>
</svg>
