<?xml version="1.0" encoding="utf-8" standalone="no"?>
<!DOCTYPE svg PUBLIC "-//W3C//DTD SVG 1.1//EN"
  "http://www.w3.org/Graphics/SVG/1.1/DTD/svg11.dtd">
<!-- Created with matplotlib (https://matplotlib.org/) -->
<svg height="345.6pt" version="1.1" viewBox="0 0 460.8 345.6" width="460.8pt" xmlns="http://www.w3.org/2000/svg" xmlns:xlink="http://www.w3.org/1999/xlink">
 <metadata>
  <rdf:RDF xmlns:cc="http://creativecommons.org/ns#" xmlns:dc="http://purl.org/dc/elements/1.1/" xmlns:rdf="http://www.w3.org/1999/02/22-rdf-syntax-ns#">
   <cc:Work>
    <dc:type rdf:resource="http://purl.org/dc/dcmitype/StillImage"/>
    <dc:date>2023-12-11T18:43:00.076951</dc:date>
    <dc:format>image/svg+xml</dc:format>
    <dc:creator>
     <cc:Agent>
      <dc:title>Matplotlib v3.3.4, https://matplotlib.org/</dc:title>
     </cc:Agent>
    </dc:creator>
   </cc:Work>
  </rdf:RDF>
 </metadata>
 <defs>
  <style type="text/css">*{stroke-linecap:butt;stroke-linejoin:round;}</style>
 </defs>
 <g id="figure_1">
  <g id="patch_1">
   <path d="M 0 345.6 
L 460.8 345.6 
L 460.8 0 
L 0 0 
z
" style="fill:#ffffff;"/>
  </g>
  <g id="patch_2">
   <path d="M 103.104 307.584 
L 369.216 307.584 
L 369.216 41.472 
L 103.104 41.472 
z
" style="fill:#ffffff;"/>
  </g>
  <g id="pane3d_1">
   <g id="patch_3">
    <path d="M 123.197291 241.969309 
L 211.076164 168.307495 
L 209.854564 62.073991 
L 117.770234 129.272941 
" style="fill:#f2f2f2;opacity:0.5;stroke:#f2f2f2;stroke-linejoin:miter;"/>
   </g>
  </g>
  <g id="pane3d_2">
   <g id="patch_4">
    <path d="M 211.076164 168.307495 
L 352.090401 209.294766 
L 357.122702 99.402171 
L 209.854564 62.073991 
" style="fill:#e6e6e6;opacity:0.5;stroke:#e6e6e6;stroke-linejoin:miter;"/>
   </g>
  </g>
  <g id="pane3d_3">
   <g id="patch_5">
    <path d="M 123.197291 241.969309 
L 272.679269 290.790123 
L 352.090401 209.294766 
L 211.076164 168.307495 
" style="fill:#ececec;opacity:0.5;stroke:#ececec;stroke-linejoin:miter;"/>
   </g>
  </g>
  <g id="axis3d_1">
   <g id="line2d_1">
    <path d="M 123.197291 241.969309 
L 272.679269 290.790123 
" style="fill:none;stroke:#000000;stroke-linecap:square;stroke-width:0.8;"/>
   </g>
   <g id="text_1">
    <!-- Time of the day -->
    <g transform="translate(141.534498 291.453876)rotate(-341.912962)scale(0.1 -0.1)">
     <defs>
      <path d="M -0.296875 72.90625 
L 61.375 72.90625 
L 61.375 64.59375 
L 35.5 64.59375 
L 35.5 0 
L 25.59375 0 
L 25.59375 64.59375 
L -0.296875 64.59375 
z
" id="DejaVuSans-84"/>
      <path d="M 9.421875 54.6875 
L 18.40625 54.6875 
L 18.40625 0 
L 9.421875 0 
z
M 9.421875 75.984375 
L 18.40625 75.984375 
L 18.40625 64.59375 
L 9.421875 64.59375 
z
" id="DejaVuSans-105"/>
      <path d="M 52 44.1875 
Q 55.375 50.25 60.0625 53.125 
Q 64.75 56 71.09375 56 
Q 79.640625 56 84.28125 50.015625 
Q 88.921875 44.046875 88.921875 33.015625 
L 88.921875 0 
L 79.890625 0 
L 79.890625 32.71875 
Q 79.890625 40.578125 77.09375 44.375 
Q 74.3125 48.1875 68.609375 48.1875 
Q 61.625 48.1875 57.5625 43.546875 
Q 53.515625 38.921875 53.515625 30.90625 
L 53.515625 0 
L 44.484375 0 
L 44.484375 32.71875 
Q 44.484375 40.625 41.703125 44.40625 
Q 38.921875 48.1875 33.109375 48.1875 
Q 26.21875 48.1875 22.15625 43.53125 
Q 18.109375 38.875 18.109375 30.90625 
L 18.109375 0 
L 9.078125 0 
L 9.078125 54.6875 
L 18.109375 54.6875 
L 18.109375 46.1875 
Q 21.1875 51.21875 25.484375 53.609375 
Q 29.78125 56 35.6875 56 
Q 41.65625 56 45.828125 52.96875 
Q 50 49.953125 52 44.1875 
z
" id="DejaVuSans-109"/>
      <path d="M 56.203125 29.59375 
L 56.203125 25.203125 
L 14.890625 25.203125 
Q 15.484375 15.921875 20.484375 11.0625 
Q 25.484375 6.203125 34.421875 6.203125 
Q 39.59375 6.203125 44.453125 7.46875 
Q 49.3125 8.734375 54.109375 11.28125 
L 54.109375 2.78125 
Q 49.265625 0.734375 44.1875 -0.34375 
Q 39.109375 -1.421875 33.890625 -1.421875 
Q 20.796875 -1.421875 13.15625 6.1875 
Q 5.515625 13.8125 5.515625 26.8125 
Q 5.515625 40.234375 12.765625 48.109375 
Q 20.015625 56 32.328125 56 
Q 43.359375 56 49.78125 48.890625 
Q 56.203125 41.796875 56.203125 29.59375 
z
M 47.21875 32.234375 
Q 47.125 39.59375 43.09375 43.984375 
Q 39.0625 48.390625 32.421875 48.390625 
Q 24.90625 48.390625 20.390625 44.140625 
Q 15.875 39.890625 15.1875 32.171875 
z
" id="DejaVuSans-101"/>
      <path id="DejaVuSans-32"/>
      <path d="M 30.609375 48.390625 
Q 23.390625 48.390625 19.1875 42.75 
Q 14.984375 37.109375 14.984375 27.296875 
Q 14.984375 17.484375 19.15625 11.84375 
Q 23.34375 6.203125 30.609375 6.203125 
Q 37.796875 6.203125 41.984375 11.859375 
Q 46.1875 17.53125 46.1875 27.296875 
Q 46.1875 37.015625 41.984375 42.703125 
Q 37.796875 48.390625 30.609375 48.390625 
z
M 30.609375 56 
Q 42.328125 56 49.015625 48.375 
Q 55.71875 40.765625 55.71875 27.296875 
Q 55.71875 13.875 49.015625 6.21875 
Q 42.328125 -1.421875 30.609375 -1.421875 
Q 18.84375 -1.421875 12.171875 6.21875 
Q 5.515625 13.875 5.515625 27.296875 
Q 5.515625 40.765625 12.171875 48.375 
Q 18.84375 56 30.609375 56 
z
" id="DejaVuSans-111"/>
      <path d="M 37.109375 75.984375 
L 37.109375 68.5 
L 28.515625 68.5 
Q 23.6875 68.5 21.796875 66.546875 
Q 19.921875 64.59375 19.921875 59.515625 
L 19.921875 54.6875 
L 34.71875 54.6875 
L 34.71875 47.703125 
L 19.921875 47.703125 
L 19.921875 0 
L 10.890625 0 
L 10.890625 47.703125 
L 2.296875 47.703125 
L 2.296875 54.6875 
L 10.890625 54.6875 
L 10.890625 58.5 
Q 10.890625 67.625 15.140625 71.796875 
Q 19.390625 75.984375 28.609375 75.984375 
z
" id="DejaVuSans-102"/>
      <path d="M 18.3125 70.21875 
L 18.3125 54.6875 
L 36.8125 54.6875 
L 36.8125 47.703125 
L 18.3125 47.703125 
L 18.3125 18.015625 
Q 18.3125 11.328125 20.140625 9.421875 
Q 21.96875 7.515625 27.59375 7.515625 
L 36.8125 7.515625 
L 36.8125 0 
L 27.59375 0 
Q 17.1875 0 13.234375 3.875 
Q 9.28125 7.765625 9.28125 18.015625 
L 9.28125 47.703125 
L 2.6875 47.703125 
L 2.6875 54.6875 
L 9.28125 54.6875 
L 9.28125 70.21875 
z
" id="DejaVuSans-116"/>
      <path d="M 54.890625 33.015625 
L 54.890625 0 
L 45.90625 0 
L 45.90625 32.71875 
Q 45.90625 40.484375 42.875 44.328125 
Q 39.84375 48.1875 33.796875 48.1875 
Q 26.515625 48.1875 22.3125 43.546875 
Q 18.109375 38.921875 18.109375 30.90625 
L 18.109375 0 
L 9.078125 0 
L 9.078125 75.984375 
L 18.109375 75.984375 
L 18.109375 46.1875 
Q 21.34375 51.125 25.703125 53.5625 
Q 30.078125 56 35.796875 56 
Q 45.21875 56 50.046875 50.171875 
Q 54.890625 44.34375 54.890625 33.015625 
z
" id="DejaVuSans-104"/>
      <path d="M 45.40625 46.390625 
L 45.40625 75.984375 
L 54.390625 75.984375 
L 54.390625 0 
L 45.40625 0 
L 45.40625 8.203125 
Q 42.578125 3.328125 38.25 0.953125 
Q 33.9375 -1.421875 27.875 -1.421875 
Q 17.96875 -1.421875 11.734375 6.484375 
Q 5.515625 14.40625 5.515625 27.296875 
Q 5.515625 40.1875 11.734375 48.09375 
Q 17.96875 56 27.875 56 
Q 33.9375 56 38.25 53.625 
Q 42.578125 51.265625 45.40625 46.390625 
z
M 14.796875 27.296875 
Q 14.796875 17.390625 18.875 11.75 
Q 22.953125 6.109375 30.078125 6.109375 
Q 37.203125 6.109375 41.296875 11.75 
Q 45.40625 17.390625 45.40625 27.296875 
Q 45.40625 37.203125 41.296875 42.84375 
Q 37.203125 48.484375 30.078125 48.484375 
Q 22.953125 48.484375 18.875 42.84375 
Q 14.796875 37.203125 14.796875 27.296875 
z
" id="DejaVuSans-100"/>
      <path d="M 34.28125 27.484375 
Q 23.390625 27.484375 19.1875 25 
Q 14.984375 22.515625 14.984375 16.5 
Q 14.984375 11.71875 18.140625 8.90625 
Q 21.296875 6.109375 26.703125 6.109375 
Q 34.1875 6.109375 38.703125 11.40625 
Q 43.21875 16.703125 43.21875 25.484375 
L 43.21875 27.484375 
z
M 52.203125 31.203125 
L 52.203125 0 
L 43.21875 0 
L 43.21875 8.296875 
Q 40.140625 3.328125 35.546875 0.953125 
Q 30.953125 -1.421875 24.3125 -1.421875 
Q 15.921875 -1.421875 10.953125 3.296875 
Q 6 8.015625 6 15.921875 
Q 6 25.140625 12.171875 29.828125 
Q 18.359375 34.515625 30.609375 34.515625 
L 43.21875 34.515625 
L 43.21875 35.40625 
Q 43.21875 41.609375 39.140625 45 
Q 35.0625 48.390625 27.6875 48.390625 
Q 23 48.390625 18.546875 47.265625 
Q 14.109375 46.140625 10.015625 43.890625 
L 10.015625 52.203125 
Q 14.9375 54.109375 19.578125 55.046875 
Q 24.21875 56 28.609375 56 
Q 40.484375 56 46.34375 49.84375 
Q 52.203125 43.703125 52.203125 31.203125 
z
" id="DejaVuSans-97"/>
      <path d="M 32.171875 -5.078125 
Q 28.375 -14.84375 24.75 -17.8125 
Q 21.140625 -20.796875 15.09375 -20.796875 
L 7.90625 -20.796875 
L 7.90625 -13.28125 
L 13.1875 -13.28125 
Q 16.890625 -13.28125 18.9375 -11.515625 
Q 21 -9.765625 23.484375 -3.21875 
L 25.09375 0.875 
L 2.984375 54.6875 
L 12.5 54.6875 
L 29.59375 11.921875 
L 46.6875 54.6875 
L 56.203125 54.6875 
z
" id="DejaVuSans-121"/>
     </defs>
     <use xlink:href="#DejaVuSans-84"/>
     <use x="57.958984" xlink:href="#DejaVuSans-105"/>
     <use x="85.742188" xlink:href="#DejaVuSans-109"/>
     <use x="183.154297" xlink:href="#DejaVuSans-101"/>
     <use x="244.677734" xlink:href="#DejaVuSans-32"/>
     <use x="276.464844" xlink:href="#DejaVuSans-111"/>
     <use x="337.646484" xlink:href="#DejaVuSans-102"/>
     <use x="372.851562" xlink:href="#DejaVuSans-32"/>
     <use x="404.638672" xlink:href="#DejaVuSans-116"/>
     <use x="443.847656" xlink:href="#DejaVuSans-104"/>
     <use x="507.226562" xlink:href="#DejaVuSans-101"/>
     <use x="568.75" xlink:href="#DejaVuSans-32"/>
     <use x="600.537109" xlink:href="#DejaVuSans-100"/>
     <use x="664.013672" xlink:href="#DejaVuSans-97"/>
     <use x="725.292969" xlink:href="#DejaVuSans-121"/>
    </g>
   </g>
   <g id="Line3DCollection_1">
    <path d="M 132.250704 244.926154 
L 219.652219 170.800215 
L 218.79322 64.33968 
" style="fill:none;stroke:#b0b0b0;stroke-width:0.8;"/>
    <path d="M 158.726327 253.573092 
L 244.705514 178.082219 
L 244.918927 70.961785 
" style="fill:none;stroke:#b0b0b0;stroke-width:0.8;"/>
    <path d="M 185.713056 262.386958 
L 270.20212 185.493076 
L 271.527037 77.706165 
" style="fill:none;stroke:#b0b0b0;stroke-width:0.8;"/>
    <path d="M 213.225837 271.372632 
L 296.153908 193.036236 
L 298.631037 84.576239 
" style="fill:none;stroke:#b0b0b0;stroke-width:0.8;"/>
    <path d="M 241.280202 280.535187 
L 322.573177 200.715275 
L 326.24492 91.575553 
" style="fill:none;stroke:#b0b0b0;stroke-width:0.8;"/>
   </g>
   <g id="xtick_1">
    <g id="line2d_2">
     <path d="M 133.011792 244.280669 
L 130.725263 246.219892 
" style="fill:none;stroke:#000000;stroke-linecap:square;stroke-width:0.8;"/>
    </g>
    <g id="text_2">
     <!-- 0 -->
     <g transform="translate(121.540405 268.235303)scale(0.1 -0.1)">
      <defs>
       <path d="M 31.78125 66.40625 
Q 24.171875 66.40625 20.328125 58.90625 
Q 16.5 51.421875 16.5 36.375 
Q 16.5 21.390625 20.328125 13.890625 
Q 24.171875 6.390625 31.78125 6.390625 
Q 39.453125 6.390625 43.28125 13.890625 
Q 47.125 21.390625 47.125 36.375 
Q 47.125 51.421875 43.28125 58.90625 
Q 39.453125 66.40625 31.78125 66.40625 
z
M 31.78125 74.21875 
Q 44.046875 74.21875 50.515625 64.515625 
Q 56.984375 54.828125 56.984375 36.375 
Q 56.984375 17.96875 50.515625 8.265625 
Q 44.046875 -1.421875 31.78125 -1.421875 
Q 19.53125 -1.421875 13.0625 8.265625 
Q 6.59375 17.96875 6.59375 36.375 
Q 6.59375 54.828125 13.0625 64.515625 
Q 19.53125 74.21875 31.78125 74.21875 
z
" id="DejaVuSans-48"/>
      </defs>
      <use xlink:href="#DejaVuSans-48"/>
     </g>
    </g>
   </g>
   <g id="xtick_2">
    <g id="line2d_3">
     <path d="M 159.47561 252.915211 
L 157.224514 254.891704 
" style="fill:none;stroke:#000000;stroke-linecap:square;stroke-width:0.8;"/>
    </g>
    <g id="text_3">
     <!-- 20 -->
     <g transform="translate(144.86189 277.065452)scale(0.1 -0.1)">
      <defs>
       <path d="M 19.1875 8.296875 
L 53.609375 8.296875 
L 53.609375 0 
L 7.328125 0 
L 7.328125 8.296875 
Q 12.9375 14.109375 22.625 23.890625 
Q 32.328125 33.6875 34.8125 36.53125 
Q 39.546875 41.84375 41.421875 45.53125 
Q 43.3125 49.21875 43.3125 52.78125 
Q 43.3125 58.59375 39.234375 62.25 
Q 35.15625 65.921875 28.609375 65.921875 
Q 23.96875 65.921875 18.8125 64.3125 
Q 13.671875 62.703125 7.8125 59.421875 
L 7.8125 69.390625 
Q 13.765625 71.78125 18.9375 73 
Q 24.125 74.21875 28.421875 74.21875 
Q 39.75 74.21875 46.484375 68.546875 
Q 53.21875 62.890625 53.21875 53.421875 
Q 53.21875 48.921875 51.53125 44.890625 
Q 49.859375 40.875 45.40625 35.40625 
Q 44.1875 33.984375 37.640625 27.21875 
Q 31.109375 20.453125 19.1875 8.296875 
z
" id="DejaVuSans-50"/>
      </defs>
      <use xlink:href="#DejaVuSans-50"/>
      <use x="63.623047" xlink:href="#DejaVuSans-48"/>
     </g>
    </g>
   </g>
   <g id="xtick_3">
    <g id="line2d_4">
     <path d="M 186.449936 261.71632 
L 184.236074 263.731167 
" style="fill:none;stroke:#000000;stroke-linecap:square;stroke-width:0.8;"/>
    </g>
    <g id="text_4">
     <!-- 40 -->
     <g transform="translate(171.878194 286.066712)scale(0.1 -0.1)">
      <defs>
       <path d="M 37.796875 64.3125 
L 12.890625 25.390625 
L 37.796875 25.390625 
z
M 35.203125 72.90625 
L 47.609375 72.90625 
L 47.609375 25.390625 
L 58.015625 25.390625 
L 58.015625 17.1875 
L 47.609375 17.1875 
L 47.609375 0 
L 37.796875 0 
L 37.796875 17.1875 
L 4.890625 17.1875 
L 4.890625 26.703125 
z
" id="DejaVuSans-52"/>
      </defs>
      <use xlink:href="#DejaVuSans-52"/>
      <use x="63.623047" xlink:href="#DejaVuSans-48"/>
     </g>
    </g>
   </g>
   <g id="xtick_4">
    <g id="line2d_5">
     <path d="M 213.949685 270.688863 
L 211.774943 272.74319 
" style="fill:none;stroke:#000000;stroke-linecap:square;stroke-width:0.8;"/>
    </g>
    <g id="text_5">
     <!-- 60 -->
     <g transform="translate(199.423141 295.244105)scale(0.1 -0.1)">
      <defs>
       <path d="M 33.015625 40.375 
Q 26.375 40.375 22.484375 35.828125 
Q 18.609375 31.296875 18.609375 23.390625 
Q 18.609375 15.53125 22.484375 10.953125 
Q 26.375 6.390625 33.015625 6.390625 
Q 39.65625 6.390625 43.53125 10.953125 
Q 47.40625 15.53125 47.40625 23.390625 
Q 47.40625 31.296875 43.53125 35.828125 
Q 39.65625 40.375 33.015625 40.375 
z
M 52.59375 71.296875 
L 52.59375 62.3125 
Q 48.875 64.0625 45.09375 64.984375 
Q 41.3125 65.921875 37.59375 65.921875 
Q 27.828125 65.921875 22.671875 59.328125 
Q 17.53125 52.734375 16.796875 39.40625 
Q 19.671875 43.65625 24.015625 45.921875 
Q 28.375 48.1875 33.59375 48.1875 
Q 44.578125 48.1875 50.953125 41.515625 
Q 57.328125 34.859375 57.328125 23.390625 
Q 57.328125 12.15625 50.6875 5.359375 
Q 44.046875 -1.421875 33.015625 -1.421875 
Q 20.359375 -1.421875 13.671875 8.265625 
Q 6.984375 17.96875 6.984375 36.375 
Q 6.984375 53.65625 15.1875 63.9375 
Q 23.390625 74.21875 37.203125 74.21875 
Q 40.921875 74.21875 44.703125 73.484375 
Q 48.484375 72.75 52.59375 71.296875 
z
" id="DejaVuSans-54"/>
      </defs>
      <use xlink:href="#DejaVuSans-54"/>
      <use x="63.623047" xlink:href="#DejaVuSans-48"/>
     </g>
    </g>
   </g>
   <g id="xtick_5">
    <g id="line2d_6">
     <path d="M 241.99036 279.837897 
L 239.856717 281.932878 
" style="fill:none;stroke:#000000;stroke-linecap:square;stroke-width:0.8;"/>
    </g>
    <g id="text_6">
     <!-- 80 -->
     <g transform="translate(227.5124 304.602851)scale(0.1 -0.1)">
      <defs>
       <path d="M 31.78125 34.625 
Q 24.75 34.625 20.71875 30.859375 
Q 16.703125 27.09375 16.703125 20.515625 
Q 16.703125 13.921875 20.71875 10.15625 
Q 24.75 6.390625 31.78125 6.390625 
Q 38.8125 6.390625 42.859375 10.171875 
Q 46.921875 13.96875 46.921875 20.515625 
Q 46.921875 27.09375 42.890625 30.859375 
Q 38.875 34.625 31.78125 34.625 
z
M 21.921875 38.8125 
Q 15.578125 40.375 12.03125 44.71875 
Q 8.5 49.078125 8.5 55.328125 
Q 8.5 64.0625 14.71875 69.140625 
Q 20.953125 74.21875 31.78125 74.21875 
Q 42.671875 74.21875 48.875 69.140625 
Q 55.078125 64.0625 55.078125 55.328125 
Q 55.078125 49.078125 51.53125 44.71875 
Q 48 40.375 41.703125 38.8125 
Q 48.828125 37.15625 52.796875 32.3125 
Q 56.78125 27.484375 56.78125 20.515625 
Q 56.78125 9.90625 50.3125 4.234375 
Q 43.84375 -1.421875 31.78125 -1.421875 
Q 19.734375 -1.421875 13.25 4.234375 
Q 6.78125 9.90625 6.78125 20.515625 
Q 6.78125 27.484375 10.78125 32.3125 
Q 14.796875 37.15625 21.921875 38.8125 
z
M 18.3125 54.390625 
Q 18.3125 48.734375 21.84375 45.5625 
Q 25.390625 42.390625 31.78125 42.390625 
Q 38.140625 42.390625 41.71875 45.5625 
Q 45.3125 48.734375 45.3125 54.390625 
Q 45.3125 60.0625 41.71875 63.234375 
Q 38.140625 66.40625 31.78125 66.40625 
Q 25.390625 66.40625 21.84375 63.234375 
Q 18.3125 60.0625 18.3125 54.390625 
z
" id="DejaVuSans-56"/>
      </defs>
      <use xlink:href="#DejaVuSans-56"/>
      <use x="63.623047" xlink:href="#DejaVuSans-48"/>
     </g>
    </g>
   </g>
  </g>
  <g id="axis3d_2">
   <g id="line2d_7">
    <path d="M 352.090401 209.294766 
L 272.679269 290.790123 
" style="fill:none;stroke:#000000;stroke-linecap:square;stroke-width:0.8;"/>
   </g>
   <g id="text_7">
    <!-- Temperature(℃) -->
    <g transform="translate(314.365301 307.653229)rotate(-45.742112)scale(0.1 -0.1)">
     <defs>
      <path d="M 18.109375 8.203125 
L 18.109375 -20.796875 
L 9.078125 -20.796875 
L 9.078125 54.6875 
L 18.109375 54.6875 
L 18.109375 46.390625 
Q 20.953125 51.265625 25.265625 53.625 
Q 29.59375 56 35.59375 56 
Q 45.5625 56 51.78125 48.09375 
Q 58.015625 40.1875 58.015625 27.296875 
Q 58.015625 14.40625 51.78125 6.484375 
Q 45.5625 -1.421875 35.59375 -1.421875 
Q 29.59375 -1.421875 25.265625 0.953125 
Q 20.953125 3.328125 18.109375 8.203125 
z
M 48.6875 27.296875 
Q 48.6875 37.203125 44.609375 42.84375 
Q 40.53125 48.484375 33.40625 48.484375 
Q 26.265625 48.484375 22.1875 42.84375 
Q 18.109375 37.203125 18.109375 27.296875 
Q 18.109375 17.390625 22.1875 11.75 
Q 26.265625 6.109375 33.40625 6.109375 
Q 40.53125 6.109375 44.609375 11.75 
Q 48.6875 17.390625 48.6875 27.296875 
z
" id="DejaVuSans-112"/>
      <path d="M 41.109375 46.296875 
Q 39.59375 47.171875 37.8125 47.578125 
Q 36.03125 48 33.890625 48 
Q 26.265625 48 22.1875 43.046875 
Q 18.109375 38.09375 18.109375 28.8125 
L 18.109375 0 
L 9.078125 0 
L 9.078125 54.6875 
L 18.109375 54.6875 
L 18.109375 46.1875 
Q 20.953125 51.171875 25.484375 53.578125 
Q 30.03125 56 36.53125 56 
Q 37.453125 56 38.578125 55.875 
Q 39.703125 55.765625 41.0625 55.515625 
z
" id="DejaVuSans-114"/>
      <path d="M 8.5 21.578125 
L 8.5 54.6875 
L 17.484375 54.6875 
L 17.484375 21.921875 
Q 17.484375 14.15625 20.5 10.265625 
Q 23.53125 6.390625 29.59375 6.390625 
Q 36.859375 6.390625 41.078125 11.03125 
Q 45.3125 15.671875 45.3125 23.6875 
L 45.3125 54.6875 
L 54.296875 54.6875 
L 54.296875 0 
L 45.3125 0 
L 45.3125 8.40625 
Q 42.046875 3.421875 37.71875 1 
Q 33.40625 -1.421875 27.6875 -1.421875 
Q 18.265625 -1.421875 13.375 4.4375 
Q 8.5 10.296875 8.5 21.578125 
z
M 31.109375 56 
z
" id="DejaVuSans-117"/>
      <path d="M 31 75.875 
Q 24.46875 64.65625 21.28125 53.65625 
Q 18.109375 42.671875 18.109375 31.390625 
Q 18.109375 20.125 21.3125 9.0625 
Q 24.515625 -2 31 -13.1875 
L 23.1875 -13.1875 
Q 15.875 -1.703125 12.234375 9.375 
Q 8.59375 20.453125 8.59375 31.390625 
Q 8.59375 42.28125 12.203125 53.3125 
Q 15.828125 64.359375 23.1875 75.875 
z
" id="DejaVuSans-40"/>
      <path d="M 25 67.921875 
Q 21.09375 67.921875 18.40625 65.203125 
Q 15.71875 62.5 15.71875 58.59375 
Q 15.71875 54.734375 18.40625 52.078125 
Q 21.09375 49.421875 25 49.421875 
Q 28.90625 49.421875 31.59375 52.078125 
Q 34.28125 54.734375 34.28125 58.59375 
Q 34.28125 62.453125 31.5625 65.1875 
Q 28.859375 67.921875 25 67.921875 
z
M 25 74.21875 
Q 28.125 74.21875 31 73.015625 
Q 33.890625 71.828125 35.984375 69.578125 
Q 38.234375 67.390625 39.359375 64.59375 
Q 40.484375 61.8125 40.484375 58.59375 
Q 40.484375 52.15625 35.96875 47.6875 
Q 31.453125 43.21875 24.90625 43.21875 
Q 18.3125 43.21875 13.90625 47.609375 
Q 9.515625 52 9.515625 58.59375 
Q 9.515625 65.140625 14 69.671875 
Q 18.5 74.21875 25 74.21875 
z
M 105.28125 67.28125 
L 105.28125 56.890625 
Q 100.296875 61.53125 94.65625 63.8125 
Q 89.015625 66.109375 82.671875 66.109375 
Q 70.171875 66.109375 63.53125 58.46875 
Q 56.890625 50.828125 56.890625 36.375 
Q 56.890625 21.96875 63.53125 14.328125 
Q 70.171875 6.6875 82.671875 6.6875 
Q 89.015625 6.6875 94.65625 8.984375 
Q 100.296875 11.28125 105.28125 15.921875 
L 105.28125 5.609375 
Q 100.109375 2.09375 94.3125 0.328125 
Q 88.53125 -1.421875 82.09375 -1.421875 
Q 65.53125 -1.421875 56 8.703125 
Q 46.484375 18.84375 46.484375 36.375 
Q 46.484375 53.953125 56 64.078125 
Q 65.53125 74.21875 82.09375 74.21875 
Q 88.625 74.21875 94.40625 72.484375 
Q 100.203125 70.75 105.28125 67.28125 
z
" id="DejaVuSans-8451"/>
      <path d="M 8.015625 75.875 
L 15.828125 75.875 
Q 23.140625 64.359375 26.78125 53.3125 
Q 30.421875 42.28125 30.421875 31.390625 
Q 30.421875 20.453125 26.78125 9.375 
Q 23.140625 -1.703125 15.828125 -13.1875 
L 8.015625 -13.1875 
Q 14.5 -2 17.703125 9.0625 
Q 20.90625 20.125 20.90625 31.390625 
Q 20.90625 42.671875 17.703125 53.65625 
Q 14.5 64.65625 8.015625 75.875 
z
" id="DejaVuSans-41"/>
     </defs>
     <use xlink:href="#DejaVuSans-84"/>
     <use x="44.083984" xlink:href="#DejaVuSans-101"/>
     <use x="105.607422" xlink:href="#DejaVuSans-109"/>
     <use x="203.019531" xlink:href="#DejaVuSans-112"/>
     <use x="266.496094" xlink:href="#DejaVuSans-101"/>
     <use x="328.019531" xlink:href="#DejaVuSans-114"/>
     <use x="369.132812" xlink:href="#DejaVuSans-97"/>
     <use x="430.412109" xlink:href="#DejaVuSans-116"/>
     <use x="469.621094" xlink:href="#DejaVuSans-117"/>
     <use x="533" xlink:href="#DejaVuSans-114"/>
     <use x="571.863281" xlink:href="#DejaVuSans-101"/>
     <use x="633.386719" xlink:href="#DejaVuSans-40"/>
     <use x="672.400391" xlink:href="#DejaVuSans-8451"/>
     <use x="784.705078" xlink:href="#DejaVuSans-41"/>
    </g>
   </g>
   <g id="Line3DCollection_2">
    <path d="M 121.464997 126.576671 
L 126.710487 239.024478 
L 275.867427 287.518288 
" style="fill:none;stroke:#b0b0b0;stroke-width:0.8;"/>
    <path d="M 133.402162 117.865471 
L 138.068344 229.504097 
L 286.166755 276.948644 
" style="fill:none;stroke:#b0b0b0;stroke-width:0.8;"/>
    <path d="M 145.077673 109.345216 
L 149.188053 220.183337 
L 296.238731 266.612319 
" style="fill:none;stroke:#b0b0b0;stroke-width:0.8;"/>
    <path d="M 156.500038 101.009694 
L 160.077026 211.055984 
L 306.090803 256.50167 
" style="fill:none;stroke:#b0b0b0;stroke-width:0.8;"/>
    <path d="M 167.677403 92.852962 
L 170.742371 202.11608 
L 315.730094 246.609386 
" style="fill:none;stroke:#b0b0b0;stroke-width:0.8;"/>
    <path d="M 178.617567 84.869329 
L 181.190907 193.357911 
L 325.163423 236.928469 
" style="fill:none;stroke:#b0b0b0;stroke-width:0.8;"/>
    <path d="M 189.328 77.053342 
L 191.429178 184.775989 
L 334.397323 227.452216 
" style="fill:none;stroke:#b0b0b0;stroke-width:0.8;"/>
    <path d="M 199.815864 69.399777 
L 201.463468 176.365048 
L 343.438052 218.174205 
" style="fill:none;stroke:#b0b0b0;stroke-width:0.8;"/>
   </g>
   <g id="xtick_6">
    <g id="line2d_8">
     <path d="M 274.610318 287.109577 
L 278.384906 288.336769 
" style="fill:none;stroke:#000000;stroke-linecap:square;stroke-width:0.8;"/>
    </g>
    <g id="text_8">
     <!-- 5 -->
     <g transform="translate(285.59772 308.575092)scale(0.1 -0.1)">
      <defs>
       <path d="M 10.796875 72.90625 
L 49.515625 72.90625 
L 49.515625 64.59375 
L 19.828125 64.59375 
L 19.828125 46.734375 
Q 21.96875 47.46875 24.109375 47.828125 
Q 26.265625 48.1875 28.421875 48.1875 
Q 40.625 48.1875 47.75 41.5 
Q 54.890625 34.8125 54.890625 23.390625 
Q 54.890625 11.625 47.5625 5.09375 
Q 40.234375 -1.421875 26.90625 -1.421875 
Q 22.3125 -1.421875 17.546875 -0.640625 
Q 12.796875 0.140625 7.71875 1.703125 
L 7.71875 11.625 
Q 12.109375 9.234375 16.796875 8.0625 
Q 21.484375 6.890625 26.703125 6.890625 
Q 35.15625 6.890625 40.078125 11.328125 
Q 45.015625 15.765625 45.015625 23.390625 
Q 45.015625 31 40.078125 35.4375 
Q 35.15625 39.890625 26.703125 39.890625 
Q 22.75 39.890625 18.8125 39.015625 
Q 14.890625 38.140625 10.796875 36.28125 
z
" id="DejaVuSans-53"/>
      </defs>
      <use xlink:href="#DejaVuSans-53"/>
     </g>
    </g>
   </g>
   <g id="xtick_7">
    <g id="line2d_9">
     <path d="M 284.919274 276.549004 
L 288.664915 277.74895 
" style="fill:none;stroke:#000000;stroke-linecap:square;stroke-width:0.8;"/>
    </g>
    <g id="text_9">
     <!-- 10 -->
     <g transform="translate(292.577727 297.848885)scale(0.1 -0.1)">
      <defs>
       <path d="M 12.40625 8.296875 
L 28.515625 8.296875 
L 28.515625 63.921875 
L 10.984375 60.40625 
L 10.984375 69.390625 
L 28.421875 72.90625 
L 38.28125 72.90625 
L 38.28125 8.296875 
L 54.390625 8.296875 
L 54.390625 0 
L 12.40625 0 
z
" id="DejaVuSans-49"/>
      </defs>
      <use xlink:href="#DejaVuSans-49"/>
      <use x="63.623047" xlink:href="#DejaVuSans-48"/>
     </g>
    </g>
   </g>
   <g id="xtick_8">
    <g id="line2d_10">
     <path d="M 295.000762 266.221449 
L 298.717807 267.395049 
" style="fill:none;stroke:#000000;stroke-linecap:square;stroke-width:0.8;"/>
    </g>
    <g id="text_10">
     <!-- 15 -->
     <g transform="translate(302.514551 287.359592)scale(0.1 -0.1)">
      <use xlink:href="#DejaVuSans-49"/>
      <use x="63.623047" xlink:href="#DejaVuSans-53"/>
     </g>
    </g>
   </g>
   <g id="xtick_9">
    <g id="line2d_11">
     <path d="M 304.86223 256.119286 
L 308.551028 257.267396 
" style="fill:none;stroke:#000000;stroke-linecap:square;stroke-width:0.8;"/>
    </g>
    <g id="text_11">
     <!-- 20 -->
     <g transform="translate(312.234294 277.099448)scale(0.1 -0.1)">
      <use xlink:href="#DejaVuSans-50"/>
      <use x="63.623047" xlink:href="#DejaVuSans-48"/>
     </g>
    </g>
   </g>
   <g id="xtick_10">
    <g id="line2d_12">
     <path d="M 314.510803 246.235214 
L 318.1717 247.358657 
" style="fill:none;stroke:#000000;stroke-linecap:square;stroke-width:0.8;"/>
    </g>
    <g id="text_12">
     <!-- 25 -->
     <g transform="translate(321.743994 267.061025)scale(0.1 -0.1)">
      <use xlink:href="#DejaVuSans-50"/>
      <use x="63.623047" xlink:href="#DejaVuSans-53"/>
     </g>
    </g>
   </g>
   <g id="xtick_11">
    <g id="line2d_13">
     <path d="M 323.9533 236.562248 
L 327.586641 237.66181 
" style="fill:none;stroke:#000000;stroke-linecap:square;stroke-width:0.8;"/>
    </g>
    <g id="text_13">
     <!-- 30 -->
     <g transform="translate(331.050386 257.237213)scale(0.1 -0.1)">
      <defs>
       <path d="M 40.578125 39.3125 
Q 47.65625 37.796875 51.625 33 
Q 55.609375 28.21875 55.609375 21.1875 
Q 55.609375 10.40625 48.1875 4.484375 
Q 40.765625 -1.421875 27.09375 -1.421875 
Q 22.515625 -1.421875 17.65625 -0.515625 
Q 12.796875 0.390625 7.625 2.203125 
L 7.625 11.71875 
Q 11.71875 9.328125 16.59375 8.109375 
Q 21.484375 6.890625 26.8125 6.890625 
Q 36.078125 6.890625 40.9375 10.546875 
Q 45.796875 14.203125 45.796875 21.1875 
Q 45.796875 27.640625 41.28125 31.265625 
Q 36.765625 34.90625 28.71875 34.90625 
L 20.21875 34.90625 
L 20.21875 43.015625 
L 29.109375 43.015625 
Q 36.375 43.015625 40.234375 45.921875 
Q 44.09375 48.828125 44.09375 54.296875 
Q 44.09375 59.90625 40.109375 62.90625 
Q 36.140625 65.921875 28.71875 65.921875 
Q 24.65625 65.921875 20.015625 65.03125 
Q 15.375 64.15625 9.8125 62.3125 
L 9.8125 71.09375 
Q 15.4375 72.65625 20.34375 73.4375 
Q 25.25 74.21875 29.59375 74.21875 
Q 40.828125 74.21875 47.359375 69.109375 
Q 53.90625 64.015625 53.90625 55.328125 
Q 53.90625 49.265625 50.4375 45.09375 
Q 46.96875 40.921875 40.578125 39.3125 
z
" id="DejaVuSans-51"/>
      </defs>
      <use xlink:href="#DejaVuSans-51"/>
      <use x="63.623047" xlink:href="#DejaVuSans-48"/>
     </g>
    </g>
   </g>
   <g id="xtick_12">
    <g id="line2d_14">
     <path d="M 333.196254 227.093695 
L 336.802379 228.170129 
" style="fill:none;stroke:#000000;stroke-linecap:square;stroke-width:0.8;"/>
    </g>
    <g id="text_14">
     <!-- 35 -->
     <g transform="translate(340.159922 247.621203)scale(0.1 -0.1)">
      <use xlink:href="#DejaVuSans-51"/>
      <use x="63.623047" xlink:href="#DejaVuSans-53"/>
     </g>
    </g>
   </g>
   <g id="xtick_13">
    <g id="line2d_15">
     <path d="M 342.245924 217.823143 
L 345.825171 218.877172 
" style="fill:none;stroke:#000000;stroke-linecap:square;stroke-width:0.8;"/>
    </g>
    <g id="text_15">
     <!-- 40 -->
     <g transform="translate(349.078781 238.20647)scale(0.1 -0.1)">
      <use xlink:href="#DejaVuSans-52"/>
      <use x="63.623047" xlink:href="#DejaVuSans-48"/>
     </g>
    </g>
   </g>
  </g>
  <g id="axis3d_3">
   <g id="line2d_16">
    <path d="M 352.090401 209.294766 
L 357.122702 99.402171 
" style="fill:none;stroke:#000000;stroke-linecap:square;stroke-width:0.8;"/>
   </g>
   <g id="text_16">
    <!-- Load -->
    <g transform="translate(382.931136 152.902279)scale(0.1 -0.1)">
     <defs>
      <path d="M 9.8125 72.90625 
L 19.671875 72.90625 
L 19.671875 8.296875 
L 55.171875 8.296875 
L 55.171875 0 
L 9.8125 0 
z
" id="DejaVuSans-76"/>
     </defs>
     <use xlink:href="#DejaVuSans-76"/>
     <use x="53.962891" xlink:href="#DejaVuSans-111"/>
     <use x="115.144531" xlink:href="#DejaVuSans-97"/>
     <use x="176.423828" xlink:href="#DejaVuSans-100"/>
    </g>
   </g>
   <g id="Line3DCollection_3">
    <path d="M 352.267483 205.42773 
L 211.03309 164.561598 
L 123.006628 238.010056 
" style="fill:none;stroke:#b0b0b0;stroke-width:0.8;"/>
    <path d="M 353.114726 186.92612 
L 210.827089 146.647277 
L 122.094096 219.060744 
" style="fill:none;stroke:#b0b0b0;stroke-width:0.8;"/>
    <path d="M 353.974825 168.143751 
L 210.618113 128.474138 
L 121.167187 199.812877 
" style="fill:none;stroke:#b0b0b0;stroke-width:0.8;"/>
    <path d="M 354.848076 149.074183 
L 210.406095 110.036531 
L 120.225558 180.259343 
" style="fill:none;stroke:#b0b0b0;stroke-width:0.8;"/>
    <path d="M 355.734782 129.710779 
L 210.190969 91.328642 
L 119.268856 160.392803 
" style="fill:none;stroke:#b0b0b0;stroke-width:0.8;"/>
    <path d="M 356.635258 110.046694 
L 209.972666 72.344482 
L 118.296716 140.20568 
" style="fill:none;stroke:#b0b0b0;stroke-width:0.8;"/>
   </g>
   <g id="xtick_14">
    <g id="line2d_17">
     <path d="M 351.08205 205.084725 
L 354.641173 206.114556 
" style="fill:none;stroke:#000000;stroke-linecap:square;stroke-width:0.8;"/>
    </g>
    <g id="text_17">
     <!-- 5 -->
     <g transform="translate(367.363022 210.428688)scale(0.1 -0.1)">
      <use xlink:href="#DejaVuSans-53"/>
     </g>
    </g>
   </g>
   <g id="xtick_15">
    <g id="line2d_18">
     <path d="M 351.920031 186.587925 
L 355.506982 187.603321 
" style="fill:none;stroke:#000000;stroke-linecap:square;stroke-width:0.8;"/>
    </g>
    <g id="text_18">
     <!-- 10 -->
     <g transform="translate(365.163664 191.963554)scale(0.1 -0.1)">
      <use xlink:href="#DejaVuSans-49"/>
      <use x="63.623047" xlink:href="#DejaVuSans-48"/>
     </g>
    </g>
   </g>
   <g id="xtick_16">
    <g id="line2d_19">
     <path d="M 352.770723 167.810552 
L 356.385941 168.810954 
" style="fill:none;stroke:#000000;stroke-linecap:square;stroke-width:0.8;"/>
    </g>
    <g id="text_19">
     <!-- 15 -->
     <g transform="translate(366.16041 173.219068)scale(0.1 -0.1)">
      <use xlink:href="#DejaVuSans-49"/>
      <use x="63.623047" xlink:href="#DejaVuSans-53"/>
     </g>
    </g>
   </g>
   <g id="xtick_17">
    <g id="line2d_20">
     <path d="M 353.634418 148.746173 
L 357.27835 149.731002 
" style="fill:none;stroke:#000000;stroke-linecap:square;stroke-width:0.8;"/>
    </g>
    <g id="text_20">
     <!-- 20 -->
     <g transform="translate(367.172351 154.188843)scale(0.1 -0.1)">
      <use xlink:href="#DejaVuSans-50"/>
      <use x="63.623047" xlink:href="#DejaVuSans-48"/>
     </g>
    </g>
   </g>
   <g id="xtick_18">
    <g id="line2d_21">
     <path d="M 354.511415 129.388158 
L 358.184521 130.356813 
" style="fill:none;stroke:#000000;stroke-linecap:square;stroke-width:0.8;"/>
    </g>
    <g id="text_21">
     <!-- 25 -->
     <g transform="translate(368.199837 134.866296)scale(0.1 -0.1)">
      <use xlink:href="#DejaVuSans-50"/>
      <use x="63.623047" xlink:href="#DejaVuSans-53"/>
     </g>
    </g>
   </g>
   <g id="xtick_19">
    <g id="line2d_22">
     <path d="M 355.402025 109.72967 
L 359.104775 110.681527 
" style="fill:none;stroke:#000000;stroke-linecap:square;stroke-width:0.8;"/>
    </g>
    <g id="text_22">
     <!-- 30 -->
     <g transform="translate(369.243228 115.244638)scale(0.1 -0.1)">
      <use xlink:href="#DejaVuSans-51"/>
      <use x="63.623047" xlink:href="#DejaVuSans-48"/>
     </g>
    </g>
   </g>
  </g>
  <g id="axes_1">
   <g id="line2d_23">
    <path clip-path="url(#pf06e70d713)" d="M 139.460874 232.118814 
L 140.658348 232.672758 
L 142.184073 233.184482 
L 143.547172 233.717903 
L 144.995998 234.02441 
L 146.563268 234.347903 
L 148.104279 234.577874 
L 149.64748 234.845594 
L 151.123812 235.171193 
L 152.578534 235.516255 
L 154.077864 235.785338 
L 155.531856 236.055499 
L 156.919558 236.383762 
L 158.41803 236.540355 
L 159.822976 236.623569 
L 161.11494 236.728119 
L 162.314215 236.759229 
L 163.505872 236.488105 
L 164.620869 235.896267 
L 165.658527 234.944324 
L 166.94947 233.149501 
L 168.59091 230.659511 
L 170.537338 227.47375 
L 172.626281 223.496299 
L 174.561545 218.703182 
L 176.143174 213.216085 
L 177.317694 207.579475 
L 178.190907 202.408424 
L 178.893339 198.432489 
L 179.516036 195.707467 
L 180.372795 193.941907 
L 181.297767 192.961467 
L 182.354309 192.555963 
L 183.489303 192.449093 
L 184.65711 192.67977 
L 185.897171 192.972817 
L 187.164108 193.366299 
L 188.456056 193.780947 
L 189.793825 194.118279 
L 191.088928 194.533883 
L 192.453087 194.892706 
L 193.841944 195.272565 
L 195.23293 195.69258 
L 196.693258 196.095338 
L 198.065838 196.614888 
L 199.441043 197.214538 
L 200.818743 197.89434 
L 202.242276 198.536234 
L 203.68977 199.199161 
L 205.094772 199.980721 
L 206.434484 200.860563 
L 207.775264 201.741107 
L 209.249965 202.466363 
L 210.747217 203.132831 
L 212.333503 203.682258 
L 213.854446 204.32996 
L 215.246283 205.373299 
L 216.532214 206.912567 
L 217.826185 209.287534 
L 219.175566 213.011651 
L 220.778611 218.332605 
L 222.696411 225.402755 
L 225.178726 233.749104 
L 228.072559 241.974193 
L 230.631772 248.21409 
L 231.92799 252.209871 
L 232.150385 255.295001 
L 232.285741 257.816332 
L 232.784274 259.653386 
L 233.668722 260.935505 
L 234.789428 261.726293 
L 235.89024 262.423524 
L 236.992802 263.083467 
L 238.225269 263.467536 
L 239.480957 263.754696 
L 240.653232 264.124592 
L 241.827464 264.57218 
L 243.088831 265.015099 
L 244.309231 265.577083 
L 245.552133 266.350675 
L 246.945229 267.057395 
L 248.360456 267.821138 
L 249.755325 268.644776 
L 251.236199 269.347307 
L 252.760284 270.00865 
L 254.24262 270.750548 
L 255.768783 271.335432 
L 257.423722 271.602579 
L 258.952498 272.072233 
L 260.502643 272.598502 
L 262.139425 272.848462 
L 263.904009 272.857296 
L 265.330657 273.548318 
L 266.807686 273.541361 
L 268.39241 273.313666 
L 270.033666 273.64166 
" style="fill:none;stroke:#1f77b4;stroke-linecap:square;stroke-width:1.5;"/>
   </g>
   <g id="line2d_24">
    <path clip-path="url(#pf06e70d713)" d="M 150.477987 223.268093 
L 151.753904 223.624144 
L 153.171141 224.054651 
L 154.501772 224.597977 
L 155.807381 225.048443 
L 157.114171 225.499316 
L 158.377842 225.988307 
L 159.577585 226.571811 
L 160.752867 227.062612 
L 161.949309 227.46023 
L 163.143704 227.745991 
L 164.335051 227.882231 
L 165.587534 227.736728 
L 166.877079 227.252706 
L 168.381701 226.315032 
L 170.073978 224.753763 
L 171.974202 222.473254 
L 173.949892 219.547316 
L 175.930269 215.802109 
L 177.692646 211.228618 
L 179.060196 205.848973 
L 180.103087 199.741519 
L 180.929038 193.662956 
L 181.623942 188.447763 
L 182.311765 184.640055 
L 183.034096 182.142919 
L 183.852451 180.718055 
L 184.735933 180.03813 
L 185.791114 179.817872 
L 187.032084 179.685771 
L 188.324635 179.753196 
L 189.665946 179.902113 
L 190.923019 180.283373 
L 192.203947 180.64656 
L 193.510901 181.110215 
L 194.841502 181.555779 
L 196.176294 182.160039 
L 197.512333 182.764864 
L 198.918658 183.472516 
L 200.281693 184.218029 
L 201.669082 185.024532 
L 203.035891 185.889872 
L 204.403613 186.755789 
L 205.728191 187.659871 
L 207.141794 188.489356 
L 208.579191 189.379601 
L 209.977173 190.62441 
L 211.139877 192.551963 
L 212.246138 195.326999 
L 213.36749 199.520447 
L 214.550425 205.554969 
L 216.1184 213.196642 
L 218.427121 221.766529 
L 221.559489 230.390886 
L 224.88343 237.188148 
L 226.786298 241.596365 
L 227.15016 244.867469 
L 227.044527 247.744246 
L 227.318782 249.968873 
L 227.995585 251.555078 
L 228.927596 252.753056 
L 229.881676 253.780995 
L 231.006801 254.612452 
L 232.154282 255.310931 
L 233.388074 255.930083 
L 234.707853 256.393502 
L 236.029061 256.819381 
L 237.330682 257.265894 
L 238.633907 257.789135 
L 239.896446 258.315241 
L 241.20275 258.763462 
L 242.531688 259.191993 
L 243.883146 259.638924 
L 245.25718 260.027901 
L 246.716687 260.336136 
L 248.198481 260.624346 
L 249.681229 260.989209 
L 251.186076 261.334026 
L 252.75474 261.618057 
L 254.324371 261.902262 
L 255.874132 262.207016 
L 257.466258 262.50944 
L 259.038774 262.79418 
L 260.591839 263.061252 
L 262.124543 263.425461 
L 263.699678 263.749035 
L 265.193865 264.07806 
L 266.853588 264.320191 
L 268.327562 264.823302 
L 269.863924 265.303579 
L 271.422748 265.687026 
L 272.963036 266.014623 
L 274.108593 267.154431 
L 275.287405 267.508461 
L 276.633523 267.621475 
L 278.056228 268.112759 
" style="fill:none;stroke:#ff7f0e;stroke-linecap:square;stroke-width:1.5;"/>
   </g>
   <g id="line2d_25">
    <path clip-path="url(#pf06e70d713)" d="M 208.94863 147.373433 
L 210.279084 147.977349 
L 211.560109 149.51178 
L 212.560134 151.166109 
L 213.696384 152.302752 
L 214.83337 153.440132 
L 215.990339 154.488392 
L 217.146425 155.353992 
L 218.362547 156.097253 
L 219.59888 156.751128 
L 220.914539 157.192361 
L 222.230636 157.560521 
L 223.567358 157.875638 
L 224.825859 158.257548 
L 226.105134 158.586432 
L 227.385773 158.952361 
L 228.667558 159.318618 
L 229.950634 159.721966 
L 231.214969 160.105604 
L 232.499773 160.325722 
L 233.805401 160.455712 
L 235.151668 160.515515 
L 236.51863 160.337556 
L 237.926219 159.867769 
L 239.355137 159.085359 
L 240.864728 157.865277 
L 242.436117 156.000839 
L 244.129398 153.253632 
L 245.946036 149.581846 
L 247.770451 145.004159 
L 249.469167 139.21375 
L 250.908707 132.003086 
L 252.087929 123.870212 
L 253.159168 115.614888 
L 254.173423 108.533305 
L 255.206043 102.932741 
L 256.354577 98.758355 
L 257.599133 95.81183 
L 258.880358 93.879553 
L 260.179604 92.631693 
L 261.496776 91.953993 
L 262.813555 91.589441 
L 264.109621 91.554861 
L 265.446354 91.567027 
L 266.822706 91.704758 
L 268.180714 91.858607 
L 269.598573 92.043469 
L 270.937785 92.371319 
L 272.278347 92.699499 
L 273.580849 93.060074 
L 274.923615 93.428407 
L 276.286242 93.859979 
L 277.630415 94.308009 
L 279.01387 94.803234 
L 280.397142 95.377832 
L 281.801625 95.897206 
L 283.169311 96.370227 
L 284.521373 96.701732 
L 285.875516 96.994034 
L 287.225217 97.603047 
L 288.578154 99.105695 
L 289.876929 102.401032 
L 291.366447 108.428431 
L 293.042552 118.788027 
L 294.634958 134.001002 
L 295.655191 150.49102 
L 296.225103 162.509211 
L 296.70239 168.658166 
L 297.502797 171.159732 
L 298.750115 172.699677 
L 300.163195 174.233021 
L 301.522392 175.70591 
L 302.793532 177.041449 
L 304.051212 178.207704 
L 305.29381 179.279777 
L 306.5579 180.260076 
L 307.844566 181.111093 
L 309.134246 181.887825 
L 310.428126 182.552803 
L 311.784353 182.978047 
L 313.180046 183.330836 
L 314.558356 183.701615 
L 315.977248 183.962309 
L 317.359161 184.296179 
L 318.707744 184.590784 
L 320.056535 184.923239 
L 321.37475 185.141352 
L 322.886521 184.956458 
L 324.365538 184.731734 
L 325.909266 184.22761 
L 327.511282 183.631881 
L 329.048466 182.918103 
L 330.586456 182.241049 
L 332.220938 180.925241 
L 333.992599 180.241864 
L 335.58657 180.096109 
" style="fill:none;stroke:#2ca02c;stroke-linecap:square;stroke-width:1.5;"/>
   </g>
   <g id="line2d_26">
    <path clip-path="url(#pf06e70d713)" d="M 175.352509 202.769676 
L 176.529495 203.325451 
L 177.890149 204.253094 
L 179.117956 205.031446 
L 180.468213 205.482094 
L 181.800897 206.061318 
L 183.132751 206.567387 
L 184.442817 207.018278 
L 185.775006 207.45151 
L 187.107431 207.848285 
L 188.460405 208.153722 
L 189.834738 208.40453 
L 191.290456 208.39911 
L 192.806665 208.155231 
L 194.300451 207.781762 
L 195.810669 207.057769 
L 197.251072 205.869874 
L 198.557477 204.121935 
L 199.713638 202.050477 
L 200.822849 199.450135 
L 201.819436 196.145639 
L 202.726006 192.184995 
L 203.480834 187.687607 
L 204.216004 182.952744 
L 204.899969 178.774015 
L 205.623005 175.546119 
L 206.365867 173.490335 
L 207.210042 172.353926 
L 208.215122 171.820392 
L 209.290734 171.578843 
L 210.51956 171.404673 
L 211.752194 171.384619 
L 213.093623 171.352398 
L 214.396365 171.549155 
L 215.678771 171.686724 
L 217.00626 171.904703 
L 218.33527 172.122931 
L 219.708057 172.305508 
L 221.061483 172.544984 
L 222.396083 172.918969 
L 223.690406 173.406875 
L 224.986086 173.895292 
L 226.326247 174.542086 
L 227.730903 175.212789 
L 229.157739 175.943397 
L 230.521986 176.612328 
L 231.887478 177.359334 
L 233.232866 178.086197 
L 234.600074 178.756633 
L 235.968166 179.349954 
L 237.420688 179.793292 
L 238.853406 180.332789 
L 240.287063 180.950283 
L 241.679757 181.954011 
L 242.98915 183.690826 
L 244.276192 186.375911 
L 245.662728 190.242678 
L 247.248289 195.380442 
L 249.458199 201.418026 
L 252.360503 208.097693 
L 255.377718 214.815507 
L 257.60402 219.766516 
L 258.783107 222.54329 
L 259.650712 224.458904 
L 260.743093 225.756336 
L 262.118303 226.602598 
L 263.514943 227.355396 
L 264.933844 227.939707 
L 266.274329 228.56282 
L 267.615495 229.223945 
L 268.938741 229.829618 
L 270.26271 230.473348 
L 271.567982 231.136711 
L 272.834272 231.876394 
L 274.16283 232.446842 
L 275.49263 233.017824 
L 276.743418 233.741087 
L 278.05539 234.369984 
L 279.32851 235.075464 
L 280.683703 235.591994 
L 281.97973 236.241929 
L 283.31709 236.816362 
L 284.617763 237.354724 
L 285.978797 237.835714 
L 287.341136 238.317165 
L 288.742474 238.835633 
L 290.088538 239.299721 
L 291.475129 239.725498 
L 292.743272 240.381179 
L 294.090954 240.959818 
L 295.54092 241.290961 
L 297.030193 241.621138 
L 298.477984 242.141341 
L 299.929852 241.776132 
L 301.617869 241.138652 
L 303.200728 240.975867 
" style="fill:none;stroke:#d62728;stroke-linecap:square;stroke-width:1.5;"/>
   </g>
   <g id="line2d_27">
    <path clip-path="url(#pf06e70d713)" d="M 176.748375 198.965492 
L 178.253127 198.792579 
L 179.826877 198.750238 
L 181.360058 198.780303 
L 182.996018 198.574024 
L 184.637652 198.588714 
L 186.222299 198.914729 
L 187.642504 199.530748 
L 188.874614 200.307644 
L 189.87495 201.171257 
L 190.791321 202.033926 
L 191.690316 203.026513 
L 192.695391 203.930687 
L 193.765261 204.818903 
L 194.962547 205.63683 
L 196.11708 206.380851 
L 197.313945 207.052562 
L 198.449966 207.81616 
L 199.5866 208.543643 
L 200.683366 209.345181 
L 201.821942 210.037376 
L 203.107051 210.565971 
L 204.35006 211.020551 
L 205.779948 211.200544 
L 207.209449 211.269681 
L 208.740604 210.988536 
L 210.290223 210.392562 
L 211.877815 209.314506 
L 213.440071 207.621852 
L 214.978977 205.385898 
L 216.515921 202.547552 
L 218.010984 199.175797 
L 219.318734 195.203715 
L 220.500597 190.378571 
L 221.414139 185.115391 
L 222.247392 179.469344 
L 222.880457 174.384174 
L 223.522615 169.957243 
L 224.219527 166.822205 
L 224.947315 164.663248 
L 225.851963 163.248442 
L 226.868217 162.325236 
L 228.016208 161.800746 
L 229.147405 161.68427 
L 230.303241 161.902214 
L 231.524761 162.262841 
L 232.853388 162.65212 
L 234.162622 163.138148 
L 235.494351 163.685204 
L 236.848486 164.37174 
L 238.245549 165.022867 
L 239.580857 165.88535 
L 240.979803 166.615917 
L 242.400372 167.44659 
L 243.800679 168.374181 
L 245.159771 169.456038 
L 246.518648 170.852002 
L 247.855787 172.658145 
L 249.169757 175.108423 
L 250.52053 178.419142 
L 251.944963 183.0928 
L 253.521657 189.11833 
L 255.653421 196.294704 
L 258.548748 204.45403 
L 261.567991 213.329766 
L 263.704267 220.195193 
L 264.639422 223.652534 
L 264.991617 226.176267 
L 265.808207 227.855463 
L 266.967251 229.025963 
L 268.287186 230.007585 
L 269.589386 230.896265 
L 270.853254 231.786257 
L 272.138557 232.620338 
L 273.406129 233.399179 
L 274.695262 234.122025 
L 276.026329 234.732028 
L 277.438329 235.228148 
L 278.812488 235.725542 
L 280.227971 236.147286 
L 281.585463 236.627188 
L 282.965296 237.013049 
L 284.267053 237.514141 
L 285.648217 237.976102 
L 287.050289 238.419137 
L 288.434719 238.844275 
L 289.920015 239.097586 
L 291.326587 239.504019 
L 292.674118 240.044432 
L 294.004267 240.567116 
L 295.493674 240.859288 
L 296.921298 241.398645 
L 298.169286 242.340142 
L 299.52421 242.072486 
L 301.191521 241.529896 
L 302.773982 241.405002 
" style="fill:none;stroke:#9467bd;stroke-linecap:square;stroke-width:1.5;"/>
   </g>
   <g id="line2d_28">
    <path clip-path="url(#pf06e70d713)" d="M 173.824377 203.30486 
L 175.046148 203.862841 
L 176.384822 204.699703 
L 177.507161 205.532726 
L 178.710925 206.110438 
L 179.854066 206.816478 
L 181.039035 207.413471 
L 182.268445 208.011783 
L 183.602243 208.409611 
L 185.041139 208.643509 
L 186.461469 208.969423 
L 187.922537 209.148649 
L 189.362723 209.309228 
L 190.761854 209.506208 
L 192.139647 209.64766 
L 193.49698 209.770469 
L 194.875946 209.838268 
L 196.31914 209.851577 
L 197.824473 209.699372 
L 199.476214 209.345716 
L 201.107427 208.973024 
L 202.781403 208.56373 
L 204.456848 208.19126 
L 206.113904 207.947964 
L 207.711867 207.944459 
L 209.229895 208.199098 
L 210.585093 208.784899 
L 211.796689 209.535777 
L 212.822758 210.414592 
L 213.745948 211.311828 
L 214.650305 212.265962 
L 215.577544 213.277556 
L 216.568234 214.235479 
L 217.663996 215.139739 
L 218.801695 215.933782 
L 219.961317 216.710236 
L 221.163171 217.413327 
L 222.304945 218.247129 
L 223.489175 219.044721 
L 224.674602 219.843119 
L 225.881801 220.623712 
L 227.110535 221.349205 
L 228.38135 222.000845 
L 229.632793 222.671757 
L 230.864646 223.287523 
L 232.138774 223.866483 
L 233.393661 224.46475 
L 234.77254 224.951012 
L 236.19321 225.325523 
L 237.655634 225.550859 
L 239.13952 225.757558 
L 240.66518 225.852157 
L 242.212384 225.741387 
L 243.862885 225.200331 
L 245.515404 224.397172 
L 247.151127 223.05061 
L 248.791773 221.064581 
L 250.478955 218.435631 
L 252.173611 215.159436 
L 253.89843 211.022697 
L 255.433784 206.031086 
L 256.760641 200.225469 
L 257.756454 193.85148 
L 258.657665 187.558933 
L 259.394908 182.297788 
L 260.105012 178.502544 
L 260.90943 176.123287 
L 261.790384 174.7613 
L 262.79171 173.993901 
L 263.9352 173.609099 
L 265.242302 173.432279 
L 266.570084 173.434522 
L 267.918637 173.576671 
L 269.267611 173.837781 
L 270.596316 174.236457 
L 271.905635 174.693675 
L 273.317807 175.138442 
L 274.789826 175.726414 
L 276.181737 176.349101 
L 277.553244 177.070142 
L 278.925274 177.831441 
L 280.31811 178.614442 
L 281.709283 179.556635 
L 283.09714 180.737267 
L 284.458871 182.293672 
L 285.68985 184.477251 
L 286.964137 187.513901 
L 288.151351 191.905847 
L 289.427048 197.669238 
L 291.062463 204.791254 
L 293.614137 213.184182 
L 296.514284 223.682771 
L 298.889752 232.239216 
L 300.307461 235.756064 
L 301.192141 237.767955 
L 302.190645 239.816573 
" style="fill:none;stroke:#8c564b;stroke-linecap:square;stroke-width:1.5;"/>
   </g>
   <g id="line2d_29">
    <path clip-path="url(#pf06e70d713)" d="M 208.219089 149.006977 
L 209.424719 147.636008 
L 210.650306 145.987534 
L 211.754045 144.026831 
L 212.878552 141.784546 
L 213.924827 139.451655 
L 214.975939 137.222085 
L 216.011644 135.112954 
L 217.094234 133.300661 
L 218.141166 131.665187 
L 219.193151 130.250045 
L 220.309552 128.894941 
L 221.470926 127.729872 
L 222.718823 126.949961 
L 223.932813 126.843277 
L 225.234567 127.615945 
L 226.624732 129.720442 
L 228.123903 133.849905 
L 229.968043 140.08689 
L 231.889805 148.680738 
L 233.463133 157.828565 
L 234.587583 164.349316 
L 235.505986 167.572548 
L 236.579166 169.156477 
L 237.986086 170.123291 
L 239.569335 171.010918 
L 241.015239 172.090264 
L 242.3245 173.178619 
L 243.517243 174.296182 
L 244.671778 175.411883 
L 245.846745 176.43807 
L 247.022643 177.428378 
L 248.277496 178.241103 
L 249.513618 179.108109 
L 250.809388 179.777785 
L 252.126116 180.2843 
L 253.404713 180.898822 
L 254.665173 181.494421 
L 255.946479 182.000023 
L 257.248692 182.415529 
L 258.57104 182.850767 
L 259.875188 183.303644 
L 261.220184 183.57564 
L 262.507349 184.046533 
L 263.777158 184.461812 
L 265.029402 184.858157 
L 266.339702 185.276226 
L 267.631994 185.712048 
L 269.022875 185.914334 
L 270.35666 186.242512 
L 271.691163 186.607738 
L 273.008236 186.95396 
L 274.345599 187.283045 
L 275.684693 187.575636 
L 277.025579 187.831694 
L 278.367171 188.124814 
L 279.691616 188.39889 
L 280.998416 188.690771 
L 282.345741 188.874144 
L 283.714675 188.966392 
L 285.104613 189.004275 
L 286.517659 188.876954 
L 288.012071 188.457528 
L 289.494505 187.796365 
L 290.968556 186.74461 
L 292.4366 185.226477 
L 293.902816 183.090771 
L 295.384729 180.427515 
L 296.844837 177.304855 
L 298.229316 173.695305 
L 299.571344 169.783393 
L 300.777036 165.651379 
L 301.935288 161.435207 
L 303.054413 157.535409 
L 304.209666 153.886528 
L 305.410684 150.821192 
L 306.676617 148.290545 
L 307.965459 146.450485 
L 309.225483 145.12533 
L 310.549712 144.270845 
L 311.831132 143.72068 
L 313.142943 143.484855 
L 314.506915 143.430416 
L 315.826708 143.682777 
L 317.202511 143.96162 
L 318.609039 144.478874 
L 320.011692 145.152309 
L 321.422723 146.159339 
L 322.820082 147.594797 
L 324.301286 149.78128 
L 325.753283 153.305763 
L 327.288326 157.975917 
L 328.74461 163.183275 
L 330.50357 166.782725 
L 332.134888 170.303268 
L 333.56859 172.823223 
" style="fill:none;stroke:#e377c2;stroke-linecap:square;stroke-width:1.5;"/>
   </g>
   <g id="line2d_30">
    <path clip-path="url(#pf06e70d713)" d="M 212.862978 140.408895 
L 214.27035 140.907984 
L 215.547626 142.401903 
L 216.660376 143.401865 
L 217.966684 143.579232 
L 219.290738 143.336354 
L 220.651824 142.508976 
L 222.028104 140.706162 
L 223.480303 137.837079 
L 224.950906 133.979856 
L 226.420606 128.917586 
L 227.691661 122.532688 
L 228.825124 114.787894 
L 229.805544 106.616787 
L 230.776687 99.119655 
L 231.780482 93.125495 
L 232.916104 88.660045 
L 234.141273 85.582733 
L 235.453633 83.635779 
L 236.770525 82.539193 
L 238.130654 81.954315 
L 239.49288 81.524358 
L 240.877067 81.156241 
L 242.222879 80.896718 
L 243.56985 81.066243 
L 244.836239 82.234966 
L 246.258295 85.189384 
L 247.767872 91.322747 
L 249.49213 101.71082 
L 251.047913 115.937531 
L 252.200078 129.660293 
L 253.154109 138.504804 
L 254.247886 142.321981 
L 255.628817 143.178767 
L 257.192518 142.728989 
L 258.783668 141.364519 
L 260.347724 138.906294 
L 261.811099 135.224171 
L 263.214464 130.309112 
L 264.422137 124.447187 
L 265.567806 117.810192 
L 266.702178 111.141775 
L 267.837103 105.121892 
L 269.0442 100.203594 
L 270.322993 96.326292 
L 271.593551 93.566926 
L 272.935585 91.63636 
L 274.309513 90.493848 
L 275.658499 89.954874 
L 277.062743 89.760901 
L 278.446822 89.740118 
L 279.911231 89.616228 
L 281.299765 89.516489 
L 282.686714 89.613869 
L 283.965597 90.501332 
L 285.255695 92.973745 
L 286.586736 98.390271 
L 288.167175 108.453893 
L 289.643108 124.090527 
L 290.465353 141.47757 
L 290.951329 153.787343 
L 291.618585 159.784394 
L 292.704381 162.523218 
L 294.157133 164.48585 
L 295.624991 166.541941 
L 296.987623 168.325812 
L 298.285403 169.729916 
L 299.552257 170.907441 
L 300.862509 171.826919 
L 302.196795 172.542922 
L 303.572071 173.112715 
L 304.969784 173.553508 
L 306.331305 174.029331 
L 307.733063 174.396054 
L 309.117345 174.780446 
L 310.5038 175.127768 
L 311.871826 175.530189 
L 313.221423 175.987786 
L 314.590635 176.42832 
L 315.906793 176.88421 
L 317.282995 177.175788 
L 318.658109 177.542526 
L 319.997669 177.94462 
L 321.356877 178.329566 
L 322.719839 178.63991 
L 324.124601 178.80295 
L 325.513744 178.946214 
L 326.986711 178.756562 
L 328.449751 178.396469 
L 329.980339 177.682357 
L 331.612548 176.653499 
L 333.181302 175.505007 
L 334.657479 174.555562 
L 336.265909 172.969897 
L 337.931037 172.239693 
L 339.478531 171.87899 
" style="fill:none;stroke:#7f7f7f;stroke-linecap:square;stroke-width:1.5;"/>
   </g>
   <g id="line2d_31">
    <path clip-path="url(#pf06e70d713)" d="M 209.459805 80.676254 
L 210.877981 80.612525 
L 212.300316 80.819355 
L 213.660654 80.917829 
L 214.981353 81.047198 
L 216.24278 81.300357 
L 217.505245 81.515066 
L 218.809947 81.699133 
L 220.157968 82.007514 
L 221.49003 82.796734 
L 222.870828 84.67862 
L 224.324204 88.561309 
L 225.93449 95.749211 
L 227.81955 107.308896 
L 229.561937 122.415261 
L 230.785147 136.451306 
L 231.565937 145.344393 
L 232.427676 149.322191 
L 233.559857 151.294266 
L 234.908272 153.047217 
L 236.216935 154.832724 
L 237.466222 156.446696 
L 238.6175 157.849573 
L 239.769293 159.03225 
L 240.941403 160.088526 
L 242.153461 161.001598 
L 243.425354 161.53371 
L 244.796336 161.687773 
L 246.208092 161.550506 
L 247.641377 161.175112 
L 249.077496 160.46719 
L 250.518298 159.130118 
L 252.081384 157.06061 
L 253.710362 154.157167 
L 255.425418 150.509346 
L 257.036714 145.86667 
L 258.548249 139.952265 
L 259.843597 133.069332 
L 261.017993 125.454303 
L 262.121969 117.997761 
L 263.185875 111.555952 
L 264.303071 106.41525 
L 265.491672 102.580735 
L 266.751577 99.912961 
L 268.064775 98.126141 
L 269.392697 97.062528 
L 270.775855 96.497427 
L 272.117948 96.277327 
L 273.479025 96.237145 
L 274.896879 96.42366 
L 276.250514 97.129839 
L 277.609541 98.840995 
L 278.958453 102.455459 
L 280.466943 109.161537 
L 282.103239 120.336391 
L 283.638206 135.327187 
L 284.651859 149.993224 
L 285.391538 159.558908 
L 286.238738 164.092537 
L 287.352626 166.285657 
L 288.71673 168.031141 
L 290.041103 169.885093 
L 291.273901 171.675636 
L 292.418883 173.254579 
L 293.567601 174.685201 
L 294.739883 175.913013 
L 296.008506 176.980174 
L 297.319611 177.826843 
L 298.635912 178.487783 
L 299.992418 179.039793 
L 301.294767 179.607365 
L 302.599203 180.138164 
L 303.945019 180.522577 
L 305.310697 180.889816 
L 306.696179 181.239836 
L 308.022942 181.792069 
L 309.351864 182.307446 
L 310.723312 182.638763 
L 312.13197 182.97251 
L 313.50251 183.416465 
L 314.801356 183.893984 
L 316.121141 184.316954 
L 317.461874 184.685286 
L 318.843187 184.943799 
L 320.24425 185.18486 
L 321.590205 185.516727 
L 322.998944 185.608509 
L 324.469339 185.497301 
L 325.963513 185.25576 
L 327.450312 184.769052 
L 329.058323 183.912316 
L 330.61364 183.107653 
L 332.157151 182.206631 
L 333.817099 180.612465 
L 335.566808 179.948337 
L 337.108935 179.704956 
" style="fill:none;stroke:#bcbd22;stroke-linecap:square;stroke-width:1.5;"/>
   </g>
   <g id="line2d_32">
    <path clip-path="url(#pf06e70d713)" d="M 176.759751 190.927653 
L 177.881295 189.977083 
L 178.859701 188.387404 
L 179.642546 186.653664 
L 180.336889 184.722458 
L 181.003935 182.426015 
L 181.667863 179.855842 
L 182.379544 177.313582 
L 183.122019 175.006896 
L 183.921788 173.14838 
L 184.739831 171.967477 
L 185.659088 171.283751 
L 186.572404 171.226304 
L 187.624876 171.444549 
L 188.813638 171.824442 
L 190.072172 172.342748 
L 191.419278 172.867084 
L 192.794626 173.679806 
L 194.112723 174.890084 
L 195.48422 176.637807 
L 196.783903 179.257244 
L 198.166385 183.000448 
L 199.86574 187.849812 
L 202.359848 193.258591 
L 205.79638 198.831494 
L 209.280191 203.799926 
L 211.817488 206.878376 
L 213.208614 208.853378 
L 214.242404 210.545047 
L 215.460142 211.851378 
L 216.739154 212.992441 
L 218.037636 213.930706 
L 219.2338 214.924183 
L 220.389256 215.881179 
L 221.463438 216.875657 
L 222.62085 217.797529 
L 223.860358 218.498405 
L 225.182648 219.089 
L 226.607787 219.513553 
L 228.013393 219.956872 
L 229.41962 220.32641 
L 230.765598 220.714765 
L 232.092521 221.159073 
L 233.379946 221.640918 
L 234.648384 222.178907 
L 236.019451 222.513112 
L 237.371463 222.903333 
L 238.684136 223.331179 
L 240.079085 223.647689 
L 241.394255 224.076282 
L 242.791636 224.35624 
L 244.109263 224.822728 
L 245.42813 225.289656 
L 246.707929 225.794511 
L 248.049456 226.243594 
L 249.372221 226.674661 
L 250.776667 227.030958 
L 252.222963 227.238258 
L 253.710748 227.370855 
L 255.240185 227.391405 
L 256.812048 227.187992 
L 258.34636 226.872932 
L 259.804854 226.334338 
L 261.068891 225.647045 
L 262.100975 224.660326 
L 262.942894 223.183516 
L 263.654425 221.192536 
L 264.375541 218.586964 
L 265.167948 215.227405 
L 266.097727 210.628857 
L 267.102692 205.176474 
L 268.094059 199.742926 
L 269.001148 195.199459 
L 269.835163 192.163336 
L 270.735659 190.599562 
L 271.746365 190.131123 
L 272.830405 190.409384 
L 273.991516 191.083657 
L 275.231711 191.958315 
L 276.633343 192.840515 
L 278.072701 193.920728 
L 279.51124 195.079602 
L 280.902513 196.707039 
L 282.202245 199.035674 
L 283.464728 202.319285 
L 284.681547 206.941939 
L 286.148499 212.760065 
L 288.498184 219.097163 
L 291.915576 225.343146 
L 295.448605 230.783362 
L 297.953471 234.137343 
L 299.144073 236.603956 
L 300.033426 239.003269 
L 301.282664 239.905042 
L 302.806164 240.459917 
L 304.347634 241.070991 
" style="fill:none;stroke:#17becf;stroke-linecap:square;stroke-width:1.5;"/>
   </g>
  </g>
 </g>
 <defs>
  <clipPath id="pf06e70d713">
   <rect height="266.112" width="266.112" x="103.104" y="41.472"/>
  </clipPath>
 </defs>
</svg>
