<?xml version="1.0" encoding="utf-8" standalone="no"?>
<!DOCTYPE svg PUBLIC "-//W3C//DTD SVG 1.1//EN"
  "http://www.w3.org/Graphics/SVG/1.1/DTD/svg11.dtd">
<!-- Created with matplotlib (https://matplotlib.org/) -->
<svg height="345.6pt" version="1.1" viewBox="0 0 460.8 345.6" width="460.8pt" xmlns="http://www.w3.org/2000/svg" xmlns:xlink="http://www.w3.org/1999/xlink">
 <metadata>
  <rdf:RDF xmlns:cc="http://creativecommons.org/ns#" xmlns:dc="http://purl.org/dc/elements/1.1/" xmlns:rdf="http://www.w3.org/1999/02/22-rdf-syntax-ns#">
   <cc:Work>
    <dc:type rdf:resource="http://purl.org/dc/dcmitype/StillImage"/>
    <dc:date>2023-12-11T18:15:15.553003</dc:date>
    <dc:format>image/svg+xml</dc:format>
    <dc:creator>
     <cc:Agent>
      <dc:title>Matplotlib v3.3.4, https://matplotlib.org/</dc:title>
     </cc:Agent>
    </dc:creator>
   </cc:Work>
  </rdf:RDF>
 </metadata>
 <defs>
  <style type="text/css">*{stroke-linecap:butt;stroke-linejoin:round;}</style>
 </defs>
 <g id="figure_1">
  <g id="patch_1">
   <path d="M 0 345.6 
L 460.8 345.6 
L 460.8 0 
L 0 0 
z
" style="fill:#ffffff;"/>
  </g>
  <g id="patch_2">
   <path d="M 103.104 307.584 
L 369.216 307.584 
L 369.216 41.472 
L 103.104 41.472 
z
" style="fill:#ffffff;"/>
  </g>
  <g id="pane3d_1">
   <g id="patch_3">
    <path d="M 123.197291 241.969309 
L 211.076164 168.307495 
L 209.854564 62.073991 
L 117.770234 129.272941 
" style="fill:#f2f2f2;opacity:0.5;stroke:#f2f2f2;stroke-linejoin:miter;"/>
   </g>
  </g>
  <g id="pane3d_2">
   <g id="patch_4">
    <path d="M 211.076164 168.307495 
L 352.090401 209.294766 
L 357.122702 99.402171 
L 209.854564 62.073991 
" style="fill:#e6e6e6;opacity:0.5;stroke:#e6e6e6;stroke-linejoin:miter;"/>
   </g>
  </g>
  <g id="pane3d_3">
   <g id="patch_5">
    <path d="M 123.197291 241.969309 
L 272.679269 290.790123 
L 352.090401 209.294766 
L 211.076164 168.307495 
" style="fill:#ececec;opacity:0.5;stroke:#ececec;stroke-linejoin:miter;"/>
   </g>
  </g>
  <g id="axis3d_1">
   <g id="line2d_1">
    <path d="M 123.197291 241.969309 
L 272.679269 290.790123 
" style="fill:none;stroke:#000000;stroke-linecap:square;stroke-width:0.8;"/>
   </g>
   <g id="text_1">
    <!-- Time of the day -->
    <g transform="translate(141.534498 291.453876)rotate(-341.912962)scale(0.1 -0.1)">
     <defs>
      <path d="M -0.296875 72.90625 
L 61.375 72.90625 
L 61.375 64.59375 
L 35.5 64.59375 
L 35.5 0 
L 25.59375 0 
L 25.59375 64.59375 
L -0.296875 64.59375 
z
" id="DejaVuSans-84"/>
      <path d="M 9.421875 54.6875 
L 18.40625 54.6875 
L 18.40625 0 
L 9.421875 0 
z
M 9.421875 75.984375 
L 18.40625 75.984375 
L 18.40625 64.59375 
L 9.421875 64.59375 
z
" id="DejaVuSans-105"/>
      <path d="M 52 44.1875 
Q 55.375 50.25 60.0625 53.125 
Q 64.75 56 71.09375 56 
Q 79.640625 56 84.28125 50.015625 
Q 88.921875 44.046875 88.921875 33.015625 
L 88.921875 0 
L 79.890625 0 
L 79.890625 32.71875 
Q 79.890625 40.578125 77.09375 44.375 
Q 74.3125 48.1875 68.609375 48.1875 
Q 61.625 48.1875 57.5625 43.546875 
Q 53.515625 38.921875 53.515625 30.90625 
L 53.515625 0 
L 44.484375 0 
L 44.484375 32.71875 
Q 44.484375 40.625 41.703125 44.40625 
Q 38.921875 48.1875 33.109375 48.1875 
Q 26.21875 48.1875 22.15625 43.53125 
Q 18.109375 38.875 18.109375 30.90625 
L 18.109375 0 
L 9.078125 0 
L 9.078125 54.6875 
L 18.109375 54.6875 
L 18.109375 46.1875 
Q 21.1875 51.21875 25.484375 53.609375 
Q 29.78125 56 35.6875 56 
Q 41.65625 56 45.828125 52.96875 
Q 50 49.953125 52 44.1875 
z
" id="DejaVuSans-109"/>
      <path d="M 56.203125 29.59375 
L 56.203125 25.203125 
L 14.890625 25.203125 
Q 15.484375 15.921875 20.484375 11.0625 
Q 25.484375 6.203125 34.421875 6.203125 
Q 39.59375 6.203125 44.453125 7.46875 
Q 49.3125 8.734375 54.109375 11.28125 
L 54.109375 2.78125 
Q 49.265625 0.734375 44.1875 -0.34375 
Q 39.109375 -1.421875 33.890625 -1.421875 
Q 20.796875 -1.421875 13.15625 6.1875 
Q 5.515625 13.8125 5.515625 26.8125 
Q 5.515625 40.234375 12.765625 48.109375 
Q 20.015625 56 32.328125 56 
Q 43.359375 56 49.78125 48.890625 
Q 56.203125 41.796875 56.203125 29.59375 
z
M 47.21875 32.234375 
Q 47.125 39.59375 43.09375 43.984375 
Q 39.0625 48.390625 32.421875 48.390625 
Q 24.90625 48.390625 20.390625 44.140625 
Q 15.875 39.890625 15.1875 32.171875 
z
" id="DejaVuSans-101"/>
      <path id="DejaVuSans-32"/>
      <path d="M 30.609375 48.390625 
Q 23.390625 48.390625 19.1875 42.75 
Q 14.984375 37.109375 14.984375 27.296875 
Q 14.984375 17.484375 19.15625 11.84375 
Q 23.34375 6.203125 30.609375 6.203125 
Q 37.796875 6.203125 41.984375 11.859375 
Q 46.1875 17.53125 46.1875 27.296875 
Q 46.1875 37.015625 41.984375 42.703125 
Q 37.796875 48.390625 30.609375 48.390625 
z
M 30.609375 56 
Q 42.328125 56 49.015625 48.375 
Q 55.71875 40.765625 55.71875 27.296875 
Q 55.71875 13.875 49.015625 6.21875 
Q 42.328125 -1.421875 30.609375 -1.421875 
Q 18.84375 -1.421875 12.171875 6.21875 
Q 5.515625 13.875 5.515625 27.296875 
Q 5.515625 40.765625 12.171875 48.375 
Q 18.84375 56 30.609375 56 
z
" id="DejaVuSans-111"/>
      <path d="M 37.109375 75.984375 
L 37.109375 68.5 
L 28.515625 68.5 
Q 23.6875 68.5 21.796875 66.546875 
Q 19.921875 64.59375 19.921875 59.515625 
L 19.921875 54.6875 
L 34.71875 54.6875 
L 34.71875 47.703125 
L 19.921875 47.703125 
L 19.921875 0 
L 10.890625 0 
L 10.890625 47.703125 
L 2.296875 47.703125 
L 2.296875 54.6875 
L 10.890625 54.6875 
L 10.890625 58.5 
Q 10.890625 67.625 15.140625 71.796875 
Q 19.390625 75.984375 28.609375 75.984375 
z
" id="DejaVuSans-102"/>
      <path d="M 18.3125 70.21875 
L 18.3125 54.6875 
L 36.8125 54.6875 
L 36.8125 47.703125 
L 18.3125 47.703125 
L 18.3125 18.015625 
Q 18.3125 11.328125 20.140625 9.421875 
Q 21.96875 7.515625 27.59375 7.515625 
L 36.8125 7.515625 
L 36.8125 0 
L 27.59375 0 
Q 17.1875 0 13.234375 3.875 
Q 9.28125 7.765625 9.28125 18.015625 
L 9.28125 47.703125 
L 2.6875 47.703125 
L 2.6875 54.6875 
L 9.28125 54.6875 
L 9.28125 70.21875 
z
" id="DejaVuSans-116"/>
      <path d="M 54.890625 33.015625 
L 54.890625 0 
L 45.90625 0 
L 45.90625 32.71875 
Q 45.90625 40.484375 42.875 44.328125 
Q 39.84375 48.1875 33.796875 48.1875 
Q 26.515625 48.1875 22.3125 43.546875 
Q 18.109375 38.921875 18.109375 30.90625 
L 18.109375 0 
L 9.078125 0 
L 9.078125 75.984375 
L 18.109375 75.984375 
L 18.109375 46.1875 
Q 21.34375 51.125 25.703125 53.5625 
Q 30.078125 56 35.796875 56 
Q 45.21875 56 50.046875 50.171875 
Q 54.890625 44.34375 54.890625 33.015625 
z
" id="DejaVuSans-104"/>
      <path d="M 45.40625 46.390625 
L 45.40625 75.984375 
L 54.390625 75.984375 
L 54.390625 0 
L 45.40625 0 
L 45.40625 8.203125 
Q 42.578125 3.328125 38.25 0.953125 
Q 33.9375 -1.421875 27.875 -1.421875 
Q 17.96875 -1.421875 11.734375 6.484375 
Q 5.515625 14.40625 5.515625 27.296875 
Q 5.515625 40.1875 11.734375 48.09375 
Q 17.96875 56 27.875 56 
Q 33.9375 56 38.25 53.625 
Q 42.578125 51.265625 45.40625 46.390625 
z
M 14.796875 27.296875 
Q 14.796875 17.390625 18.875 11.75 
Q 22.953125 6.109375 30.078125 6.109375 
Q 37.203125 6.109375 41.296875 11.75 
Q 45.40625 17.390625 45.40625 27.296875 
Q 45.40625 37.203125 41.296875 42.84375 
Q 37.203125 48.484375 30.078125 48.484375 
Q 22.953125 48.484375 18.875 42.84375 
Q 14.796875 37.203125 14.796875 27.296875 
z
" id="DejaVuSans-100"/>
      <path d="M 34.28125 27.484375 
Q 23.390625 27.484375 19.1875 25 
Q 14.984375 22.515625 14.984375 16.5 
Q 14.984375 11.71875 18.140625 8.90625 
Q 21.296875 6.109375 26.703125 6.109375 
Q 34.1875 6.109375 38.703125 11.40625 
Q 43.21875 16.703125 43.21875 25.484375 
L 43.21875 27.484375 
z
M 52.203125 31.203125 
L 52.203125 0 
L 43.21875 0 
L 43.21875 8.296875 
Q 40.140625 3.328125 35.546875 0.953125 
Q 30.953125 -1.421875 24.3125 -1.421875 
Q 15.921875 -1.421875 10.953125 3.296875 
Q 6 8.015625 6 15.921875 
Q 6 25.140625 12.171875 29.828125 
Q 18.359375 34.515625 30.609375 34.515625 
L 43.21875 34.515625 
L 43.21875 35.40625 
Q 43.21875 41.609375 39.140625 45 
Q 35.0625 48.390625 27.6875 48.390625 
Q 23 48.390625 18.546875 47.265625 
Q 14.109375 46.140625 10.015625 43.890625 
L 10.015625 52.203125 
Q 14.9375 54.109375 19.578125 55.046875 
Q 24.21875 56 28.609375 56 
Q 40.484375 56 46.34375 49.84375 
Q 52.203125 43.703125 52.203125 31.203125 
z
" id="DejaVuSans-97"/>
      <path d="M 32.171875 -5.078125 
Q 28.375 -14.84375 24.75 -17.8125 
Q 21.140625 -20.796875 15.09375 -20.796875 
L 7.90625 -20.796875 
L 7.90625 -13.28125 
L 13.1875 -13.28125 
Q 16.890625 -13.28125 18.9375 -11.515625 
Q 21 -9.765625 23.484375 -3.21875 
L 25.09375 0.875 
L 2.984375 54.6875 
L 12.5 54.6875 
L 29.59375 11.921875 
L 46.6875 54.6875 
L 56.203125 54.6875 
z
" id="DejaVuSans-121"/>
     </defs>
     <use xlink:href="#DejaVuSans-84"/>
     <use x="57.958984" xlink:href="#DejaVuSans-105"/>
     <use x="85.742188" xlink:href="#DejaVuSans-109"/>
     <use x="183.154297" xlink:href="#DejaVuSans-101"/>
     <use x="244.677734" xlink:href="#DejaVuSans-32"/>
     <use x="276.464844" xlink:href="#DejaVuSans-111"/>
     <use x="337.646484" xlink:href="#DejaVuSans-102"/>
     <use x="372.851562" xlink:href="#DejaVuSans-32"/>
     <use x="404.638672" xlink:href="#DejaVuSans-116"/>
     <use x="443.847656" xlink:href="#DejaVuSans-104"/>
     <use x="507.226562" xlink:href="#DejaVuSans-101"/>
     <use x="568.75" xlink:href="#DejaVuSans-32"/>
     <use x="600.537109" xlink:href="#DejaVuSans-100"/>
     <use x="664.013672" xlink:href="#DejaVuSans-97"/>
     <use x="725.292969" xlink:href="#DejaVuSans-121"/>
    </g>
   </g>
   <g id="Line3DCollection_1">
    <path d="M 132.250704 244.926154 
L 219.652219 170.800215 
L 218.79322 64.33968 
" style="fill:none;stroke:#b0b0b0;stroke-width:0.8;"/>
    <path d="M 158.726327 253.573092 
L 244.705514 178.082219 
L 244.918927 70.961785 
" style="fill:none;stroke:#b0b0b0;stroke-width:0.8;"/>
    <path d="M 185.713056 262.386958 
L 270.20212 185.493076 
L 271.527037 77.706165 
" style="fill:none;stroke:#b0b0b0;stroke-width:0.8;"/>
    <path d="M 213.225837 271.372632 
L 296.153908 193.036236 
L 298.631037 84.576239 
" style="fill:none;stroke:#b0b0b0;stroke-width:0.8;"/>
    <path d="M 241.280202 280.535187 
L 322.573177 200.715275 
L 326.24492 91.575553 
" style="fill:none;stroke:#b0b0b0;stroke-width:0.8;"/>
   </g>
   <g id="xtick_1">
    <g id="line2d_2">
     <path d="M 133.011792 244.280669 
L 130.725263 246.219892 
" style="fill:none;stroke:#000000;stroke-linecap:square;stroke-width:0.8;"/>
    </g>
    <g id="text_2">
     <!-- 0 -->
     <g transform="translate(121.540405 268.235303)scale(0.1 -0.1)">
      <defs>
       <path d="M 31.78125 66.40625 
Q 24.171875 66.40625 20.328125 58.90625 
Q 16.5 51.421875 16.5 36.375 
Q 16.5 21.390625 20.328125 13.890625 
Q 24.171875 6.390625 31.78125 6.390625 
Q 39.453125 6.390625 43.28125 13.890625 
Q 47.125 21.390625 47.125 36.375 
Q 47.125 51.421875 43.28125 58.90625 
Q 39.453125 66.40625 31.78125 66.40625 
z
M 31.78125 74.21875 
Q 44.046875 74.21875 50.515625 64.515625 
Q 56.984375 54.828125 56.984375 36.375 
Q 56.984375 17.96875 50.515625 8.265625 
Q 44.046875 -1.421875 31.78125 -1.421875 
Q 19.53125 -1.421875 13.0625 8.265625 
Q 6.59375 17.96875 6.59375 36.375 
Q 6.59375 54.828125 13.0625 64.515625 
Q 19.53125 74.21875 31.78125 74.21875 
z
" id="DejaVuSans-48"/>
      </defs>
      <use xlink:href="#DejaVuSans-48"/>
     </g>
    </g>
   </g>
   <g id="xtick_2">
    <g id="line2d_3">
     <path d="M 159.47561 252.915211 
L 157.224514 254.891704 
" style="fill:none;stroke:#000000;stroke-linecap:square;stroke-width:0.8;"/>
    </g>
    <g id="text_3">
     <!-- 20 -->
     <g transform="translate(144.86189 277.065452)scale(0.1 -0.1)">
      <defs>
       <path d="M 19.1875 8.296875 
L 53.609375 8.296875 
L 53.609375 0 
L 7.328125 0 
L 7.328125 8.296875 
Q 12.9375 14.109375 22.625 23.890625 
Q 32.328125 33.6875 34.8125 36.53125 
Q 39.546875 41.84375 41.421875 45.53125 
Q 43.3125 49.21875 43.3125 52.78125 
Q 43.3125 58.59375 39.234375 62.25 
Q 35.15625 65.921875 28.609375 65.921875 
Q 23.96875 65.921875 18.8125 64.3125 
Q 13.671875 62.703125 7.8125 59.421875 
L 7.8125 69.390625 
Q 13.765625 71.78125 18.9375 73 
Q 24.125 74.21875 28.421875 74.21875 
Q 39.75 74.21875 46.484375 68.546875 
Q 53.21875 62.890625 53.21875 53.421875 
Q 53.21875 48.921875 51.53125 44.890625 
Q 49.859375 40.875 45.40625 35.40625 
Q 44.1875 33.984375 37.640625 27.21875 
Q 31.109375 20.453125 19.1875 8.296875 
z
" id="DejaVuSans-50"/>
      </defs>
      <use xlink:href="#DejaVuSans-50"/>
      <use x="63.623047" xlink:href="#DejaVuSans-48"/>
     </g>
    </g>
   </g>
   <g id="xtick_3">
    <g id="line2d_4">
     <path d="M 186.449936 261.71632 
L 184.236074 263.731167 
" style="fill:none;stroke:#000000;stroke-linecap:square;stroke-width:0.8;"/>
    </g>
    <g id="text_4">
     <!-- 40 -->
     <g transform="translate(171.878194 286.066712)scale(0.1 -0.1)">
      <defs>
       <path d="M 37.796875 64.3125 
L 12.890625 25.390625 
L 37.796875 25.390625 
z
M 35.203125 72.90625 
L 47.609375 72.90625 
L 47.609375 25.390625 
L 58.015625 25.390625 
L 58.015625 17.1875 
L 47.609375 17.1875 
L 47.609375 0 
L 37.796875 0 
L 37.796875 17.1875 
L 4.890625 17.1875 
L 4.890625 26.703125 
z
" id="DejaVuSans-52"/>
      </defs>
      <use xlink:href="#DejaVuSans-52"/>
      <use x="63.623047" xlink:href="#DejaVuSans-48"/>
     </g>
    </g>
   </g>
   <g id="xtick_4">
    <g id="line2d_5">
     <path d="M 213.949685 270.688863 
L 211.774943 272.74319 
" style="fill:none;stroke:#000000;stroke-linecap:square;stroke-width:0.8;"/>
    </g>
    <g id="text_5">
     <!-- 60 -->
     <g transform="translate(199.423141 295.244105)scale(0.1 -0.1)">
      <defs>
       <path d="M 33.015625 40.375 
Q 26.375 40.375 22.484375 35.828125 
Q 18.609375 31.296875 18.609375 23.390625 
Q 18.609375 15.53125 22.484375 10.953125 
Q 26.375 6.390625 33.015625 6.390625 
Q 39.65625 6.390625 43.53125 10.953125 
Q 47.40625 15.53125 47.40625 23.390625 
Q 47.40625 31.296875 43.53125 35.828125 
Q 39.65625 40.375 33.015625 40.375 
z
M 52.59375 71.296875 
L 52.59375 62.3125 
Q 48.875 64.0625 45.09375 64.984375 
Q 41.3125 65.921875 37.59375 65.921875 
Q 27.828125 65.921875 22.671875 59.328125 
Q 17.53125 52.734375 16.796875 39.40625 
Q 19.671875 43.65625 24.015625 45.921875 
Q 28.375 48.1875 33.59375 48.1875 
Q 44.578125 48.1875 50.953125 41.515625 
Q 57.328125 34.859375 57.328125 23.390625 
Q 57.328125 12.15625 50.6875 5.359375 
Q 44.046875 -1.421875 33.015625 -1.421875 
Q 20.359375 -1.421875 13.671875 8.265625 
Q 6.984375 17.96875 6.984375 36.375 
Q 6.984375 53.65625 15.1875 63.9375 
Q 23.390625 74.21875 37.203125 74.21875 
Q 40.921875 74.21875 44.703125 73.484375 
Q 48.484375 72.75 52.59375 71.296875 
z
" id="DejaVuSans-54"/>
      </defs>
      <use xlink:href="#DejaVuSans-54"/>
      <use x="63.623047" xlink:href="#DejaVuSans-48"/>
     </g>
    </g>
   </g>
   <g id="xtick_5">
    <g id="line2d_6">
     <path d="M 241.99036 279.837897 
L 239.856717 281.932878 
" style="fill:none;stroke:#000000;stroke-linecap:square;stroke-width:0.8;"/>
    </g>
    <g id="text_6">
     <!-- 80 -->
     <g transform="translate(227.5124 304.602851)scale(0.1 -0.1)">
      <defs>
       <path d="M 31.78125 34.625 
Q 24.75 34.625 20.71875 30.859375 
Q 16.703125 27.09375 16.703125 20.515625 
Q 16.703125 13.921875 20.71875 10.15625 
Q 24.75 6.390625 31.78125 6.390625 
Q 38.8125 6.390625 42.859375 10.171875 
Q 46.921875 13.96875 46.921875 20.515625 
Q 46.921875 27.09375 42.890625 30.859375 
Q 38.875 34.625 31.78125 34.625 
z
M 21.921875 38.8125 
Q 15.578125 40.375 12.03125 44.71875 
Q 8.5 49.078125 8.5 55.328125 
Q 8.5 64.0625 14.71875 69.140625 
Q 20.953125 74.21875 31.78125 74.21875 
Q 42.671875 74.21875 48.875 69.140625 
Q 55.078125 64.0625 55.078125 55.328125 
Q 55.078125 49.078125 51.53125 44.71875 
Q 48 40.375 41.703125 38.8125 
Q 48.828125 37.15625 52.796875 32.3125 
Q 56.78125 27.484375 56.78125 20.515625 
Q 56.78125 9.90625 50.3125 4.234375 
Q 43.84375 -1.421875 31.78125 -1.421875 
Q 19.734375 -1.421875 13.25 4.234375 
Q 6.78125 9.90625 6.78125 20.515625 
Q 6.78125 27.484375 10.78125 32.3125 
Q 14.796875 37.15625 21.921875 38.8125 
z
M 18.3125 54.390625 
Q 18.3125 48.734375 21.84375 45.5625 
Q 25.390625 42.390625 31.78125 42.390625 
Q 38.140625 42.390625 41.71875 45.5625 
Q 45.3125 48.734375 45.3125 54.390625 
Q 45.3125 60.0625 41.71875 63.234375 
Q 38.140625 66.40625 31.78125 66.40625 
Q 25.390625 66.40625 21.84375 63.234375 
Q 18.3125 60.0625 18.3125 54.390625 
z
" id="DejaVuSans-56"/>
      </defs>
      <use xlink:href="#DejaVuSans-56"/>
      <use x="63.623047" xlink:href="#DejaVuSans-48"/>
     </g>
    </g>
   </g>
  </g>
  <g id="axis3d_2">
   <g id="line2d_7">
    <path d="M 352.090401 209.294766 
L 272.679269 290.790123 
" style="fill:none;stroke:#000000;stroke-linecap:square;stroke-width:0.8;"/>
   </g>
   <g id="text_7">
    <!-- Temperature(℃) -->
    <g transform="translate(314.365301 307.653229)rotate(-45.742112)scale(0.1 -0.1)">
     <defs>
      <path d="M 18.109375 8.203125 
L 18.109375 -20.796875 
L 9.078125 -20.796875 
L 9.078125 54.6875 
L 18.109375 54.6875 
L 18.109375 46.390625 
Q 20.953125 51.265625 25.265625 53.625 
Q 29.59375 56 35.59375 56 
Q 45.5625 56 51.78125 48.09375 
Q 58.015625 40.1875 58.015625 27.296875 
Q 58.015625 14.40625 51.78125 6.484375 
Q 45.5625 -1.421875 35.59375 -1.421875 
Q 29.59375 -1.421875 25.265625 0.953125 
Q 20.953125 3.328125 18.109375 8.203125 
z
M 48.6875 27.296875 
Q 48.6875 37.203125 44.609375 42.84375 
Q 40.53125 48.484375 33.40625 48.484375 
Q 26.265625 48.484375 22.1875 42.84375 
Q 18.109375 37.203125 18.109375 27.296875 
Q 18.109375 17.390625 22.1875 11.75 
Q 26.265625 6.109375 33.40625 6.109375 
Q 40.53125 6.109375 44.609375 11.75 
Q 48.6875 17.390625 48.6875 27.296875 
z
" id="DejaVuSans-112"/>
      <path d="M 41.109375 46.296875 
Q 39.59375 47.171875 37.8125 47.578125 
Q 36.03125 48 33.890625 48 
Q 26.265625 48 22.1875 43.046875 
Q 18.109375 38.09375 18.109375 28.8125 
L 18.109375 0 
L 9.078125 0 
L 9.078125 54.6875 
L 18.109375 54.6875 
L 18.109375 46.1875 
Q 20.953125 51.171875 25.484375 53.578125 
Q 30.03125 56 36.53125 56 
Q 37.453125 56 38.578125 55.875 
Q 39.703125 55.765625 41.0625 55.515625 
z
" id="DejaVuSans-114"/>
      <path d="M 8.5 21.578125 
L 8.5 54.6875 
L 17.484375 54.6875 
L 17.484375 21.921875 
Q 17.484375 14.15625 20.5 10.265625 
Q 23.53125 6.390625 29.59375 6.390625 
Q 36.859375 6.390625 41.078125 11.03125 
Q 45.3125 15.671875 45.3125 23.6875 
L 45.3125 54.6875 
L 54.296875 54.6875 
L 54.296875 0 
L 45.3125 0 
L 45.3125 8.40625 
Q 42.046875 3.421875 37.71875 1 
Q 33.40625 -1.421875 27.6875 -1.421875 
Q 18.265625 -1.421875 13.375 4.4375 
Q 8.5 10.296875 8.5 21.578125 
z
M 31.109375 56 
z
" id="DejaVuSans-117"/>
      <path d="M 31 75.875 
Q 24.46875 64.65625 21.28125 53.65625 
Q 18.109375 42.671875 18.109375 31.390625 
Q 18.109375 20.125 21.3125 9.0625 
Q 24.515625 -2 31 -13.1875 
L 23.1875 -13.1875 
Q 15.875 -1.703125 12.234375 9.375 
Q 8.59375 20.453125 8.59375 31.390625 
Q 8.59375 42.28125 12.203125 53.3125 
Q 15.828125 64.359375 23.1875 75.875 
z
" id="DejaVuSans-40"/>
      <path d="M 25 67.921875 
Q 21.09375 67.921875 18.40625 65.203125 
Q 15.71875 62.5 15.71875 58.59375 
Q 15.71875 54.734375 18.40625 52.078125 
Q 21.09375 49.421875 25 49.421875 
Q 28.90625 49.421875 31.59375 52.078125 
Q 34.28125 54.734375 34.28125 58.59375 
Q 34.28125 62.453125 31.5625 65.1875 
Q 28.859375 67.921875 25 67.921875 
z
M 25 74.21875 
Q 28.125 74.21875 31 73.015625 
Q 33.890625 71.828125 35.984375 69.578125 
Q 38.234375 67.390625 39.359375 64.59375 
Q 40.484375 61.8125 40.484375 58.59375 
Q 40.484375 52.15625 35.96875 47.6875 
Q 31.453125 43.21875 24.90625 43.21875 
Q 18.3125 43.21875 13.90625 47.609375 
Q 9.515625 52 9.515625 58.59375 
Q 9.515625 65.140625 14 69.671875 
Q 18.5 74.21875 25 74.21875 
z
M 105.28125 67.28125 
L 105.28125 56.890625 
Q 100.296875 61.53125 94.65625 63.8125 
Q 89.015625 66.109375 82.671875 66.109375 
Q 70.171875 66.109375 63.53125 58.46875 
Q 56.890625 50.828125 56.890625 36.375 
Q 56.890625 21.96875 63.53125 14.328125 
Q 70.171875 6.6875 82.671875 6.6875 
Q 89.015625 6.6875 94.65625 8.984375 
Q 100.296875 11.28125 105.28125 15.921875 
L 105.28125 5.609375 
Q 100.109375 2.09375 94.3125 0.328125 
Q 88.53125 -1.421875 82.09375 -1.421875 
Q 65.53125 -1.421875 56 8.703125 
Q 46.484375 18.84375 46.484375 36.375 
Q 46.484375 53.953125 56 64.078125 
Q 65.53125 74.21875 82.09375 74.21875 
Q 88.625 74.21875 94.40625 72.484375 
Q 100.203125 70.75 105.28125 67.28125 
z
" id="DejaVuSans-8451"/>
      <path d="M 8.015625 75.875 
L 15.828125 75.875 
Q 23.140625 64.359375 26.78125 53.3125 
Q 30.421875 42.28125 30.421875 31.390625 
Q 30.421875 20.453125 26.78125 9.375 
Q 23.140625 -1.703125 15.828125 -13.1875 
L 8.015625 -13.1875 
Q 14.5 -2 17.703125 9.0625 
Q 20.90625 20.125 20.90625 31.390625 
Q 20.90625 42.671875 17.703125 53.65625 
Q 14.5 64.65625 8.015625 75.875 
z
" id="DejaVuSans-41"/>
     </defs>
     <use xlink:href="#DejaVuSans-84"/>
     <use x="44.083984" xlink:href="#DejaVuSans-101"/>
     <use x="105.607422" xlink:href="#DejaVuSans-109"/>
     <use x="203.019531" xlink:href="#DejaVuSans-112"/>
     <use x="266.496094" xlink:href="#DejaVuSans-101"/>
     <use x="328.019531" xlink:href="#DejaVuSans-114"/>
     <use x="369.132812" xlink:href="#DejaVuSans-97"/>
     <use x="430.412109" xlink:href="#DejaVuSans-116"/>
     <use x="469.621094" xlink:href="#DejaVuSans-117"/>
     <use x="533" xlink:href="#DejaVuSans-114"/>
     <use x="571.863281" xlink:href="#DejaVuSans-101"/>
     <use x="633.386719" xlink:href="#DejaVuSans-40"/>
     <use x="672.400391" xlink:href="#DejaVuSans-8451"/>
     <use x="784.705078" xlink:href="#DejaVuSans-41"/>
    </g>
   </g>
   <g id="Line3DCollection_2">
    <path d="M 127.647252 122.065143 
L 132.591325 234.095044 
L 281.201652 282.044061 
" style="fill:none;stroke:#b0b0b0;stroke-width:0.8;"/>
    <path d="M 140.734232 112.514861 
L 145.050128 223.651828 
L 292.49201 270.457377 
" style="fill:none;stroke:#b0b0b0;stroke-width:0.8;"/>
    <path d="M 153.505263 103.195144 
L 157.221107 213.449872 
L 303.507881 259.152382 
" style="fill:none;stroke:#b0b0b0;stroke-width:0.8;"/>
    <path d="M 165.97165 94.097742 
L 169.114121 203.480912 
L 314.259157 248.118929 
" style="fill:none;stroke:#b0b0b0;stroke-width:0.8;"/>
    <path d="M 178.144167 85.214794 
L 180.738585 193.737056 
L 324.755256 237.347349 
" style="fill:none;stroke:#b0b0b0;stroke-width:0.8;"/>
    <path d="M 190.033082 76.538806 
L 192.103494 184.210763 
L 335.005157 226.828429 
" style="fill:none;stroke:#b0b0b0;stroke-width:0.8;"/>
    <path d="M 201.648193 68.062627 
L 203.217445 174.894829 
L 345.017422 216.553383 
" style="fill:none;stroke:#b0b0b0;stroke-width:0.8;"/>
   </g>
   <g id="xtick_6">
    <g id="line2d_8">
     <path d="M 279.949517 281.64006 
L 283.70915 282.853103 
" style="fill:none;stroke:#000000;stroke-linecap:square;stroke-width:0.8;"/>
    </g>
    <g id="text_8">
     <!-- 5 -->
     <g transform="translate(290.860453 303.01976)scale(0.1 -0.1)">
      <defs>
       <path d="M 10.796875 72.90625 
L 49.515625 72.90625 
L 49.515625 64.59375 
L 19.828125 64.59375 
L 19.828125 46.734375 
Q 21.96875 47.46875 24.109375 47.828125 
Q 26.265625 48.1875 28.421875 48.1875 
Q 40.625 48.1875 47.75 41.5 
Q 54.890625 34.8125 54.890625 23.390625 
Q 54.890625 11.625 47.5625 5.09375 
Q 40.234375 -1.421875 26.90625 -1.421875 
Q 22.3125 -1.421875 17.546875 -0.640625 
Q 12.796875 0.140625 7.71875 1.703125 
L 7.71875 11.625 
Q 12.109375 9.234375 16.796875 8.0625 
Q 21.484375 6.890625 26.703125 6.890625 
Q 35.15625 6.890625 40.078125 11.328125 
Q 45.015625 15.765625 45.015625 23.390625 
Q 45.015625 31 40.078125 35.4375 
Q 35.15625 39.890625 26.703125 39.890625 
Q 22.75 39.890625 18.8125 39.015625 
Q 14.890625 38.140625 10.796875 36.28125 
z
" id="DejaVuSans-53"/>
      </defs>
      <use xlink:href="#DejaVuSans-53"/>
     </g>
    </g>
   </g>
   <g id="xtick_7">
    <g id="line2d_9">
     <path d="M 291.250492 270.063256 
L 294.978207 271.246622 
" style="fill:none;stroke:#000000;stroke-linecap:square;stroke-width:0.8;"/>
    </g>
    <g id="text_9">
     <!-- 10 -->
     <g transform="translate(298.818121 291.261537)scale(0.1 -0.1)">
      <defs>
       <path d="M 12.40625 8.296875 
L 28.515625 8.296875 
L 28.515625 63.921875 
L 10.984375 60.40625 
L 10.984375 69.390625 
L 28.421875 72.90625 
L 38.28125 72.90625 
L 38.28125 8.296875 
L 54.390625 8.296875 
L 54.390625 0 
L 12.40625 0 
z
" id="DejaVuSans-49"/>
      </defs>
      <use xlink:href="#DejaVuSans-49"/>
      <use x="63.623047" xlink:href="#DejaVuSans-48"/>
     </g>
    </g>
   </g>
   <g id="xtick_8">
    <g id="line2d_10">
     <path d="M 302.276837 258.767783 
L 305.973066 259.922549 
" style="fill:none;stroke:#000000;stroke-linecap:square;stroke-width:0.8;"/>
    </g>
    <g id="text_10">
     <!-- 15 -->
     <g transform="translate(309.686077 279.789341)scale(0.1 -0.1)">
      <use xlink:href="#DejaVuSans-49"/>
      <use x="63.623047" xlink:href="#DejaVuSans-53"/>
     </g>
    </g>
   </g>
   <g id="xtick_9">
    <g id="line2d_11">
     <path d="M 313.038444 247.74351 
L 316.703615 248.8707 
" style="fill:none;stroke:#000000;stroke-linecap:square;stroke-width:0.8;"/>
    </g>
    <g id="text_11">
     <!-- 20 -->
     <g transform="translate(320.29284 268.59286)scale(0.1 -0.1)">
      <use xlink:href="#DejaVuSans-50"/>
      <use x="63.623047" xlink:href="#DejaVuSans-48"/>
     </g>
    </g>
   </g>
   <g id="xtick_10">
    <g id="line2d_12">
     <path d="M 323.544734 236.980786 
L 327.179272 238.081376 
" style="fill:none;stroke:#000000;stroke-linecap:square;stroke-width:0.8;"/>
    </g>
    <g id="text_12">
     <!-- 25 -->
     <g transform="translate(330.647713 257.662274)scale(0.1 -0.1)">
      <use xlink:href="#DejaVuSans-50"/>
      <use x="63.623047" xlink:href="#DejaVuSans-53"/>
     </g>
    </g>
   </g>
   <g id="xtick_11">
    <g id="line2d_13">
     <path d="M 333.804686 226.470412 
L 337.409011 227.545333 
" style="fill:none;stroke:#000000;stroke-linecap:square;stroke-width:0.8;"/>
    </g>
    <g id="text_13">
     <!-- 30 -->
     <g transform="translate(340.759565 246.988221)scale(0.1 -0.1)">
      <defs>
       <path d="M 40.578125 39.3125 
Q 47.65625 37.796875 51.625 33 
Q 55.609375 28.21875 55.609375 21.1875 
Q 55.609375 10.40625 48.1875 4.484375 
Q 40.765625 -1.421875 27.09375 -1.421875 
Q 22.515625 -1.421875 17.65625 -0.515625 
Q 12.796875 0.390625 7.625 2.203125 
L 7.625 11.71875 
Q 11.71875 9.328125 16.59375 8.109375 
Q 21.484375 6.890625 26.8125 6.890625 
Q 36.078125 6.890625 40.9375 10.546875 
Q 45.796875 14.203125 45.796875 21.1875 
Q 45.796875 27.640625 41.28125 31.265625 
Q 36.765625 34.90625 28.71875 34.90625 
L 20.21875 34.90625 
L 20.21875 43.015625 
L 29.109375 43.015625 
Q 36.375 43.015625 40.234375 45.921875 
Q 44.09375 48.828125 44.09375 54.296875 
Q 44.09375 59.90625 40.109375 62.90625 
Q 36.140625 65.921875 28.71875 65.921875 
Q 24.65625 65.921875 20.015625 65.03125 
Q 15.375 64.15625 9.8125 62.3125 
L 9.8125 71.09375 
Q 15.4375 72.65625 20.34375 73.4375 
Q 25.25 74.21875 29.59375 74.21875 
Q 40.828125 74.21875 47.359375 69.109375 
Q 53.90625 64.015625 53.90625 55.328125 
Q 53.90625 49.265625 50.4375 45.09375 
Q 46.96875 40.921875 40.578125 39.3125 
z
" id="DejaVuSans-51"/>
      </defs>
      <use xlink:href="#DejaVuSans-51"/>
      <use x="63.623047" xlink:href="#DejaVuSans-48"/>
     </g>
    </g>
   </g>
   <g id="xtick_12">
    <g id="line2d_14">
     <path d="M 343.826864 216.203616 
L 347.401392 217.253755 
" style="fill:none;stroke:#000000;stroke-linecap:square;stroke-width:0.8;"/>
    </g>
    <g id="text_14">
     <!-- 35 -->
     <g transform="translate(350.63685 236.561775)scale(0.1 -0.1)">
      <use xlink:href="#DejaVuSans-51"/>
      <use x="63.623047" xlink:href="#DejaVuSans-53"/>
     </g>
    </g>
   </g>
  </g>
  <g id="axis3d_3">
   <g id="line2d_15">
    <path d="M 352.090401 209.294766 
L 357.122702 99.402171 
" style="fill:none;stroke:#000000;stroke-linecap:square;stroke-width:0.8;"/>
   </g>
   <g id="text_15">
    <!-- Load -->
    <g transform="translate(382.931136 152.902279)scale(0.1 -0.1)">
     <defs>
      <path d="M 9.8125 72.90625 
L 19.671875 72.90625 
L 19.671875 8.296875 
L 55.171875 8.296875 
L 55.171875 0 
L 9.8125 0 
z
" id="DejaVuSans-76"/>
     </defs>
     <use xlink:href="#DejaVuSans-76"/>
     <use x="53.962891" xlink:href="#DejaVuSans-111"/>
     <use x="115.144531" xlink:href="#DejaVuSans-97"/>
     <use x="176.423828" xlink:href="#DejaVuSans-100"/>
    </g>
   </g>
   <g id="Line3DCollection_3">
    <path d="M 352.641884 197.251779 
L 210.942039 156.643601 
L 122.603439 229.63759 
" style="fill:none;stroke:#b0b0b0;stroke-width:0.8;"/>
    <path d="M 353.362619 181.51276 
L 210.766844 141.40816 
L 121.827002 213.514359 
" style="fill:none;stroke:#b0b0b0;stroke-width:0.8;"/>
    <path d="M 354.092617 165.571474 
L 210.589505 125.986317 
L 121.040203 197.175986 
" style="fill:none;stroke:#b0b0b0;stroke-width:0.8;"/>
    <path d="M 354.832057 149.423995 
L 210.409983 110.374629 
L 120.242836 180.618137 
" style="fill:none;stroke:#b0b0b0;stroke-width:0.8;"/>
    <path d="M 355.581123 133.066299 
L 210.228237 94.56957 
L 119.434685 163.836359 
" style="fill:none;stroke:#b0b0b0;stroke-width:0.8;"/>
    <path d="M 356.340006 116.494252 
L 210.044226 78.567523 
L 118.61553 146.826078 
" style="fill:none;stroke:#b0b0b0;stroke-width:0.8;"/>
   </g>
   <g id="xtick_13">
    <g id="line2d_16">
     <path d="M 351.452359 196.910886 
L 355.023777 197.934379 
" style="fill:none;stroke:#000000;stroke-linecap:square;stroke-width:0.8;"/>
    </g>
    <g id="text_16">
     <!-- 35 -->
     <g transform="translate(364.61568 202.268753)scale(0.1 -0.1)">
      <use xlink:href="#DejaVuSans-51"/>
      <use x="63.623047" xlink:href="#DejaVuSans-53"/>
     </g>
    </g>
   </g>
   <g id="xtick_14">
    <g id="line2d_17">
     <path d="M 352.165214 181.175994 
L 355.76031 182.187103 
" style="fill:none;stroke:#000000;stroke-linecap:square;stroke-width:0.8;"/>
    </g>
    <g id="text_17">
     <!-- 40 -->
     <g transform="translate(365.450946 186.561024)scale(0.1 -0.1)">
      <use xlink:href="#DejaVuSans-52"/>
      <use x="63.623047" xlink:href="#DejaVuSans-48"/>
     </g>
    </g>
   </g>
   <g id="xtick_15">
    <g id="line2d_18">
     <path d="M 352.887227 165.238968 
L 356.506316 166.23729 
" style="fill:none;stroke:#000000;stroke-linecap:square;stroke-width:0.8;"/>
    </g>
    <g id="text_18">
     <!-- 45 -->
     <g transform="translate(366.296913 170.652046)scale(0.1 -0.1)">
      <use xlink:href="#DejaVuSans-52"/>
      <use x="63.623047" xlink:href="#DejaVuSans-53"/>
     </g>
    </g>
   </g>
   <g id="xtick_16">
    <g id="line2d_19">
     <path d="M 353.618574 149.09589 
L 357.261979 150.081007 
" style="fill:none;stroke:#000000;stroke-linecap:square;stroke-width:0.8;"/>
    </g>
    <g id="text_19">
     <!-- 50 -->
     <g transform="translate(367.153789 154.537926)scale(0.1 -0.1)">
      <use xlink:href="#DejaVuSans-53"/>
      <use x="63.623047" xlink:href="#DejaVuSans-48"/>
     </g>
    </g>
   </g>
   <g id="xtick_17">
    <g id="line2d_20">
     <path d="M 354.359439 132.742736 
L 358.027488 133.714219 
" style="fill:none;stroke:#000000;stroke-linecap:square;stroke-width:0.8;"/>
    </g>
    <g id="text_20">
     <!-- 55 -->
     <g transform="translate(368.021786 138.21467)scale(0.1 -0.1)">
      <use xlink:href="#DejaVuSans-53"/>
      <use x="63.623047" xlink:href="#DejaVuSans-53"/>
     </g>
    </g>
   </g>
   <g id="xtick_18">
    <g id="line2d_21">
     <path d="M 355.110008 116.175379 
L 358.803036 117.132785 
" style="fill:none;stroke:#000000;stroke-linecap:square;stroke-width:0.8;"/>
    </g>
    <g id="text_21">
     <!-- 60 -->
     <g transform="translate(368.901121 121.678181)scale(0.1 -0.1)">
      <use xlink:href="#DejaVuSans-54"/>
      <use x="63.623047" xlink:href="#DejaVuSans-48"/>
     </g>
    </g>
   </g>
  </g>
  <g id="axes_1">
   <g id="line2d_22">
    <path clip-path="url(#pe3418c66f2)" d="M 181.94094 197.178431 
L 182.777311 198.031832 
L 183.801094 198.729401 
L 185.148012 198.997419 
L 186.504748 199.668649 
L 187.904578 200.114818 
L 189.215134 200.764133 
L 190.568435 201.157347 
L 191.897194 201.446552 
L 193.249603 201.685209 
L 194.557029 201.963644 
L 195.845406 202.417374 
L 197.157915 202.851667 
L 198.516457 203.184512 
L 199.716171 203.718769 
L 200.871194 204.29336 
L 201.960081 205.021614 
L 203.00437 205.790636 
L 204.094992 206.458481 
L 205.164487 207.178286 
L 206.189073 207.907948 
L 207.215085 208.638626 
L 208.219218 209.359262 
L 209.224436 210.049783 
L 210.229653 210.61658 
L 211.2372 211.246696 
L 212.244203 211.690437 
L 213.252242 212.072434 
L 214.237538 212.318997 
L 215.269562 212.431538 
L 216.279782 212.470601 
L 217.291775 212.478375 
L 218.350254 212.288447 
L 219.433582 212.046314 
L 220.518182 211.677764 
L 221.650685 211.236105 
L 222.854002 210.700752 
L 224.036063 210.058335 
L 225.28928 209.353296 
L 226.566873 208.436312 
L 227.892592 207.413089 
L 229.243798 206.335538 
L 230.643243 205.151301 
L 232.000091 204.06918 
L 233.382331 202.868652 
L 234.744426 201.558063 
L 236.13232 200.160072 
L 237.45507 198.91623 
L 238.849236 197.447716 
L 240.360575 195.841902 
L 241.738392 194.483603 
L 243.256291 192.774153 
L 244.868604 190.947423 
L 246.506415 189.291221 
L 248.329679 187.242796 
L 250.292964 184.842166 
L 252.231713 183.435146 
L 254.698202 180.455934 
L 256.982465 178.125053 
L 258.670296 177.979738 
L 261.00967 174.69103 
L 261.942997 174.536811 
L 263.441892 176.057407 
L 266.30328 172.269794 
L 269.132303 174.993684 
L 272.45605 170.503981 
L 273.802338 174.733272 
L 276.506944 173.508605 
L 282.669733 166.043258 
L 283.642657 167.340607 
L 285.86181 166.068775 
L 289.113809 165.238702 
L 291.275981 165.487619 
L 293.188549 166.439737 
L 295.165366 167.234424 
L 296.756428 168.316434 
L 298.413323 169.241765 
L 299.98359 170.277874 
L 301.466037 171.489836 
L 302.951624 172.57203 
L 304.499967 173.627371 
L 305.958242 174.955917 
L 307.481457 176.160147 
L 308.961263 177.436115 
L 310.396903 178.816256 
L 311.832384 180.196244 
L 313.199982 181.797269 
L 314.498762 183.651577 
L 315.754568 185.577945 
L 317.072983 187.444027 
L 318.483773 188.939786 
L 319.478873 190.806029 
L 320.125926 192.85662 
L 321.011098 193.839309 
L 321.95841 194.827461 
L 323.283343 195.419122 
" style="fill:none;stroke:#1f77b4;stroke-linecap:square;stroke-width:1.5;"/>
   </g>
   <g id="line2d_23">
    <path clip-path="url(#pe3418c66f2)" d="M 192.64208 177.340441 
L 193.614022 177.77809 
L 194.655546 178.12822 
L 195.856889 178.252127 
L 196.974367 178.794445 
L 198.161615 179.28004 
L 199.240197 180.110641 
L 200.296179 180.899128 
L 201.266162 182.014261 
L 202.079763 183.389941 
L 202.808038 185.155881 
L 203.425231 187.145434 
L 203.908887 189.410014 
L 204.257007 191.826394 
L 204.447865 194.508798 
L 204.616284 197.216448 
L 204.781527 199.681056 
L 204.949356 202.306927 
L 205.272596 204.425869 
L 205.756919 206.409582 
L 206.422068 207.987753 
L 207.202911 209.468199 
L 208.188233 210.551812 
L 209.264006 211.369334 
L 210.36395 212.167659 
L 211.60019 212.658752 
L 212.859863 213.067798 
L 214.076167 213.611281 
L 215.361869 214.063357 
L 216.624809 214.411357 
L 217.821354 214.883064 
L 219.01825 215.230431 
L 220.149924 215.826729 
L 221.281851 216.267524 
L 222.370561 216.843548 
L 223.414526 217.336111 
L 224.392401 217.953468 
L 225.347557 218.310411 
L 226.214225 218.844236 
L 227.059161 219.242805 
L 227.928297 219.527427 
L 228.662667 219.87353 
L 229.466731 220.032587 
L 230.295051 220.013684 
L 231.216507 219.848733 
L 232.163107 219.662632 
L 233.248317 219.161591 
L 234.4049 218.78735 
L 235.677743 218.276766 
L 236.975751 217.744453 
L 238.253369 217.200118 
L 239.556161 216.379106 
L 240.793561 215.299632 
L 242.079741 213.952139 
L 243.392692 212.099856 
L 244.891865 209.883563 
L 246.738075 206.6426 
L 248.905722 203.427307 
L 251.554772 199.322535 
L 254.550284 194.064388 
L 256.345478 194.404538 
L 260.528141 186.137495 
L 263.414476 178.935333 
L 264.252167 182.048849 
L 267.66367 174.238208 
L 268.988994 179.148373 
L 273.227434 173.638374 
L 272.589447 177.435205 
L 274.842616 173.291791 
L 280.063227 168.801399 
L 281.362268 168.912374 
L 284.017169 169.248551 
L 286.779109 169.190791 
L 288.54507 170.643302 
L 290.051074 172.234355 
L 291.513118 173.864413 
L 292.999004 175.343725 
L 294.353653 177.007291 
L 295.855186 178.693421 
L 297.270744 180.426217 
L 298.518102 182.156626 
L 299.532299 184.011203 
L 300.43938 186.000514 
L 301.262506 188.040304 
L 301.996892 190.325878 
L 302.700068 193.056049 
L 303.329707 196.238815 
L 303.79996 199.956121 
L 304.161058 203.876727 
L 304.348692 208.064194 
L 304.455981 212.147234 
L 304.484487 216.063288 
L 304.650413 219.53865 
L 305.113144 222.10142 
L 305.795079 224.327688 
L 306.700771 226.054409 
" style="fill:none;stroke:#ff7f0e;stroke-linecap:square;stroke-width:1.5;"/>
   </g>
   <g id="line2d_24">
    <path clip-path="url(#pe3418c66f2)" d="M 192.604592 169.220692 
L 193.456455 170.546953 
L 194.623425 171.234877 
L 195.654127 172.037357 
L 196.718166 173.352633 
L 198.051614 174.096913 
L 199.253764 175.268104 
L 200.429761 176.209348 
L 201.60569 177.088883 
L 202.824423 177.681089 
L 204.042927 178.180159 
L 205.284093 178.566817 
L 206.502956 178.910583 
L 207.676528 179.199398 
L 208.874713 179.500619 
L 210.073235 179.708307 
L 211.27223 179.822305 
L 212.449161 179.861731 
L 213.559187 179.896426 
L 214.668228 179.648586 
L 215.665767 179.465552 
L 216.662545 178.967322 
L 217.547226 178.438613 
L 218.432728 177.718921 
L 219.250863 176.833774 
L 220.13834 175.697249 
L 220.981543 174.373309 
L 221.917208 172.744003 
L 222.854455 170.853336 
L 223.884208 168.525614 
L 225.007721 165.854396 
L 226.180235 162.940725 
L 227.448185 159.809018 
L 228.812247 156.523303 
L 230.34106 152.96071 
L 231.966862 149.341654 
L 233.712397 145.615198 
L 235.64605 141.659439 
L 237.699395 137.828628 
L 239.917189 133.559554 
L 242.345097 128.913196 
L 244.708497 124.878243 
L 247.281223 120.269709 
L 249.856241 116.087771 
L 252.114616 112.860816 
L 254.739014 108.967271 
L 257.04294 106.466972 
L 259.194726 103.622582 
L 259.132599 101.432812 
L 259.570872 107.077524 
L 260.116565 107.61757 
L 265.219807 104.764296 
L 268.85241 106.430457 
L 271.033513 101.608608 
L 273.388534 104.017484 
L 276.939439 101.155408 
L 282.265202 97.059265 
L 283.51748 96.886743 
L 286.029119 96.959141 
L 289.225029 96.491068 
L 291.365765 97.550581 
L 293.461051 98.577365 
L 295.233149 99.838313 
L 296.856529 101.124118 
L 298.393865 102.481188 
L 299.886557 103.940179 
L 301.336323 105.434791 
L 302.762095 107.046552 
L 304.142694 108.793484 
L 305.501822 110.558119 
L 306.838712 112.37364 
L 308.106045 114.474835 
L 309.332882 116.54615 
L 310.575052 118.79672 
L 311.772182 121.182259 
L 312.921479 123.801454 
L 313.97727 126.822439 
L 314.921581 130.16488 
L 315.778325 133.711921 
L 316.526844 137.482727 
L 317.185091 141.557037 
L 317.716593 145.809886 
L 318.118474 150.340379 
L 318.457146 154.962101 
L 318.720058 159.435787 
L 318.959315 164.02935 
L 319.184152 168.451651 
L 319.481855 172.495929 
L 319.788175 176.286152 
L 320.188454 179.679096 
L 320.691337 182.416412 
L 321.18164 184.952415 
L 321.873921 186.893142 
L 322.852861 188.124054 
L 323.965514 189.60266 
L 325.297737 190.558085 
" style="fill:none;stroke:#2ca02c;stroke-linecap:square;stroke-width:1.5;"/>
   </g>
   <g id="line2d_25">
    <path clip-path="url(#pe3418c66f2)" d="M 148.985538 198.024364 
L 150.014371 198.36361 
L 151.431692 198.719084 
L 153.470605 198.465701 
L 155.359902 199.098175 
L 157.12592 199.89722 
L 158.623604 201.082786 
L 160.160287 201.904924 
L 161.628015 202.94993 
L 162.96532 203.872588 
L 164.231242 204.922035 
L 165.322322 206.020167 
L 166.391787 207.204559 
L 167.36279 208.440944 
L 168.237341 209.794264 
L 168.989872 211.253724 
L 169.621274 212.852347 
L 170.157 214.602312 
L 170.74226 216.281473 
L 171.326849 217.899361 
L 171.959323 219.381348 
L 172.548067 221.070122 
L 173.230672 222.451035 
L 173.970157 224.018159 
L 174.825873 225.157897 
L 175.710302 226.375131 
L 176.544989 227.572496 
L 177.428888 228.664203 
L 178.365332 229.779366 
L 179.446637 230.572499 
L 180.581201 231.420657 
L 181.713271 232.107887 
L 182.798274 232.871796 
L 183.956574 233.474405 
L 185.185289 233.785583 
L 186.390365 234.086488 
L 187.526114 234.583075 
L 188.705987 234.711826 
L 189.86256 234.830088 
L 190.919444 234.873151 
L 191.926092 234.797055 
L 192.883939 234.666647 
L 193.991363 234.371732 
L 195.220798 233.770173 
L 196.527332 233.134298 
L 197.887943 232.58452 
L 199.39307 231.573713 
L 200.853274 230.703642 
L 202.314049 229.700298 
L 203.848312 228.431434 
L 205.287353 227.247764 
L 206.580426 226.060661 
L 207.896954 224.517152 
L 209.217925 223.035855 
L 210.937672 221.433547 
L 212.761458 217.785267 
L 213.634208 219.598746 
L 217.670887 211.818487 
L 220.513229 207.865454 
L 221.911206 210.359349 
L 223.077412 204.004139 
L 226.613821 204.575788 
L 227.355692 202.383997 
L 228.05587 200.900986 
L 229.461096 198.07494 
L 235.248552 190.285079 
L 236.621176 190.000853 
L 239.342017 188.628358 
L 242.057915 189.091106 
L 244.172729 189.23493 
L 246.423322 191.216062 
L 248.676564 190.825613 
L 250.427099 191.996842 
L 251.828036 192.404319 
L 252.683323 194.113782 
L 253.919439 195.145955 
L 255.579421 196.031307 
L 257.353445 197.282835 
L 258.963682 198.480794 
L 260.241256 200.518845 
L 261.498222 202.27509 
L 262.754402 204.16682 
L 263.893212 206.268195 
L 265.031824 208.437804 
L 266.173045 210.406409 
L 267.431254 212.267151 
L 268.759161 214.096543 
L 270.204497 215.716052 
L 271.787854 217.271127 
L 273.391378 218.971211 
L 275.132318 220.538443 
L 276.919241 221.959959 
L 278.543354 223.567779 
L 280.011649 224.995267 
L 281.348953 226.188256 
L 282.548132 227.615015 
" style="fill:none;stroke:#d62728;stroke-linecap:square;stroke-width:1.5;"/>
   </g>
   <g id="line2d_26">
    <path clip-path="url(#pe3418c66f2)" d="M 184.058146 194.606641 
L 185.126388 195.26104 
L 186.421294 195.44217 
L 187.712933 195.406653 
L 189.058675 195.641899 
L 190.629469 195.340637 
L 192.089684 195.323099 
L 193.613069 194.874472 
L 195.091281 194.433519 
L 196.639382 193.902339 
L 198.256163 193.218703 
L 199.873814 192.503367 
L 201.513361 191.61214 
L 203.109206 190.790292 
L 204.682956 189.924723 
L 206.189583 189.085493 
L 207.629731 188.303711 
L 208.981155 187.630144 
L 210.267495 187.108037 
L 211.39725 186.784446 
L 212.349041 186.80495 
L 213.121593 187.07637 
L 213.758549 187.403168 
L 214.192467 187.970751 
L 214.62775 188.540118 
L 215.063141 188.984879 
L 215.544843 189.296581 
L 216.095397 189.391355 
L 216.828728 189.041937 
L 217.655358 188.516587 
L 218.689102 187.555977 
L 219.815078 186.194026 
L 221.011294 184.512707 
L 222.300041 182.330278 
L 223.706277 179.817076 
L 225.184998 177.108034 
L 226.896024 173.805829 
L 228.773296 170.486285 
L 230.700983 167.11956 
L 232.861661 163.289145 
L 235.141402 159.451564 
L 237.493531 155.41829 
L 240.100536 151.231593 
L 242.664537 147.440188 
L 245.071914 143.812083 
L 247.32111 141.137787 
L 249.934716 138.024726 
L 252.660028 135.14689 
L 255.093475 132.349497 
L 254.059924 136.553621 
L 255.571953 135.191033 
L 255.519359 140.364113 
L 261.132562 131.515157 
L 265.086908 138.738174 
L 269.113336 129.984632 
L 268.63763 138.326134 
L 271.686363 136.473345 
L 277.358666 131.683312 
L 279.257737 133.437498 
L 281.535334 134.018732 
L 284.924896 133.822973 
L 286.863994 134.910642 
L 288.397695 136.15652 
L 289.868741 137.360404 
L 291.162285 139.040211 
L 292.326612 140.898103 
L 293.379218 143.111168 
L 294.343491 145.563168 
L 295.259119 148.346361 
L 296.083423 151.49843 
L 296.815591 155.051648 
L 297.364744 159.341512 
L 297.754258 164.251227 
L 297.881145 169.749039 
L 297.787786 175.798127 
L 297.523176 182.072281 
L 297.111949 188.394804 
L 296.680466 194.68076 
L 296.26016 200.464252 
L 296.021345 205.584185 
L 295.854873 210.269233 
L 296.064991 214.007379 
L 296.390328 217.297932 
L 297.09049 219.762965 
L 297.859314 222.009446 
L 298.850126 223.731548 
L 299.908207 225.297094 
L 301.013043 226.69501 
L 302.122949 227.935489 
L 303.21522 229.103135 
L 304.295085 230.007506 
L 305.27023 231.019134 
L 306.360251 231.672026 
L 307.49723 232.188066 
L 308.796867 232.852918 
L 310.268312 233.316188 
" style="fill:none;stroke:#9467bd;stroke-linecap:square;stroke-width:1.5;"/>
   </g>
  </g>
 </g>
 <defs>
  <clipPath id="pe3418c66f2">
   <rect height="266.112" width="266.112" x="103.104" y="41.472"/>
  </clipPath>
 </defs>
</svg>
